/* XPM */
static char * close_xpm[] = {
"18 18 182 2",
"  	c None",
". 	c #E9E9E9",
"+ 	c #E6E6E6",
"@ 	c #E5E6E6",
"# 	c #E6E6E5",
"$ 	c #E3E2E3",
"% 	c #E3E3E3",
"& 	c #E3E3E2",
"* 	c #E2E3E3",
"= 	c #E0E0E0",
"- 	c #DFE0DF",
"; 	c #E0DFE0",
"> 	c #DFE0E0",
", 	c #C6B8BA",
"' 	c #967674",
") 	c #713D3B",
"! 	c #6E3D3A",
"~ 	c #967573",
"{ 	c #C6B9B9",
"] 	c #E0E0DF",
"^ 	c #DCDDDC",
"/ 	c #DDDDDD",
"( 	c #DDDCDD",
"_ 	c #D9D7D8",
": 	c #9B7775",
"< 	c #6B2724",
"[ 	c #863933",
"} 	c #A6514E",
"| 	c #A5504D",
"1 	c #873935",
"2 	c #6A2623",
"3 	c #9A7674",
"4 	c #DAD8D8",
"5 	c #DDDDDC",
"6 	c #D9D9DA",
"7 	c #DADAD9",
"8 	c #DAD9DA",
"9 	c #9B7575",
"0 	c #772824",
"a 	c #DC6F6A",
"b 	c #F7B2AB",
"c 	c #FFEEE6",
"d 	c #FBECE5",
"e 	c #F6B1AA",
"f 	c #DA6D68",
"g 	c #9B7574",
"h 	c #DADADA",
"i 	c #D6D7D7",
"j 	c #D7D7D7",
"k 	c #C3B4B4",
"l 	c #792322",
"m 	c #CD504A",
"n 	c #F58E87",
"o 	c #F8918A",
"p 	c #F68B85",
"q 	c #F78C86",
"r 	c #F79089",
"s 	c #CD5149",
"t 	c #C2B3B3",
"u 	c #D7D7D6",
"v 	c #D6D7D6",
"w 	c #D3D3D4",
"x 	c #D3D3D3",
"y 	c #D4D3D4",
"z 	c #A17271",
"A 	c #A53029",
"B 	c #E54E45",
"C 	c #F1625A",
"D 	c #F47169",
"E 	c #F97872",
"F 	c #F87972",
"G 	c #F2635B",
"H 	c #E54E47",
"I 	c #A42E2A",
"J 	c #A07170",
"K 	c #D4D4D4",
"L 	c #D0D0D0",
"M 	c #D1D0D1",
"N 	c #D0D0D1",
"O 	c #8F3F3B",
"P 	c #CB3B32",
"Q 	c #F0443A",
"R 	c #F95148",
"S 	c #FA5C51",
"T 	c #FC635B",
"U 	c #F95D51",
"V 	c #F95249",
"W 	c #F1463C",
"X 	c #C8382F",
"Y 	c #903F3D",
"Z 	c #D0D1D0",
"` 	c #D1D1D1",
" .	c #CECDCD",
"..	c #CDCDCD",
"+.	c #984440",
"@.	c #D8453B",
"#.	c #F85148",
"$.	c #FD5C52",
"%.	c #FC655C",
"&.	c #FC6C64",
"*.	c #FB6E65",
"=.	c #FD665D",
"-.	c #FC5E53",
";.	c #D6463D",
">.	c #994543",
",.	c #CBCACA",
"'.	c #CACACA",
").	c #AD7877",
"!.	c #CA4B45",
"~.	c #F96058",
"{.	c #FD7067",
"].	c #FD807A",
"^.	c #FE8F88",
"/.	c #FD9089",
"(.	c #FD827B",
"_.	c #FC716C",
":.	c #F9625B",
"<.	c #CA4F48",
"[.	c #AE7978",
"}.	c #CACBCB",
"|.	c #CBCBCA",
"1.	c #C8C7C7",
"2.	c #C7C8C7",
"3.	c #C7C7C7",
"4.	c #C0B0AF",
"5.	c #B2514B",
"6.	c #F0736D",
"7.	c #FD837E",
"8.	c #FE9F99",
"9.	c #FEB0AC",
"0.	c #FCB1AC",
"a.	c #FC9F98",
"b.	c #FC8682",
"c.	c #F07671",
"d.	c #B1524E",
"e.	c #BFB0AF",
"f.	c #C7C8C8",
"g.	c #C4C4C4",
"h.	c #C4C5C4",
"i.	c #B38582",
"j.	c #BF6C68",
"k.	c #F09896",
"l.	c #F9AEAB",
"m.	c #FCBCBA",
"n.	c #FABDBC",
"o.	c #F9AFAC",
"p.	c #F19C99",
"q.	c #BE6F6A",
"r.	c #B38584",
"s.	c #C1C1C1",
"t.	c #C1C1C2",
"u.	c #C1C2C1",
"v.	c #C3C1C1",
"w.	c #B58D8C",
"x.	c #B47474",
"y.	c #CE9896",
"z.	c #E3AFB1",
"A.	c #E2B1AC",
"B.	c #B47472",
"C.	c #B58D8A",
"D.	c #C2C1C1",
"E.	c #BFBEBE",
"F.	c #BEBEBE",
"G.	c #BEBFBE",
"H.	c #C3B3B3",
"I.	c #B48E8B",
"J.	c #A56C68",
"K.	c #B48E8C",
"L.	c #C2B3B2",
"M.	c #BBBBBB",
"N.	c #BABBBA",
"O.	c #BBBABB",
"P.	c #B8B8B8",
"Q.	c #B8B8B7",
"R.	c #B8B7B8",
"S.	c #B7B8B8",
"T.	c #B7B8B7",
"U.	c #B4B5B4",
"V.	c #B5B5B4",
"W.	c #B5B5B5",
"X.	c #B5B4B5",
"Y.	c #B4B5B5",
". . . . . . . . . . . . . . . . . . ",
"+ + + + + @ + @ + + + + + + + + + # ",
"$ % % % % & % & % & % % % * * & $ & ",
"= - ; ; ; > , ' ) ! ~ { = = - = ] ; ",
"^ / / ( _ : < [ } | 1 2 3 4 / 5 ( / ",
"6 7 6 8 9 0 a b c d e f 0 g 8 8 h 6 ",
"i j j k l m n o p q r n s l t u u v ",
"w x y z A B C D E F D G H I J x y K ",
"L M N O P Q R S T T U V W X Y Z M ` ",
" .....+.@.#.$.%.&.*.=.-.V ;.>... ...",
",.,.'.).!.~.{.].^./.(._.:.<.[.}.|.'.",
"1.2.3.4.5.6.7.8.9.0.a.b.c.d.e.2.f.3.",
"g.g.g.h.i.j.k.l.m.n.o.p.q.r.g.h.g.g.",
"s.s.t.u.v.w.x.y.z.A.y.B.C.D.s.u.s.s.",
"E.F.F.F.G.F.H.I.J.J.K.L.F.F.F.F.F.F.",
"M.M.M.M.M.M.N.O.M.M.M.M.M.M.M.M.M.M.",
"P.P.P.P.P.P.Q.P.R.P.P.P.P.Q.P.S.P.T.",
"U.V.W.X.W.W.X.Y.V.Y.W.W.W.W.Y.W.W.Y."};
