/* XPM */
static char * inative_xpm[] = {
"18 18 127 2",
"  	c None",
". 	c #E9E9E9",
"+ 	c #E6E6E6",
"@ 	c #E5E6E6",
"# 	c #E6E6E5",
"$ 	c #E3E2E3",
"% 	c #E3E3E3",
"& 	c #E3E3E2",
"* 	c #E2E3E3",
"= 	c #E0E0E0",
"- 	c #DFE0DF",
"; 	c #E0DFE0",
"> 	c #DFE0E0",
", 	c #C2C1C2",
"' 	c #8D8D8D",
") 	c #5F5F5F",
"! 	c #C2C2C2",
"~ 	c #E0E0DF",
"{ 	c #DCDDDC",
"] 	c #DDDDDD",
"^ 	c #DDDCDD",
"/ 	c #D8D8D9",
"( 	c #8D8D8C",
"_ 	c #525252",
": 	c #6F6F6F",
"< 	c #8A8A8A",
"[ 	c #6D6D6D",
"} 	c #8C8C8D",
"| 	c #D9D9D9",
"1 	c #DDDDDC",
"2 	c #D9D9DA",
"3 	c #DADAD9",
"4 	c #DAD9DA",
"5 	c #5C5C5C",
"6 	c #B8B8B8",
"7 	c #EAEAEA",
"8 	c #F9F9F9",
"9 	c #FAFAFA",
"0 	c #B6B6B6",
"a 	c #5B5B5B",
"b 	c #DADADA",
"c 	c #D6D7D7",
"d 	c #D7D7D7",
"e 	c #BCBCBC",
"f 	c #A0A0A0",
"g 	c #DEDEDE",
"h 	c #D8D8D8",
"i 	c #D7D7D6",
"j 	c #D6D7D6",
"k 	c #D3D3D4",
"l 	c #D3D3D3",
"m 	c #D4D3D4",
"n 	c #909090",
"o 	c #7C7C7C",
"p 	c #ADADAD",
"q 	c #BFBFBF",
"r 	c #C7C7C7",
"s 	c #CCCCCC",
"t 	c #CDCDCD",
"u 	c #BDBDBD",
"v 	c #8F8F8F",
"w 	c #D4D4D4",
"x 	c #D0D0D0",
"y 	c #D1D0D1",
"z 	c #D0D0D1",
"A 	c #737373",
"B 	c #999999",
"C 	c #B3B3B3",
"D 	c #C5C5C5",
"E 	c #C1C1C1",
"F 	c #727272",
"G 	c #D0D1D0",
"H 	c #D1D1D1",
"I 	c #CECDCD",
"J 	c #7A7A7A",
"K 	c #A6A6A6",
"L 	c #CBCBCB",
"M 	c #CFCFCF",
"N 	c #CECECE",
"O 	c #7B7B7B",
"P 	c #CBCACA",
"Q 	c #CACACA",
"R 	c #9A9A9A",
"S 	c #9D9D9D",
"T 	c #D5D5D5",
"U 	c #DBDBDB",
"V 	c #DCDCDC",
"W 	c #D6D6D6",
"X 	c #CACBCB",
"Y 	c #CBCBCA",
"Z 	c #C8C7C7",
"` 	c #C7C8C7",
" .	c #BABABA",
"..	c #8E8E8E",
"+.	c #D2D2D2",
"@.	c #E5E5E5",
"#.	c #8C8C8C",
"$.	c #B8B9B9",
"%.	c #C7C8C8",
"&.	c #C4C4C4",
"*.	c #C4C5C4",
"=.	c #A1A1A1",
"-.	c #E4E4E4",
";.	c #9E9E9E",
">.	c #C1C1C2",
",.	c #C1C2C1",
"'.	c #A5A5A5",
").	c #989898",
"!.	c #B4B4B4",
"~.	c #969696",
"{.	c #A3A3A3",
"].	c #BFBEBE",
"^.	c #BEBEBE",
"/.	c #BEBFBE",
"(.	c #BBBBBB",
"_.	c #A4A4A4",
":.	c #BABBBA",
"<.	c #BBBABB",
"[.	c #B8B8B7",
"}.	c #B8B7B8",
"|.	c #B7B8B8",
"1.	c #B7B8B7",
"2.	c #B4B5B4",
"3.	c #B5B5B4",
"4.	c #B5B5B5",
"5.	c #B5B4B5",
"6.	c #B4B5B5",
". . . . . . . . . . . . . . . . . . ",
"+ + + + + @ + @ + + + + + + + + + # ",
"$ % % % % & % & % & % % % * * & $ & ",
"= - ; ; ; > , ' ) ) ' ! = = - = ~ ; ",
"{ ] ] ^ / ( _ : < < [ _ } | ] 1 ^ ] ",
"2 3 2 4 ' 5 6 7 8 9 7 0 a ' 4 4 b 2 ",
"c d d e a f | g h h g | f a e i i j ",
"k l m n o p q r s t r u p o v l m w ",
"x y z A B C u ! D D E e C B F G y H ",
"I t t J K u r L M N L D u K O t I t ",
"P P Q R S ! N T U V W t ! S B X Y Q ",
"Z ` r  ...! +.] @.@.] +.E #.$.` %.r ",
"&.&.&.*.=.S t U -.-.V s ;.f &.*.&.&.",
"E E >.,.>.'.).!.L Q C ~.{.! E ,.E E ",
"].^.^.^./.^.(.'...' _.(.^.^.^.^.^.^.",
"(.(.(.(.(.(.:.<.(.(.(.(.(.(.(.(.(.(.",
"6 6 6 6 6 6 [.6 }.6 6 6 6 [.6 |.6 1.",
"2.3.4.5.4.4.5.6.3.6.4.4.4.4.6.4.4.6."};
