/* XPM */
static char * max_xpm[] = {
"18 18 177 2",
"  	c None",
". 	c #E9E9E9",
"+ 	c #E6E6E6",
"@ 	c #E5E6E6",
"# 	c #E6E6E5",
"$ 	c #E3E2E3",
"% 	c #E3E3E3",
"& 	c #E3E3E2",
"* 	c #E2E3E3",
"= 	c #E0E0E0",
"- 	c #DFE0DF",
"; 	c #E0DFE0",
"> 	c #DFE0E0",
", 	c #BEC3BC",
"' 	c #84917A",
") 	c #516643",
"! 	c #516641",
"~ 	c #83927A",
"{ 	c #BFC3BA",
"] 	c #E0E0DF",
"^ 	c #DCDDDC",
"/ 	c #DDDDDD",
"( 	c #DDDCDD",
"_ 	c #D8D8D8",
": 	c #86917C",
"< 	c #3F5C2C",
"[ 	c #547C40",
"} 	c #6F9854",
"| 	c #6E9755",
"1 	c #527A3E",
"2 	c #82917A",
"3 	c #D9D9D8",
"4 	c #DDDDDC",
"5 	c #D9D9DA",
"6 	c #DADAD9",
"7 	c #DAD9DA",
"8 	c #849178",
"9 	c #44672F",
"0 	c #9EC67D",
"a 	c #E3EFC9",
"b 	c #F9FAF5",
"c 	c #F8FBF4",
"d 	c #E3F0C4",
"e 	c #9AC478",
"f 	c #41672E",
"g 	c #DADADA",
"h 	c #D6D7D7",
"i 	c #D7D7D7",
"j 	c #B9BEB4",
"k 	c #43662E",
"l 	c #7FB15C",
"m 	c #C5E5A2",
"n 	c #C7EAA6",
"o 	c #BEE6A0",
"p 	c #BDE6A0",
"q 	c #B9BDB5",
"r 	c #D7D7D6",
"s 	c #D6D7D6",
"t 	c #D3D3D4",
"u 	c #D3D3D3",
"v 	c #D4D3D4",
"w 	c #869579",
"x 	c #588D3F",
"y 	c #8ABF63",
"z 	c #9ED07B",
"A 	c #AAD689",
"B 	c #AFDB8C",
"C 	c #B0DC8D",
"D 	c #A9D685",
"E 	c #9CCE79",
"F 	c #88BF64",
"G 	c #588D3D",
"H 	c #859579",
"I 	c #D4D4D4",
"J 	c #D0D0D0",
"K 	c #D1D0D1",
"L 	c #D0D0D1",
"M 	c #627B4A",
"N 	c #71AC52",
"O 	c #8BC765",
"P 	c #98CF71",
"Q 	c #9FD478",
"R 	c #A5D67D",
"S 	c #A4D67D",
"T 	c #9ED377",
"U 	c #97CE70",
"V 	c #73AB54",
"W 	c #627B4C",
"X 	c #D0D1D0",
"Y 	c #D1D1D1",
"Z 	c #CECDCD",
"` 	c #CDCDCD",
" .	c #688450",
"..	c #81B85D",
"+.	c #97D06F",
"@.	c #A3D97B",
"#.	c #ABDC81",
"$.	c #B3DF88",
"%.	c #B2DE85",
"&.	c #A1D779",
"*.	c #95D16F",
"=.	c #698551",
"-.	c #CBCACA",
";.	c #CACACA",
">.	c #8E9F81",
",.	c #80AC5F",
"'.	c #9ED476",
").	c #B0DF83",
"!.	c #BEE393",
"~.	c #C7E79E",
"{.	c #C8E89F",
"].	c #BDE493",
"^.	c #ADDE83",
"/.	c #9ED474",
"(.	c #7EAD5D",
"_.	c #8E9F80",
":.	c #CACBCB",
"<.	c #CBCBCA",
"[.	c #C8C7C7",
"}.	c #C7C8C7",
"|.	c #C7C7C7",
"1.	c #B7BCB2",
"2.	c #779A58",
"3.	c #A6D27B",
"4.	c #BCDF8D",
"5.	c #CBE9A1",
"6.	c #D6EEB2",
"7.	c #B9E08D",
"8.	c #A5D17A",
"9.	c #759856",
"0.	c #B5BBB0",
"a.	c #C7C8C8",
"b.	c #C4C4C4",
"c.	c #C4C5C4",
"d.	c #96A687",
"e.	c #89A966",
"f.	c #B9D98E",
"g.	c #CCE5A4",
"h.	c #D8EDB4",
"i.	c #CDE6A5",
"j.	c #B8D88D",
"k.	c #87AB65",
"l.	c #97A587",
"m.	c #C1C1C1",
"n.	c #C1C1C2",
"o.	c #C1C2C1",
"p.	c #9CAA8B",
"q.	c #89A165",
"r.	c #A8BD85",
"s.	c #BFD39E",
"t.	c #BFD29B",
"u.	c #A7BC84",
"v.	c #87A066",
"w.	c #9AA989",
"x.	c #C1C2C0",
"y.	c #BFBEBE",
"z.	c #BEBEBE",
"A.	c #BEBFBE",
"B.	c #B8BDB1",
"C.	c #9CAA89",
"D.	c #829568",
"E.	c #819566",
"F.	c #9BA98A",
"G.	c #B9BDB2",
"H.	c #BBBBBB",
"I.	c #BABBBA",
"J.	c #BBBABB",
"K.	c #B8B8B8",
"L.	c #B8B8B7",
"M.	c #B8B7B8",
"N.	c #B7B8B8",
"O.	c #B7B8B7",
"P.	c #B4B5B4",
"Q.	c #B5B5B4",
"R.	c #B5B5B5",
"S.	c #B5B4B5",
"T.	c #B4B5B5",
". . . . . . . . . . . . . . . . . . ",
"+ + + + + @ + @ + + + + + + + + + # ",
"$ % % % % & % & % & % % % * * & $ & ",
"= - ; ; ; > , ' ) ! ~ { = = - = ] ; ",
"^ / / ( _ : < [ } | 1 < 2 3 / 4 ( / ",
"5 6 5 7 8 9 0 a b c d e f 8 7 7 g 5 ",
"h i i j k l m n o p n m l k q r r s ",
"t u v w x y z A B C D E F G H u v I ",
"J K L M N O P Q R S T U O V W X K Y ",
"Z ` `  ...+.@.#.$.%.#.&.*...=.` Z ` ",
"-.-.;.>.,.'.).!.~.{.].^./.(._.:.<.;.",
"[.}.|.1.2.3.4.5.6.6.5.7.8.9.0.}.a.|.",
"b.b.b.c.d.e.f.g.h.h.i.j.k.l.b.c.b.b.",
"m.m.n.o.o.p.q.r.s.t.u.v.w.x.m.o.m.m.",
"y.z.z.z.A.z.B.C.D.E.F.G.z.z.z.z.z.z.",
"H.H.H.H.H.H.I.J.H.H.H.H.H.H.H.H.H.H.",
"K.K.K.K.K.K.L.K.M.K.K.K.K.L.K.N.K.O.",
"P.Q.R.S.R.R.S.T.Q.T.R.R.R.R.T.R.R.T."};
