/* XPM */
static char * min_xpm[] = {
"18 18 168 2",
"  	c None",
". 	c #E9E9E9",
"+ 	c #E6E6E6",
"@ 	c #E5E6E6",
"# 	c #E6E6E5",
"$ 	c #E3E2E3",
"% 	c #E3E3E3",
"& 	c #E3E3E2",
"* 	c #E2E3E3",
"= 	c #E0E0E0",
"- 	c #DFE0DF",
"; 	c #E0DFE0",
"> 	c #DFE0E0",
", 	c #C8C1B9",
"' 	c #9E8A73",
") 	c #785C36",
"! 	c #785C34",
"~ 	c #9B8A72",
"{ 	c #C8C2B9",
"] 	c #E0E0DF",
"^ 	c #DCDDDC",
"/ 	c #DDDDDD",
"( 	c #DDDCDD",
"_ 	c #D9D8D8",
": 	c #A08D74",
"< 	c #784A19",
"[ 	c #966228",
"} 	c #B57F41",
"| 	c #966229",
"1 	c #9F8C73",
"2 	c #DAD9D8",
"3 	c #DDDDDC",
"4 	c #D9D9DA",
"5 	c #DADAD9",
"6 	c #DAD9DA",
"7 	c #8A4E12",
"8 	c #E2B162",
"9 	c #F7ECAE",
"0 	c #FFF9ED",
"a 	c #FDFBEE",
"b 	c #F9E8B0",
"c 	c #8A4D16",
"d 	c #A08E74",
"e 	c #DADADA",
"f 	c #D6D7D7",
"g 	c #D7D7D7",
"h 	c #C4BDB3",
"i 	c #8A5217",
"j 	c #DA9841",
"k 	c #F4D98A",
"l 	c #F7DD93",
"m 	c #F6D88F",
"n 	c #F5DA8D",
"o 	c #D9993F",
"p 	c #8C5117",
"q 	c #C3BCB3",
"r 	c #D7D7D6",
"s 	c #D6D7D6",
"t 	c #D3D3D4",
"u 	c #D3D3D3",
"v 	c #D4D3D4",
"w 	c #A59172",
"x 	c #B76E21",
"y 	c #E9A447",
"z 	c #F1B964",
"A 	c #F4C573",
"B 	c #F6CC7A",
"C 	c #F5CA7B",
"D 	c #F1BB65",
"E 	c #E6A446",
"F 	c #A49171",
"G 	c #D4D4D4",
"H 	c #D0D0D0",
"I 	c #D1D0D1",
"J 	c #D0D0D1",
"K 	c #93763C",
"L 	c #D18B33",
"M 	c #EFAB46",
"N 	c #F7B857",
"O 	c #F7C264",
"P 	c #F9C66B",
"Q 	c #FCC66C",
"R 	c #F5B957",
"S 	c #D0D1D0",
"T 	c #D1D1D1",
"U 	c #CECDCD",
"V 	c #CDCDCD",
"W 	c #9B7E43",
"X 	c #D59D3E",
"Y 	c #F2BB54",
"Z 	c #F9C764",
"` 	c #FCD06F",
" .	c #FCD576",
"..	c #FDD576",
"+.	c #FAC865",
"@.	c #F2BB57",
"#.	c #D79C3E",
"$.	c #9A7D42",
"%.	c #CBCACA",
"&.	c #CACACA",
"*.	c #AE9C75",
"=.	c #C89947",
"-.	c #F5C561",
";.	c #FAD473",
">.	c #FEDD80",
",.	c #FEE28E",
"'.	c #FFE38F",
").	c #FFDE81",
"!.	c #FCD472",
"~.	c #F6C662",
"{.	c #C99C47",
"].	c #AD9C74",
"^.	c #CACBCB",
"/.	c #CBCBCA",
"(.	c #C8C7C7",
"_.	c #C7C8C7",
":.	c #C7C7C7",
"<.	c #C1BAAE",
"[.	c #B39243",
"}.	c #EFC966",
"|.	c #FCDC77",
"1.	c #FDE38C",
"2.	c #FEEB9E",
"3.	c #FFE58E",
"4.	c #EDCA64",
"5.	c #C0BAAE",
"6.	c #C7C8C8",
"7.	c #C4C4C4",
"8.	c #C4C5C4",
"9.	c #B4A47F",
"0.	c #C1A84E",
"a.	c #F0D773",
"b.	c #F9E48B",
"c.	c #FBEA9A",
"d.	c #B1A37D",
"e.	c #C1C1C1",
"f.	c #C1C1C2",
"g.	c #C1C2C1",
"h.	c #C2C2C1",
"i.	c #B4A67F",
"j.	c #B7A14C",
"k.	c #CFBE64",
"l.	c #E3D477",
"m.	c #E4D57A",
"n.	c #B4A680",
"o.	c #C2C2C0",
"p.	c #BFBEBE",
"q.	c #BEBEBE",
"r.	c #BEBFBE",
"s.	c #C1BBAD",
"t.	c #B4A77C",
"u.	c #A69451",
"v.	c #A79451",
"w.	c #B4A77E",
"x.	c #C1BCAE",
"y.	c #BBBBBB",
"z.	c #BABBBA",
"A.	c #BBBABB",
"B.	c #B8B8B8",
"C.	c #B8B8B7",
"D.	c #B8B7B8",
"E.	c #B7B8B8",
"F.	c #B7B8B7",
"G.	c #B4B5B4",
"H.	c #B5B5B4",
"I.	c #B5B5B5",
"J.	c #B5B4B5",
"K.	c #B4B5B5",
". . . . . . . . . . . . . . . . . . ",
"+ + + + + @ + @ + + + + + + + + + # ",
"$ % % % % & % & % & % % % * * & $ & ",
"= - ; ; ; > , ' ) ! ~ { = = - = ] ; ",
"^ / / ( _ : < [ } } | < 1 2 / 3 ( / ",
"4 5 4 6 : 7 8 9 0 a b 8 c d 6 6 e 4 ",
"f g g h i j k l m m l n o p q r r s ",
"t u v w x y z A B C A D E x F u v G ",
"H I J K L M N O P Q O R M L K S I T ",
"U V V W X Y Z `  ...` +.@.#.$.V U V ",
"%.%.&.*.=.-.;.>.,.'.).!.~.{.].^./.&.",
"(._.:.<.[.}.|.1.2.2.3.|.4.[.5._.6.:.",
"7.7.7.8.9.0.a.b.c.c.b.a.0.d.7.8.7.7.",
"e.e.f.g.h.i.j.k.l.m.k.j.n.o.e.g.e.e.",
"p.q.q.q.r.q.s.t.u.v.w.x.q.q.q.q.q.q.",
"y.y.y.y.y.y.z.A.y.y.y.y.y.y.y.y.y.y.",
"B.B.B.B.B.B.C.B.D.B.B.B.B.C.B.E.B.F.",
"G.H.I.J.I.I.J.K.H.K.I.I.I.I.K.I.I.K."};
