/* XPM */
static char * stick_xpm[] = {
"18 18 128 2",
"  	c #E9E9E9",
". 	c #E9E8E9",
"+ 	c #E9E8E8",
"@ 	c #E9E9E8",
"# 	c #E5E6E6",
"$ 	c #E6E6E5",
"% 	c #E6E6E6",
"& 	c #E6E5E6",
"* 	c #E3E3E3",
"= 	c #E2E3E3",
"- 	c #E3E3E2",
"; 	c #E2E3E2",
"> 	c #E2E2E3",
", 	c #757575",
"' 	c #676767",
") 	c #6C6C6C",
"! 	c #6D6D6D",
"~ 	c #636363",
"{ 	c #E3E2E3",
"] 	c #E0E0E0",
"^ 	c #E0DFE0",
"/ 	c #DFDFE0",
"( 	c #E0E0DF",
"_ 	c #DFE0E0",
": 	c #DFE0DF",
"< 	c #A1A1A1",
"[ 	c #A6A6A6",
"} 	c #A9A9A9",
"| 	c #ACACAC",
"1 	c #999999",
"2 	c #DCDDDC",
"3 	c #DCDDDD",
"4 	c #DDDCDC",
"5 	c #DDDCDD",
"6 	c #DDDDDD",
"7 	c #A3A3A3",
"8 	c #AAAAAA",
"9 	c #ABABAB",
"0 	c #AAAAAC",
"a 	c #DCDCDC",
"b 	c #DADADA",
"c 	c #DADAD9",
"d 	c #D9DAD9",
"e 	c #D9D9D9",
"f 	c #DAD9DA",
"g 	c #7D7D7D",
"h 	c #A4A4A4",
"i 	c #ABA9AA",
"j 	c #979797",
"k 	c #D6D6D6",
"l 	c #D7D7D6",
"m 	c #D6D6D7",
"n 	c #D6D7D7",
"o 	c #D7D7D7",
"p 	c #D7D6D7",
"q 	c #7F7F7F",
"r 	c #9C9C9C",
"s 	c #A7A7A7",
"t 	c #A5A5A5",
"u 	c #D3D3D3",
"v 	c #D3D4D4",
"w 	c #D4D4D3",
"x 	c #D3D4D3",
"y 	c #D4D4D4",
"z 	c #8A8A8A",
"A 	c #9D9D9D",
"B 	c #D3D3D4",
"C 	c #9E9E9E",
"D 	c #919191",
"E 	c #D4D3D3",
"F 	c #D0D0D0",
"G 	c #D0D0D1",
"H 	c #D0D1D0",
"I 	c #D0D1D1",
"J 	c #D1D0D0",
"K 	c #C2C2C2",
"L 	c #939393",
"M 	c #9F9F9F",
"N 	c #949494",
"O 	c #CDCDCE",
"P 	c #CDCDCD",
"Q 	c #747474",
"R 	c #CECDCE",
"S 	c #CECDCD",
"T 	c #7E7E7E",
"U 	c #6B6B6B",
"V 	c #CDCECD",
"W 	c #CECECD",
"X 	c #CACACA",
"Y 	c #888888",
"Z 	c #7A7A7A",
"` 	c #CACBCA",
" .	c #777777",
"..	c #CBCACA",
"+.	c #CACACB",
"@.	c #C7C7C7",
"#.	c #797979",
"$.	c #9A9A9A",
"%.	c #C8C7C7",
"&.	c #C8C8C7",
"*.	c #C7C8C8",
"=.	c #C7C8C7",
"-.	c #C4C5C4",
";.	c #A0A0A0",
">.	c #9B9B9B",
",.	c #C4C4C4",
"'.	c #C5C4C4",
").	c #C4C4C5",
"!.	c #C1C1C1",
"~.	c #C1C1C2",
"{.	c #BEBEBE",
"].	c #A2A2A2",
"^.	c #7C7C7C",
"/.	c #BBBBBB",
"(.	c #878787",
"_.	c #929292",
":.	c #909090",
"<.	c #848484",
"[.	c #707070",
"}.	c #BBBBBA",
"|.	c #BBBABB",
"1.	c #B8B8B8",
"2.	c #B8B7B8",
"3.	c #B5B4B4",
"4.	c #B5B5B5",
"5.	c #B5B5B4",
"6.	c #B5B4B5",
"7.	c #B4B5B5",
"  .           +     .   @   @       ",
"# # $ # $ % % # % % % % % & % % % % ",
"* = - ; - > = * - , ' ) ) ) ! ~ ; { ",
"] ] ^ / ] ( _ : ] ] < [ } | } 1 ( / ",
"2 3 2 3 3 4 5 2 5 6 3 7 8 9 0 1 a 5 ",
"b c d b e b f c f c g h } } i j d d ",
"k l m n o l k p p q r s [ < t j k n ",
"u v w x u x x y y z h < A B C D E x ",
"F F G F F H I J J K L M G H I N H G ",
"O P Q R P S T U 8 R O P P P P V W S ",
"X X Y Z `  .N C  ...X +.X ..+.X X X ",
"@.@.N 1 #.$.7 C 1 %.&.*.@.@.=.@.@.@.",
"-.-.N h 7 t ;.>.,.,.'.).,.,.,.'.,.-.",
"!.!.N [ h 7 A !.!.~.!.!.!.~.!.!.!.!.",
"{.{.N t ].t M ^.{.{.{.{.{.{.{.{.{.{.",
"/./.(._.:.:.:.<.[././././././.}.|./.",
"1.1.1.1.1.2.1.1.2.1.1.1.1.1.1.1.2.1.",
"3.4.4.4.4.4.5.6.4.4.4.4.4.4.4.4.5.7."};
