/* XPM */
static char * stuck_xpm[] = {
"18 18 130 2",
"  	c None",
". 	c #E9E9E9",
"+ 	c #E9E8E9",
"@ 	c #E9E8E8",
"# 	c #E9E9E8",
"$ 	c #E5E6E6",
"% 	c #E6E6E5",
"& 	c #E6E6E6",
"* 	c #E6E5E6",
"= 	c #E3E3E3",
"- 	c #E2E3E3",
"; 	c #E3E3E2",
"> 	c #E2E3E2",
", 	c #E2E2E3",
"' 	c #696969",
") 	c #535353",
"! 	c #595959",
"~ 	c #5A5A5A",
"{ 	c #5B5B5B",
"] 	c #555555",
"^ 	c #E3E2E3",
"/ 	c #E0E0E0",
"( 	c #E0DFE0",
"_ 	c #DFDFE0",
": 	c #E0E0DF",
"< 	c #DFE0E0",
"[ 	c #DFE0DF",
"} 	c #DADADA",
"| 	c #868686",
"1 	c #858585",
"2 	c #888888",
"3 	c #8A8A8A",
"4 	c #818181",
"5 	c #DCDDDC",
"6 	c #DCDDDD",
"7 	c #DDDCDC",
"8 	c #DDDCDD",
"9 	c #DDDDDD",
"0 	c #CDCDCD",
"a 	c #838383",
"b 	c #898989",
"c 	c #89898A",
"d 	c #DCDCDC",
"e 	c #DADAD9",
"f 	c #D9DAD9",
"g 	c #D9D9D9",
"h 	c #DAD9DA",
"i 	c #CACAC9",
"j 	c #656565",
"k 	c #848484",
"l 	c #898889",
"m 	c #D6D6D6",
"n 	c #D7D7D6",
"o 	c #D6D6D7",
"p 	c #D6D7D7",
"q 	c #D7D7D7",
"r 	c #D7D6D7",
"s 	c #686868",
"t 	c #7D7D7D",
"u 	c #D3D3D3",
"v 	c #D3D4D4",
"w 	c #D4D4D3",
"x 	c #D3D4D3",
"y 	c #D4D4D4",
"z 	c #CECECE",
"A 	c #6F6F6F",
"B 	c #8D8D8D",
"C 	c #D2D2D3",
"D 	c #7F7F7F",
"E 	c #D4D3D3",
"F 	c #D0D0D0",
"G 	c #D0D0D1",
"H 	c #D0D1D0",
"I 	c #D0D1D1",
"J 	c #CFCECE",
"K 	c #BDBCBC",
"L 	c #9C9C9C",
"M 	c #7B7B7B",
"N 	c #CACACB",
"O 	c #C2C3C3",
"P 	c #CDCDCE",
"Q 	c #666666",
"R 	c #C8C7C8",
"S 	c #C8C7C7",
"T 	c #565656",
"U 	c #C3C3C3",
"V 	c #CDCECD",
"W 	c #CECECD",
"X 	c #CECDCD",
"Y 	c #CACACA",
"Z 	c #777777",
"` 	c #626262",
" .	c #B5B6B5",
"..	c #616161",
"+.	c #606060",
"@.	c #CBCACA",
"#.	c #C7C7C7",
"$.	c #828282",
"%.	c #7C7C7C",
"&.	c #C8C8C7",
"*.	c #C7C8C8",
"=.	c #C7C8C7",
"-.	c #C4C5C4",
";.	c #B5B5B5",
">.	c #C4C4C4",
",.	c #C5C4C4",
"'.	c #C4C4C5",
").	c #C1C1C1",
"!.	c #7E7E7E",
"~.	c #B0B0B0",
"{.	c #C1C1C2",
"].	c #BEBEBE",
"^.	c #BDBDBD",
"/.	c #808080",
"(.	c #BBBBBB",
"_.	c #B3B3B3",
":.	c #747474",
"<.	c #7A7A7A",
"[.	c #797979",
"}.	c #6A6A6A",
"|.	c #BABABA",
"1.	c #BBBBBA",
"2.	c #BBBABB",
"3.	c #B8B8B8",
"4.	c #B8B7B8",
"5.	c #B7B6B7",
"6.	c #B5B4B4",
"7.	c #B5B5B4",
"8.	c #B5B4B5",
"9.	c #B4B5B5",
". + . . . . . @ . . + . # . # . . . ",
"$ $ % $ % & & $ & & & & & * & & & & ",
"= - ; > ; , - = ; ' ) ! ~ ~ { ] > ^ ",
"/ / ( _ / : < [ / } | 1 2 3 2 4 : _ ",
"5 6 5 6 6 7 8 5 8 9 0 a b b c 1 d 8 ",
"} e f } g } h e h i j k 2 2 l k f f ",
"m n o p q n m r r s t | | | 1 k m p ",
"u v w x u x x y z A k 4 B C 1 D E x ",
"F F G F F H I J K L M 3 N H O a H G ",
"P 0 Q R 0 S ' T b U P 0 0 0 0 V W X ",
"Y Y Z `  ...Z D +.@.Y N Y @.N Y Y Y ",
"#.#.$.M ..%.a D M S &.*.#.#.=.#.#.#.",
"-.-.$.k a 1 4 t ;.>.,.'.>.>.>.,.>.-.",
").).$.1 k a !.~.).{.).).).{.).).).).",
"].^.%.1 $.1 /.j ;.].].].].].].].].].",
"(._.:.M <.<.[.}.{ |.(.(.(.(.(.1.2.(.",
"3.3.3.3.3.4.3.3.5.3.3.3.3.3.3.3.4.3.",
"6.;.;.;.;.;.7.8.;.;.;.;.;.;.;.;.7.9."};
