/* XPM */
static char * czer_xpm[] = {
"22 22 78 1",
" 	c #F9F9F9",
".	c #EFEFEF",
"+	c #E8E8E8",
"@	c #E6E6E6",
"#	c #B9BAB9",
"$	c #757474",
"%	c #3C3D3C",
"&	c #131212",
"*	c #8C8A8A",
"=	c #343333",
"-	c #533D3E",
";	c #7B7777",
">	c #9C9191",
",	c #E4E4E4",
"'	c #898989",
")	c #211516",
"!	c #695556",
"~	c #AA9B9B",
"{	c #D8CDCC",
"]	c #DFDFDF",
"^	c #E6E0E0",
"/	c #898A8A",
"(	c #E3E3E3",
"_	c #B6B6B6",
":	c #3D3233",
"<	c #9F6A6D",
"[	c #C29B9B",
"}	c #DDB2B4",
"|	c #B8B8B8",
"1	c #807F7D",
"2	c #4A1E21",
"3	c #843937",
"4	c #A53F37",
"5	c #CE554D",
"6	c #C3645E",
"7	c #E0E0E0",
"8	c #702627",
"9	c #A12726",
"0	c #B42724",
"a	c #BD3730",
"b	c #C7473F",
"c	c #491214",
"d	c #93262C",
"e	c #DD645B",
"f	c #C23930",
"g	c #DDDDDD",
"h	c #5A1316",
"i	c #EC776E",
"j	c #DBDBDB",
"k	c #653F40",
"l	c #A9322A",
"m	c #F7867F",
"n	c #D9D9D9",
"o	c #8D7777",
"p	c #F69990",
"q	c #F9A49A",
"r	c #D7D7D7",
"s	c #BBBABA",
"t	c #F8B0A6",
"u	c #91302B",
"v	c #D17269",
"w	c #D3D3D3",
"x	c #9B9792",
"y	c #86554F",
"z	c #AA6159",
"A	c #CA877E",
"B	c #E1A299",
"C	c #D1D1D1",
"D	c #C6C5C5",
"E	c #938786",
"F	c #C8C8C8",
"G	c #CFCFCF",
"H	c #E9E9E9",
"I	c #E7E7E7",
"J	c #CCCCCC",
"K	c #CDCDCD",
"L	c #CACACA",
"M	c #8C8C8C",
"                      ",
"......................",
"++++++++++++++++++++++",
"@@@@@@@@@@@@@@@@@@@@@@",
"@@@@@@@#$%&&%$#@@@@@@@",
"@@@@@@*=-;>>;-=*@@@@@@",
",,,,,')!~{]^{~!)/,,,,,",
"((((_:-<[}}}}[<-:|((((",
"((((12345666654321(((7",
"777]-890abbbba098-7777",
"]]]]cd0ab5ee5bf0dc]]]]",
"ggggh9b5eiiiie5b9hgggg",
"jjjjkl5eimmmmie5lkgjjj",
"nnnno9eimpqqpmie9onnnn",
"rrrrs35mpqttqpm53srrrr",
"rrrrg>uvpttttpvu>grrrr",
"wwwww7xyzABBAzy>7wwwww",
"CCCCCC]DEykyyEF7CCCCCC",
"GGGGGGGr(HI,,,nGGGGGGG",
"JJJJJJJJKCwwCKJJJJJJJJ",
"LLLLLLLLLLLLLLLLLLLLLL",
"MMMMMMMMMMMMMMMMMMMMMM"};
