/* XPM */
static char * pom_xpm[] = {
"22 22 77 1",
" 	c #F9F9F9",
".	c #EFEFEF",
"+	c #E8E8E8",
"@	c #E6E6E6",
"#	c #B8B8B8",
"$	c #757474",
"%	c #4A3335",
"&	c #211516",
"*	c #8C8A8A",
"=	c #653F40",
"-	c #8D7777",
";	c #9C9191",
">	c #E4E4E4",
",	c #8B8888",
"'	c #4A1E21",
")	c #86554F",
"!	c #C29B9B",
"~	c #D8CDCC",
"{	c #E6DEDE",
"]	c #E3E3E3",
"^	c #B6B6B6",
"/	c #843937",
"(	c #B87A6C",
"_	c #D9B29C",
":	c #E9D0B6",
"<	c #807F7D",
"[	c #642119",
"}	c #AD5B39",
"|	c #C58E2D",
"1	c #DFA447",
"2	c #702627",
"3	c #E0E0E0",
"4	c #DFDFDF",
"5	c #91302B",
"6	c #C97B28",
"7	c #D78916",
"8	c #E59416",
"9	c #E89D24",
"0	c #894D36",
"a	c #B5672C",
"b	c #F4AB31",
"c	c #F8B841",
"d	c #DDDDDD",
"e	c #7B2E0F",
"f	c #F8C854",
"g	c #DBDBDB",
"h	c #FCD764",
"i	c #D9D9D9",
"j	c #938278",
"k	c #C17D12",
"l	c #F8E878",
"m	c #D7D7D7",
"n	c #B9BAB9",
"o	c #987029",
"p	c #FEF883",
"q	c #BCBAB9",
"r	c #9B9792",
"s	c #CEB948",
"t	c #FDFD92",
"u	c #D3D3D3",
"v	c #8B7D43",
"w	c #B1AB45",
"x	c #CFCC66",
"y	c #D1D1D1",
"z	c #DEE1DE",
"A	c #C6C5C5",
"B	c #938786",
"C	c #8B8950",
"D	c #858235",
"E	c #949284",
"F	c #C8C8C8",
"G	c #CFCFCF",
"H	c #E7E7E7",
"I	c #CCCCCC",
"J	c #CDCDCD",
"K	c #CACACA",
"L	c #8C8C8C",
"                      ",
"......................",
"++++++++++++++++++++++",
"@@@@@@@@@@@@@@@@@@@@@@",
"@@@@@@@#$%&&%$#@@@@@@@",
"@@@@@@*%=-;;-=%*@@@@@@",
">>>>>,')!~{{~!)'*>>>>>",
"]]]]^%/(_::::_(/%^]]]]",
"]]]]<[}|111111|}2<]]]3",
"3334=567899998760=3333",
"4444[a789bccbb87a[4444",
"dddde69bcffffcb96edddd",
"gggg06bcfhhhhfcb60dggg",
"iiiijkcfhllllhfckjiiii",
"mmmmno1hlpppplh1oqmmmm",
"mmmmdroslpttplforgmmmm",
"uuuuu3rvwxllxwvr3uuuuu",
"yyyyyyzABCDDCEF3yyyyyy",
"GGGGGGGm]H]>>]iGGGGGGG",
"IIIIIIIIJyuuyJIIIIIIII",
"KKKKKKKKKKKKKKKKKKKKKK",
"LLLLLLLLLLLLLLLLLLLLLL"};
