/* XPM */
static char * szar_xpm[] = {
"22 22 59 1",
" 	g None",
".	g #F9F9F9",
"+	g #EFEFEF",
"@	g #E8E8E8",
"#	g #E6E6E6",
"$	g #B8B8B8",
"%	g #747474",
"&	g #3D3D3D",
"*	g #121212",
"=	g #8A8A8A",
"-	g #333333",
";	g #454545",
">	g #929292",
",	g #E4E4E4",
"'	g #898989",
")	g #1F1F1F",
"!	g #595959",
"~	g #A9A9A9",
"{	g #CDCDCD",
"]	g #E0E0E0",
"^	g #E3E3E3",
"/	g #B6B6B6",
"(	g #7F7F7F",
"_	g #C9C9C9",
":	g #CECECE",
"<	g #2D2D2D",
"[	g #5C5C5C",
"}	g #787878",
"|	g #919191",
"1	g #999999",
"2	g #E2E2E2",
"3	g #484848",
"4	g #6C6C6C",
"5	g #797979",
"6	g #868686",
"7	g #8E8E8E",
"8	g #DFDFDF",
"9	g #2C2C2C",
"0	g #9C9C9C",
"a	g #A5A5A5",
"b	g #DDDDDD",
"c	g #BBBBBB",
"d	g #AFAFAF",
"e	g #DBDBDB",
"f	g #5A5A5A",
"g	g #D9D9D9",
"h	g #D7D7D7",
"i	g #969696",
"j	g #D6D6D6",
"k	g #D3D3D3",
"l	g #B9B9B9",
"m	g #CFCFCF",
"n	g #D1D1D1",
"o	g #C5C5C5",
"p	g #909090",
"q	g #C8C8C8",
"r	g #CCCCCC",
"s	g #CACACA",
"t	g #8C8C8C",
"......................",
"++++++++++++++++++++++",
"@@@@@@@@@@@@@@@@@@@@@@",
"######################",
"#######$%&**&%$#######",
"######=-;%>>%;-=######",
",,,,,')!~{]]{~!)',,,,,",
"^^^^/-;(~_::_~(;-/^^^^",
"]^^^(<[}|1111|}[<(2222",
"]]]];345677776543;]]]]",
"88889[5670aa0765[98888",
"bbbb9470a/cc/d0759bbbb",
"eeeef50dc____cd05feeee",
"gggh(4ac_heeh_ca5(gggg",
"hhhh$f0_h,,,,e_0f$hhhh",
"hhhhei4dh,,,,hc4iejjjj",
"kkkkk8i51lmml15i]kkkkk",
"nnnnnnbop5}}5pq]nnnnnn",
"mmmmmmmh]#^,,^gmmmmmmm",
"rrrrrrrr{nkkn{rrrrrrrr",
"ssssssssssssssssssssss",
"tttttttttttttttttttttt"};
