/* XPM */
static char * ziel_xpm[] = {
"22 22 70 1",
" 	c #F9F9F9",
".	c #EFEFEF",
"+	c #E8E8E8",
"@	c #E6E6E6",
"#	c #B8B8B8",
"$	c #757474",
"%	c #3C3D3C",
"&	c #131212",
"*	c #898A8A",
"=	c #343333",
"-	c #454643",
";	c #919291",
">	c #E4E4E4",
",	c #898989",
"'	c #211E21",
")	c #585A58",
"!	c #9DB19C",
"~	c #CBCFCC",
"{	c #DDE1E0",
"]	c #DEE1DE",
"^	c #CDCDCD",
"/	c #E3E3E3",
"(	c #B6B6B6",
"_	c #6D8C6C",
":	c #BDD4B3",
"<	c #C3D8B8",
"[	c #E0E0E0",
"}	c #807F7D",
"|	c #233520",
"1	c #3D7431",
"2	c #638E3A",
"3	c #77AD46",
"4	c #86B14D",
"5	c #E2E2E2",
"6	c #305A2D",
"7	c #4E8828",
"8	c #5B991E",
"9	c #69A81B",
"0	c #73AE2A",
"a	c #DFDFDF",
"b	c #1D3913",
"c	c #80BC3A",
"d	c #8BC446",
"e	c #DDDDDD",
"f	c #9BD556",
"g	c #A0DA5B",
"h	c #93D04B",
"i	c #DBDBDB",
"j	c #4B6937",
"k	c #AFE869",
"l	c #D9D9D9",
"m	c #D7D7D7",
"n	c #BEF57A",
"o	c #C2FA7D",
"p	c #D2FD8D",
"q	c #959892",
"r	c #9ACB56",
"s	c #D6D6D6",
"t	c #D3D3D3",
"u	c #6D874B",
"v	c #ABCE6B",
"w	c #C4E384",
"x	c #D1D1D1",
"y	c #C6C5C5",
"z	c #8D9485",
"A	c #C8C8C8",
"B	c #CFCFCF",
"C	c #CCCCCC",
"D	c #CACACA",
"E	c #8C8C8C",
"                      ",
"......................",
"++++++++++++++++++++++",
"@@@@@@@@@@@@@@@@@@@@@@",
"@@@@@@@#$%&&%$#@@@@@@@",
"@@@@@@*=-$;;$-=*@@@@@@",
">>>>>,')!~{]^!)',>>>>>",
"////(=-_!:<<:!_-=(////",
"[///}|1234444321|}5555",
"[[[[-678900009876-[[[[",
"aaaab1890cddc0981baaaa",
"eeeeb70cdfggfhc08beeee",
"iiiij8chgkkkkghc8jiiii",
"lllm}7dgknoonkgd8}llll",
"mmmm#jcknppppokcj#mmmm",
"mmmmiq7rnppppng7qissss",
"tttttaqu4vwwv4uq[ttttt",
"xxxxxxeyzu22uzA[xxxxxx",
"BBBBBBBm[@/>>/lBBBBBBB",
"CCCCCCCC^xttx^CCCCCCCC",
"DDDDDDDDDDDDDDDDDDDDDD",
"EEEEEEEEEEEEEEEEEEEEEE"};
