/* XPM */
static char *closefcs[] = {
/* columns rows colors chars-per-pixel */
"22 22 26 1",
"  c #3C3C3B3B3737",
". c #3E3E3D3D3939",
"X c #414140403C3C",
"o c #434342423E3E",
"O c #464645454040",
"+ c #484847474343",
"@ c #4B4B4A4A4545",
"# c #4D4D4C4C4747",
"$ c #50504E4E4A4A",
"% c #525251514C4C",
"& c #545453534F4F",
"* c #585857575252",
"= c #5A5A5A5A5555",
"- c #4F4F9393DEDE",
"; c #549B96D3DFDC",
": c #59E89A14E0DA",
"> c #5F359D55E1D9",
", c #6482A095E2D7",
"< c #69CFA3D6E3D6",
"1 c #6F1CA717E4D4",
"2 c #7469AA57E5D3",
"3 c #79B6AD98E6D1",
"4 c #7F03B0D9E7CF",
"5 c #8450B419E8CE",
"6 c #899DB75AE9CC",
"7 c #8D26B985EA76",
/* pixels */
"======================",
"**********************",
"&&&&&&&&&&&&&&&&&&&&&&",
"%%%%%%%%%%%%%%%%%%%%%%",
"$$$$$$$$$$$$$$$$$$$$$$",
"######################",
"@@@@@@@@@@@@@@@@@@@@@@",
"++++++++++++++++++++++",
"OOOOOOOOOOOOOOOOOOOOOO",
"ooooo77ooooooooooooooo",
"XXXX6666XXXXXXXXXXXXXX",
"....5555..............",
"    4444              ",
" 33  33  33           ",
"2222    2222          ",
"1111    1111          ",
"<<<<    <<<<          ",
" ,,  ,,  ,,           ",
"    >>>>              ",
"    ::::              ",
"    ;;;;              ",
"     --               "
};
