/* XPM */
static char *maxfcs[] = {
/* columns rows colors chars-per-pixel */
"22 22 22 1",
"  c #3C3C3B3B3737",
". c #3E3E3D3D3939",
"X c #414140403C3C",
"o c #434342423E3E",
"O c #464645454040",
"+ c #484847474343",
"@ c #4B4B4A4A4545",
"# c #4D4D4C4C4747",
"$ c #50504E4E4A4A",
"% c #525251514C4C",
"& c #545453534F4F",
"* c #585857575252",
"= c #5A5A5A5A5555",
"- c #EFD5BD3C2CF9",
"; c #EC5EAEEE369C",
": c #EA0FA5643D09",
"> c #EB37AA2939D3",
", c #ED86B3B33366",
"< c #EEADB8773030",
"1 c #F0FCC20129C3",
"2 c #E8E8A0A04040",
"3 c ivory",
/* pixels */
"======================",
"**********************",
"&&&&&&&&&&&&&&&&&&&&&&",
"%%%%%%%%%%%%%%%%%%%%%%",
"$$$$$$$$$$$$$$$$$$$$$$",
"######################",
"@@@@@@@@@@@@@@@@@@@@@@",
"++++++++++++++++++++++",
"OOOOOOOOOOOOOOOOOOOOOO",
"oooooooooooooooooooooo",
"XXXXX            XXXXX",
"..... 3333333333 .....",
"      3   11   3      ",
"      3  ----  3      ",
"      3 <<<<<< 3      ",
"      3,,,,,,,,3      ",
"      3;;;;;;;;3      ",
"      3 >>>>>> 3      ",
"      3  ::::  3      ",
"      3   22   3      ",
"      3333333333      ",
"                      "
};
