/* XPM */
static char * close_xpm[] = {
"24 26 20 1",
" 	c None",
".	c #D6D6D6",
"+	c #2E3436",
"@	c #5C6162",
"#	c #5F6465",
"$	c #505557",
"%	c #515657",
"&	c #53585A",
"*	c #4F5456",
"=	c #4C5152",
"-	c #525758",
";	c #484D4F",
">	c #474C4E",
",	c #4C5153",
"'	c #4E5355",
")	c #4D5254",
"!	c #54595B",
"~	c #585D5E",
"{	c #555A5C",
"]	c #DADADA",
"........................",
"........................",
"........................",
"........................",
"........................",
"........................",
"........................",
"........................",
"........................",
"........+@....#+........",
"........$+%..&+*........",
".........=+%-+;.........",
"..........=++>..........",
"..........-++,..........",
".........'+**+).........",
"........!+~..*+&........",
"........+{....!+........",
"........................",
"........................",
"........................",
"........................",
"........................",
"........................",
".]...............]]]]].]",
"........................",
"........................"};
