/* XPM */
static char * max_pressed_xpm[] = {
"24 26 12 1",
" 	c None",
".	c #D6D6D6",
"+	c #8DBAE8",
"@	c #3A9BFD",
"#	c #3399FF",
"$	c #8EBBE8",
"%	c #3B9CFD",
"&	c #92C9FF",
"*	c #FFFFFF",
"=	c #A0CFFF",
"-	c #99CCFF",
";	c #8FBCE8",
"........................",
"........................",
"........................",
"..+@################@$..",
"..@##################%..",
"..####################..",
"..####################..",
"..####################..",
"..####################..",
"..########&*****######..",
"..#########&****######..",
"..######=#####**######..",
"..######*=####**######..",
"..######**####&*######..",
"..######**#####-######..",
"..######****=#########..",
"..######*****=########..",
"..####################..",
"..####################..",
"..####################..",
"..####################..",
"..@##################%..",
"..$%################%;..",
"........................",
"........................",
"........................"};
