/* XPM */
static char * shade_xpm[] = {
"24 26 10 1",
" 	c None",
".	c #D6D6D6",
"+	c #2E3436",
"@	c #525758",
"#	c #4C5153",
"$	c #4E5355",
"%	c #4F5456",
"&	c #4D5254",
"*	c #54595B",
"=	c #53585A",
"........................",
"........................",
"........................",
"........................",
"........................",
"........................",
"........................",
"........................",
"........................",
"........++++++++........",
"........++++++++........",
"........................",
"...........++...........",
"..........@++#..........",
".........$+%%+&.........",
"........*+%..%+=........",
"........+*....*+........",
"........................",
"........................",
"........................",
"........................",
"........................",
"........................",
"........................",
"........................",
"........................"};
