/* XPM */
static char * stuck_pressed_xpm[] = {
"24 26 2 1",
" 	c #D6D6D6",
".	c #A9A9A9",
"                        ",
"                        ",
"                        ",
"                        ",
"                        ",
"                        ",
"                        ",
"                        ",
"                        ",
"        ........        ",
"        ........        ",
"        ........        ",
"        ........        ",
"        ........        ",
"        ........        ",
"        ........        ",
"        ........        ",
"                        ",
"                        ",
"                        ",
"                        ",
"                        ",
"                        ",
"                        ",
"                        ",
"                        "};
