/* XPM */
static char * unshade_xpm[] = {
"24 26 11 1",
" 	c None",
".	c #D6D6D6",
"+	c #2E3436",
"@	c #5C6162",
"#	c #505557",
"$	c #515657",
"%	c #53585A",
"&	c #4C5152",
"*	c #525758",
"=	c #484D4F",
"-	c #474C4E",
"........................",
"........................",
"........................",
"........................",
"........................",
"........................",
"........................",
"........................",
"........................",
"........++++++++........",
"........++++++++........",
"........................",
"........+@....@+........",
"........#+$..%+#........",
".........&+$*+=.........",
"..........&++-..........",
"...........++...........",
"........................",
"........................",
"........................",
"........................",
"........................",
"........................",
"........................",
"........................",
"........................"};
