/* XPM */
static char * close_pressed_xpm[] = {
"20 20 100 2",
"  	c None",
". 	c #262626",
"+ 	c #252525",
"@ 	c #252424",
"# 	c #232423",
"$ 	c #232323",
"% 	c #241010",
"& 	c #220707",
"* 	c #180101",
"= 	c #1C0101",
"- 	c #280808",
"; 	c #261111",
"> 	c #222322",
", 	c #201C1B",
"' 	c #200707",
") 	c #1F0101",
"! 	c #420202",
"~ 	c #530202",
"{ 	c #580202",
"] 	c #560202",
"^ 	c #3B0202",
"/ 	c #2D0808",
"( 	c #211C1B",
"_ 	c #222222",
": 	c #1F0707",
"< 	c #280101",
"[ 	c #510202",
"} 	c #680202",
"| 	c #790303",
"1 	c #800303",
"2 	c #7C0303",
"3 	c #6E0202",
"4 	c #570202",
"5 	c #300909",
"6 	c #212121",
"7 	c #231010",
"8 	c #170101",
"9 	c #4C0202",
"0 	c #6C0202",
"a 	c #880303",
"b 	c #9E0303",
"c 	c #A20303",
"d 	c #8F0303",
"e 	c #740303",
"f 	c #4B0202",
"g 	c #281011",
"h 	c #202121",
"i 	c #1E0707",
"j 	c #2F0101",
"k 	c #5E0202",
"l 	c #820303",
"m 	c #8B0303",
"n 	c #670202",
"o 	c #320808",
"p 	c #201F20",
"q 	c #0E0101",
"r 	c #660202",
"s 	c #8E0303",
"t 	c #980303",
"u 	c #700202",
"v 	c #300202",
"w 	c #1F1F1F",
"x 	c #990303",
"y 	c #710202",
"z 	c #2D0101",
"A 	c #830303",
"B 	c #8C0303",
"C 	c #1E1F1F",
"D 	c #4D0202",
"E 	c #6D0202",
"F 	c #8A0303",
"G 	c #9F0303",
"H 	c #910303",
"I 	c #750303",
"J 	c #4A0202",
"K 	c #271111",
"L 	c #1E1E1E",
"M 	c #1F0708",
"N 	c #260101",
"O 	c #520202",
"P 	c #6B0202",
"Q 	c #7A0303",
"R 	c #7E0303",
"S 	c #6F0202",
"T 	c #300808",
"U 	c #1D1D1E",
"V 	c #1D1718",
"W 	c #3E0202",
"X 	c #550202",
"Y 	c #5A0202",
"Z 	c #1D1C1D",
"` 	c #210F10",
" .	c #230707",
"..	c #1B0101",
"+.	c #290808",
"@.	c #230F10",
"#.	c #1C1C1C",
"$.	c #1B1B1C",
"%.	c #1B1A1B",
"&.	c #1A1A1A",
". . . . . . . . . . . . . . . . . . . . ",
"+ + + + + + + + + + + + + + + + + + + + ",
"@ @ @ @ @ @ @ @ @ @ @ @ @ @ @ @ @ @ @ @ ",
"# # # # # # # # # # # # # # # # # # # # ",
"$ $ $ $ $ $ $ % & * = - ; $ $ $ $ $ $ $ ",
"> > > > > , ' ) ! ~ { ] ^ / ( > > > > > ",
"_ _ _ _ _ : < [ } | 1 2 3 4 5 _ _ _ _ _ ",
"6 6 6 6 7 8 9 0 a b c c d e f g 6 6 6 6 ",
"h h h h i j k l c c c c c m n o h h h h ",
"p p p p q ^ r s c c c c c t u v p p p p ",
"w w w w q ^ r s c c c c c x y v w w w w ",
"w w w w i z k A c c c c c B n o w w w w ",
"C C C C 7 8 D E F G c c H I J K C C C C ",
"L L L L L M N O P Q l R S ~ T L L L L L ",
"U U U U U V M ) W X Y X ^ / V U U U U U ",
"Z Z Z Z Z Z Z `  .* ..+.@.Z Z Z Z Z Z Z ",
"#.#.#.#.#.#.#.#.#.#.#.#.#.#.#.#.#.#.#.#.",
"$.$.$.$.$.$.$.$.$.$.$.$.$.$.$.$.$.$.$.$.",
"%.%.%.%.%.%.%.%.%.%.%.%.%.%.%.%.%.%.%.%.",
"&.&.&.&.&.&.&.&.&.&.&.&.&.&.&.&.&.&.&.&."};
