/* XPM */
static char * close_bg_xpm[] = {
"20 20 41 1",
" 	c None",
".	c #262626",
"+	c #252525",
"@	c #242424",
"#	c #232323",
"$	c #1F1F1F",
"%	c #282828",
"&	c #2A2A2A",
"*	c #2C2C2C",
"=	c #2B2B2B",
"-	c #202020",
";	c #222222",
">	c #1D1D1D",
",	c #3C3C3C",
"'	c #5A5A5A",
")	c #5F5F5F",
"!	c #4D4D4D",
"~	c #2D2D2D",
"{	c #1E1E1E",
"]	c #494949",
"^	c #5E5E5E",
"/	c #2F2F2F",
"(	c #212121",
"_	c #353535",
":	c #545454",
"<	c #4F4F4F",
"[	c #303030",
"}	c #595959",
"|	c #383838",
"1	c #585858",
"2	c #343434",
"3	c #525252",
"4	c #444444",
"5	c #2E2E2E",
"6	c #1A1A1A",
"7	c #3A3A3A",
"8	c #5D5D5D",
"9	c #4B4B4B",
"0	c #1C1C1C",
"a	c #272727",
"b	c #1B1B1B",
"....................",
"++++++++++++++++++++",
"@@@@@@@@@@@@@@@@@@@@",
"####################",
"#######$%&*=-#######",
";;;;;>+,')))!~{;;;;;",
";;;;;@]))))))^/;;;;;",
"(((({_)))))))):-((((",
"----@<)))))))))[----",
"$$$$$})))))))))|$$$$",
"$$$$$1)))))))))|$$$$",
"$$$$#!)))))))))[$$$$",
"{{{{{2))))))))3-{{{{",
"{{{{{@4))))))}5{{{{{",
">>>>>6+7:))89~6>>>>>",
"0000000>a%=&{0000000",
"00000000000000000000",
"bbbbbbbbbbbbbbbbbbbb",
"66666666666666666666",
"66666666666666666666"};
