/* XPM */
static char * iconify_xpm[] = {
"20 20 69 1",
" 	c None",
".	c #262525",
"+	c #252424",
"@	c #242323",
"#	c #232323",
"$	c #28210B",
"%	c #483A0C",
"&	c #44370C",
"*	c #42350D",
"=	c #3E330C",
"-	c #41350D",
";	c #262212",
">	c #232222",
",	c #272112",
"'	c #BD940A",
")	c #DFAE0B",
"!	c #886A09",
"~	c #21201A",
"{	c #222121",
"]	c #212020",
"^	c #47380A",
"/	c #DAAA0B",
"(	c #342A0C",
"_	c #212121",
":	c #221F16",
"<	c #A17E09",
"[	c #6E5609",
"}	c #1F1E1C",
"|	c #202020",
"1	c #392E0A",
"2	c #DDAD0B",
"3	c #D0A20A",
"4	c #2D260E",
"5	c #201F1F",
"6	c #1E1D18",
"7	c #7F6408",
"8	c #564409",
"9	c #1E1D1D",
"0	c #1F1F1F",
"a	c #2F270C",
"b	c #D5A60B",
"c	c #C0960A",
"d	c #272211",
"e	c #1E1E1E",
"f	c #1B1B1B",
"g	c #644F08",
"h	c #463809",
"i	c #1D1D1D",
"j	c #28220E",
"k	c #C5990A",
"l	c #A98409",
"m	c #211D12",
"n	c #1D1C1C",
"o	c #1C1B1B",
"p	c #4D3D08",
"q	c #3A2E09",
"r	c #1C1C1C",
"s	c #201D11",
"t	c #AB860A",
"u	c #8C6D09",
"v	c #1D1C16",
"w	c #3A2F09",
"x	c #32290A",
"y	c #1B1A1A",
"z	c #1D1B14",
"A	c #1A1817",
"B	c #1A1A1A",
"C	c #191919",
"D	c #181818",
"....................",
"....................",
"++++++++++++++++++++",
"@@@@@@@@@@@@@@@@@@@@",
"###$%%%%&*****=-;###",
">>>,'))))))))))!~>>>",
"{{{]^)))))))))/({{{{",
"____:<))))))))[}____",
"|||||12))))))34|||||",
"5555567))))))8955555",
"000000ab))))cd000000",
"eeeeeefg))))hieeeeee",
"9999999jk))lm9999999",
"nnnnnnnop))qnnnnnnnn",
"rrrrrrrrstuvrrrrrrrr",
"fffffffffwxfffffffff",
"yyyyyyyyyzAyyyyyyyyy",
"BBBBBBBBBBBBBBBBBBBB",
"CCCCCCCCCCCCCCCCCCCC",
"DDDDDDDDDDDDDDDDDDDD"};
