/* XPM */
static char * iconify_pressed_xpm[] = {
"20 20 139 2",
"  	c None",
". 	c #262525",
"+ 	c #252424",
"@ 	c #242323",
"# 	c #1B1A1A",
"$ 	c #171614",
"% 	c #1D1C1A",
"& 	c #211F1E",
"* 	c #1D1B18",
"= 	c #1C1A17",
"- 	c #1C1A16",
"; 	c #1A1814",
"> 	c #191714",
", 	c #161511",
"' 	c #12100C",
") 	c #12110F",
"! 	c #212020",
"~ 	c #232323",
"{ 	c #1C1607",
"] 	c #1D1603",
"^ 	c #221903",
"/ 	c #271C03",
"( 	c #2A1E03",
"_ 	c #2B1E03",
": 	c #2A1D03",
"< 	c #241A03",
"[ 	c #1E1603",
"} 	c #1C1503",
"| 	c #161409",
"1 	c #232222",
"2 	c #211C0F",
"3 	c #563D02",
"4 	c #765202",
"5 	c #865C02",
"6 	c #946402",
"7 	c #9E6B02",
"8 	c #A56E02",
"9 	c #A67002",
"0 	c #A16D02",
"a 	c #976602",
"b 	c #8A5E02",
"c 	c #7B5502",
"d 	c #412D02",
"e 	c #0F0E08",
"f 	c #222121",
"g 	c #1D1B1B",
"h 	c #231902",
"i 	c #815902",
"j 	c #926302",
"k 	c #A36D02",
"l 	c #B07502",
"m 	c #B97A02",
"n 	c #B97B02",
"o 	c #B37702",
"p 	c #966602",
"q 	c #835902",
"r 	c #1B1303",
"s 	c #191715",
"t 	c #212121",
"u 	c #202020",
"v 	c #141008",
"w 	c #634302",
"x 	c #9B6902",
"y 	c #AE7402",
"z 	c #BE7E02",
"A 	c #CA8502",
"B 	c #C38102",
"C 	c #B27702",
"D 	c #A06B02",
"E 	c #452F02",
"F 	c #16140F",
"G 	c #1A1916",
"H 	c #231802",
"I 	c #9F6B02",
"J 	c #B37802",
"K 	c #C88402",
"L 	c #9A6702",
"M 	c #1D1503",
"N 	c #1D1D1B",
"O 	c #201F1F",
"P 	c #1F1E1E",
"Q 	c #141109",
"R 	c #5A3D02",
"S 	c #B27602",
"T 	c #C58202",
"U 	c #C98502",
"V 	c #B77A02",
"W 	c #3F2B02",
"X 	c #16130D",
"Y 	c #1F1F1F",
"Z 	c #1D1D1C",
"` 	c #211703",
" .	c #A26D02",
"..	c #C48202",
"+.	c #C68202",
"@.	c #BD7D02",
"#.	c #976402",
"$.	c #1B1404",
"%.	c #181713",
"&.	c #1E1E1E",
"*.	c #15140F",
"=.	c #463002",
"-.	c #A97102",
";.	c #B17602",
">.	c #B37602",
",.	c #AC7202",
"'.	c #322202",
").	c #121008",
"!.	c #1C1C1B",
"~.	c #1E1D1D",
"{.	c #191203",
"].	c #865A02",
"^.	c #9E6A02",
"/.	c #744F02",
"(.	c #151004",
"_.	c #15120E",
":.	c #1D1C1C",
"<.	c #13110D",
"[.	c #2E2002",
"}.	c #8B5F02",
"|.	c #100E08",
"1.	c #191816",
"2.	c #1C1C1C",
"3.	c #191918",
"4.	c #110E05",
"5.	c #5A3F02",
"6.	c #4A3302",
"7.	c #0F0C06",
"8.	c #161614",
"9.	c #1B1B1B",
"0.	c #171716",
"a.	c #1E1703",
"b.	c #161002",
"c.	c #100F0D",
"d.	c #1D1B14",
"e.	c #1A1817",
"f.	c #1A1A1A",
"g.	c #191919",
"h.	c #181818",
". . . . . . . . . . . . . . . . . . . . ",
". . . . . . . . . . . . . . . . . . . . ",
"+ + + + + + + + + + + + + + + + + + + + ",
"@ @ @ # $ $ % & * = - ; > , ' ) ! @ @ @ ",
"~ ~ ~ { ] ^ / ( _ _ _ : / < [ } | ~ ~ ~ ",
"1 1 1 2 3 4 5 6 7 8 9 0 a b c d e 1 1 1 ",
"f f f g h i j k l m n o 9 p q r s f f f ",
"t t t u v w x y z A A B C D E F u t t t ",
"u u u u G H I J K A A A m L M N u u u u ",
"O O O O P Q R S T A A U V W X O O O O O ",
"Y Y Y Y Y Z `  .n ..+.@.#.$.%.Y Y Y Y Y ",
"&.&.&.&.&.&.*.=.-.;.>.,.'.).!.&.&.&.&.&.",
"~.~.~.~.~.~.s {.].^.7 /.(._.~.~.~.~.~.~.",
":.:.:.:.:.:.:.<.[.b }.H |.1.:.:.:.:.:.:.",
"2.2.2.2.2.2.2.3.4.5.6.7.8.2.2.2.2.2.2.2.",
"9.9.9.9.9.9.9.9.0.a.b.c.9.9.9.9.9.9.9.9.",
"# # # # # # # # # d.e.# # # # # # # # # ",
"f.f.f.f.f.f.f.f.f.f.f.f.f.f.f.f.f.f.f.f.",
"g.g.g.g.g.g.g.g.g.g.g.g.g.g.g.g.g.g.g.g.",
"h.h.h.h.h.h.h.h.h.h.h.h.h.h.h.h.h.h.h.h."};
