/* XPM */
static char * iconify_bg_xpm[] = {
"20 20 35 1",
" 	c None",
".	c #252525",
"+	c #242424",
"@	c #232323",
"#	c #191919",
"$	c #2A2A2A",
"%	c #282828",
"&	c #272727",
"*	c #1C1C1C",
"=	c #222222",
"-	c #636363",
";	c #757575",
">	c #484848",
",	c #1D1D1D",
"'	c #212121",
")	c #202020",
"!	c #727272",
"~	c #555555",
"{	c #3B3B3B",
"]	c #747474",
"^	c #6D6D6D",
"/	c #1F1F1F",
"(	c #1B1B1B",
"_	c #434343",
":	c #2F2F2F",
"<	c #707070",
"[	c #656565",
"}	c #1E1E1E",
"|	c #363636",
"1	c #676767",
"2	c #595959",
"3	c #181818",
"4	c #5A5A5A",
"5	c #4A4A4A",
"6	c #1A1A1A",
"....................",
"....................",
"++++++++++++++++++++",
"@@@@@@@@@@@@@@@@@@@@",
"@@@#$$$$%&&&&&.&*@@@",
"===*-;;;;;;;;;;>,===",
"''')%;;;;;;;;;!)''''",
"''''*~;;;;;;;;{,''''",
")))))'];;;;;;^,)))))",
"/////(_;;;;;;:,/////",
"//////,<;;;;[*//////",
"}}}}}}(|;;;;&,}}}}}}",
",,,,,,,(1;;2#,,,,,,,",
"*******($;;'********",
"********345#********",
"((((((((('}(((((((((",
"66666666633666666666",
"66666666666666666666",
"####################",
"33333333333333333333"};
