/* XPM */
static char * maximize_pressed_xpm[] = {
"20 20 127 2",
"  	c None",
". 	c #262525",
"+ 	c #252424",
"@ 	c #242323",
"# 	c #212021",
"$ 	c #24211C",
"% 	c #232323",
"& 	c #202121",
"* 	c #1A1818",
"= 	c #15152F",
"- 	c #232222",
"; 	c #0F0E14",
"> 	c #18183E",
", 	c #21246D",
"' 	c #211E17",
") 	c #222121",
"! 	c #1C1B1C",
"~ 	c #110F15",
"{ 	c #393A78",
"] 	c #3A3C79",
"^ 	c #1D1B29",
"/ 	c #212020",
"( 	c #212121",
"_ 	c #111013",
": 	c #1E2074",
"< 	c #40438A",
"[ 	c #40438B",
"} 	c #323381",
"| 	c #211E18",
"1 	c #202020",
"2 	c #191922",
"3 	c #111139",
"4 	c #454796",
"5 	c #474A9C",
"6 	c #484A9D",
"7 	c #464898",
"8 	c #20204C",
"9 	c #1D1D1E",
"0 	c #201F1F",
"a 	c #1F1E20",
"b 	c #0E0E20",
"c 	c #2F328F",
"d 	c #4B4DA5",
"e 	c #4D50AE",
"f 	c #4E51AE",
"g 	c #4C4EA8",
"h 	c #44469F",
"i 	c #13132E",
"j 	c #1C1C22",
"k 	c #1F1F1F",
"l 	c #11121E",
"m 	c #121348",
"n 	c #494BA1",
"o 	c #4F52B1",
"p 	c #5255B9",
"q 	c #5053B6",
"r 	c #4B4EA6",
"s 	c #1C1F65",
"t 	c #111125",
"u 	c #1E1E1E",
"v 	c #1A1A1C",
"w 	c #080920",
"x 	c #3B3E91",
"y 	c #4B4DA6",
"z 	c #5154B7",
"A 	c #4D50AA",
"B 	c #444698",
"C 	c #111235",
"D 	c #1B1B20",
"E 	c #1E1D1D",
"F 	c #1D1C1C",
"G 	c #0B0B14",
"H 	c #141650",
"I 	c #434691",
"J 	c #4A4CA3",
"K 	c #5053B3",
"L 	c #4B4EA8",
"M 	c #454897",
"N 	c #1F2170",
"O 	c #18171C",
"P 	c #121217",
"Q 	c #08091D",
"R 	c #383A7A",
"S 	c #46499A",
"T 	c #4B4EA7",
"U 	c #4F51B0",
"V 	c #4D50AB",
"W 	c #484B9E",
"X 	c #434590",
"Y 	c #3D3E7F",
"Z 	c #151538",
"` 	c #191920",
" .	c #1C1C1C",
"..	c #1B1B1B",
"+.	c #060610",
"@.	c #15174F",
"#.	c #383A72",
"$.	c #3D3F80",
"%.	c #43458D",
"&.	c #484B9F",
"*.	c #494BA0",
"=.	c #47499B",
"-.	c #3F4085",
";.	c #393B77",
">.	c #26297C",
",.	c #15151E",
"'.	c #14151C",
").	c #070818",
"!.	c #0D0D2B",
"~.	c #0E1033",
"{.	c #101139",
"].	c #121339",
"^.	c #191934",
"/.	c #1D1B31",
"(.	c #201C2D",
"_.	c #1E1C2A",
":.	c #1E1B23",
"<.	c #16141F",
"[.	c #111020",
"}.	c #0E0D1F",
"|.	c #1D1914",
"1.	c #1B1A1A",
"2.	c #1A191B",
"3.	c #16151D",
"4.	c #1A1A1A",
"5.	c #191919",
"6.	c #181818",
". . . . . . . . . . . . . . . . . . . . ",
". . . . . . . . . . . . . . . . . . . . ",
"+ + + + + + + + + + + + + + + + + + + + ",
"@ @ @ @ @ @ @ @ @ # $ @ @ @ @ @ @ @ @ @ ",
"% % % % % % % % & * = % % % % % % % % % ",
"- - - - - - - - ; > , ' - - - - - - - - ",
") ) ) ) ) ) ) ! ~ { ] ^ / ) ) ) ) ) ) ) ",
"( ( ( ( ( ( ( _ : < [ } | ( ( ( ( ( ( ( ",
"1 1 1 1 1 1 2 3 4 5 6 7 8 9 1 1 1 1 1 1 ",
"0 0 0 0 0 a b c d e f g h i j 0 0 0 0 0 ",
"k k k k k l m n o p p q r s t k k k k k ",
"u u u u v w x y z p p p A B C D u u u u ",
"E E E F G H I J K p p z L M N O E E E E ",
"F F F P Q R < S T U o V W X Y Z ` F F F ",
" . ...+.@.#.$.%.7 &.*.=.I -.;.>.,. . . .",
"....'.).!.~.{.].^./.(._.:.<.[.}.|.......",
"1.1.2.3.3.O 2.1.1.1.1.1.1.1.1.1.1.1.1.1.",
"4.4.4.4.4.4.4.4.4.4.4.4.4.4.4.4.4.4.4.4.",
"5.5.5.5.5.5.5.5.5.5.5.5.5.5.5.5.5.5.5.5.",
"6.6.6.6.6.6.6.6.6.6.6.6.6.6.6.6.6.6.6.6."};
