/* XPM */
static char * maximize_bg_xpm[] = {
"20 20 60 1",
" 	c None",
".	c #262525",
"+	c #252424",
"@	c #242323",
"#	c #1F1F1F",
"$	c #1B1B1A",
"%	c #232323",
"&	c #202020",
"*	c #1B1B1B",
"=	c #212121",
"-	c #232222",
";	c #222121",
">	c #161616",
",	c #494949",
"'	c #646464",
")	c #181717",
"!	c #1C1C1C",
"~	c #828282",
"{	c #838383",
"]	c #242424",
"^	c #191919",
"/	c #1E1D1D",
"(	c #606060",
"_	c #717171",
":	c #171717",
"<	c #19191C",
"[	c #2A2A2A",
"}	c #333333",
"|	c #201F1F",
"1	c #1C1B1D",
"2	c #6E6E6E",
"3	c #7B7B7B",
"4	c #181818",
"5	c #363636",
"6	c #404040",
"7	c #151515",
"8	c #1E1E1E",
"9	c #1A1A1A",
"0	c #818181",
"a	c #1C1B1B",
"b	c #131313",
"c	c #444444",
"d	c #505050",
"e	c #1D1C1C",
"f	c #171718",
"g	c #161617",
"h	c #141414",
"i	c #575757",
"j	c #626262",
"k	c #141416",
"l	c #161619",
"m	c #2D2D2D",
"n	c #292929",
"o	c #272727",
"p	c #252525",
"q	c #222222",
"r	c #262626",
"s	c #1B1A1A",
"t	c #19181A",
"u	c #151516",
"....................",
"....................",
"++++++++++++++++++++",
"@@@@@@@@@#$@@@@@@@@@",
"%%%%%%%%&*==%%%%%%%%",
"-------;>,');-------",
";;;;;;;*!~{]^/;;;;;;",
"======#>({{_:^&=====",
"&&&&&&<[{{{{}>!&&&&&",
"|||||1>2{{{{3^4|||||",
"####*>5{{{{{{67^8###",
"8888:93{{{{{{0#>^888",
"///abc{{{{{{{{db>///",
"eeef#0{{{{{{{{{=geee",
"!!*hi{{{{{{{{{{jk!!!",
"**l>mmmnop]%%qrob4**",
"sstubbhhhhhhh7::::ss",
"9999^444::::49999999",
"^^^^^^^^^^^^^^^^^^^^",
"44444444444444444444"};
