/* XPM */
static char * stick_pressed_xpm[] = {
"20 20 27 1",
" 	c None",
".	c #262626",
"+	c #252525",
"@	c #252424",
"#	c #232423",
"$	c #232323",
"%	c #222322",
"&	c #222222",
"*	c #212121",
"=	c #050505",
"-	c #1A1A1A",
";	c #191919",
">	c #202121",
",	c #5F5F5F",
"'	c #616161",
")	c #201F20",
"!	c #5B5B5B",
"~	c #5D5D5D",
"{	c #1F1F1F",
"]	c #5A5A5A",
"^	c #1E1F1F",
"/	c #1E1E1E",
"(	c #1D1D1E",
"_	c #1D1C1D",
":	c #1C1C1C",
"<	c #1B1B1C",
"[	c #1B1A1B",
"....................",
"++++++++++++++++++++",
"@@@@@@@@@@@@@@@@@@@@",
"####################",
"$$$$$$$$$$$$$$$$$$$$",
"%%%%%%%%%%%%%%%%%%%%",
"&&&&&&&&&&&&&&&&&&&&",
"*******=-;;-=*******",
">>>>>>>-,,,'->>>>>>>",
")))))))-!~~,;)))))))",
"{{{{{{{-!~~,;{{{{{{{",
"{{{{{{{-]!!,-{{{{{{{",
"^^^^^^^=----=^^^^^^^",
"///^///^///^///^///^",
"((((((((((((((((((((",
"____________________",
"::::::::::::::::::::",
"<<<<<<<<<<<<<<<<<<<<",
"[[[[[[[[[[[[[[[[[[[[",
"--------------------"};
