/* XPM */
static char * stick_xpm[] = {
"20 20 30 1",
" 	c None",
".	c #262626",
"+	c #252525",
"@	c #252424",
"#	c #232423",
"$	c #232323",
"%	c #222322",
"&	c #222222",
"*	c #212121",
"=	c #0A0A09",
"-	c #2C2C2C",
";	c #2B2B2B",
">	c #0A0A0A",
",	c #202121",
"'	c #2D2D2D",
")	c #8E8E8E",
"!	c #919191",
"~	c #201F20",
"{	c #878787",
"]	c #8B8B8B",
"^	c #1F1F1F",
"/	c #868686",
"(	c #1E1F1F",
"_	c #1E1E1E",
":	c #1D1D1E",
"<	c #1D1C1D",
"[	c #1C1C1C",
"}	c #1B1B1C",
"|	c #1B1A1B",
"1	c #1A1A1A",
"....................",
"++++++++++++++++++++",
"@@@@@@@@@@@@@@@@@@@@",
"####################",
"$$$$$$$$$$$$$$$$$$$$",
"%%%%%%%%%%%%%%%%%%%%",
"&&&&&&&&&&&&&&&&&&&&",
"*******=-;;->*******",
",,,,,,,')))!-,,,,,,,",
"~~~~~~~-{]]);~~~~~~~",
"^^^^^^^-{]]);^^^^^^^",
"^^^^^^^'/{{)-^^^^^^^",
"(((((((>'--'=(((((((",
"___(___(___(___(___(",
"::::::::::::::::::::",
"<<<<<<<<<<<<<<<<<<<<",
"[[[[[[[[[[[[[[[[[[[[",
"}}}}}}}}}}}}}}}}}}}}",
"||||||||||||||||||||",
"11111111111111111111"};
