/* XPM */
static char * stuck_xpm[] = {
"20 20 27 1",
" 	c None",
".	c #262626",
"+	c #252525",
"@	c #252424",
"#	c #232423",
"$	c #232323",
"%	c #000000",
"&	c #222322",
"*	c #313130",
"=	c #5C5C5C",
"-	c #313131",
";	c #222222",
">	c #8B8B8B",
",	c #212121",
"'	c #7F7F7F",
")	c #202121",
"!	c #7E7F7F",
"~	c #201F20",
"{	c #1F1F1F",
"]	c #1E1F1F",
"^	c #1E1E1E",
"/	c #1D1D1E",
"(	c #1D1C1D",
"_	c #1C1C1C",
":	c #1B1B1C",
"<	c #1B1A1B",
"[	c #1A1A1A",
"....................",
"++++++++++++++++++++",
"@@@@@@@@@@@@@@@@@@@@",
"####################",
"$$$$%%%%%%%%%%%%$$$$",
"&&&&%*========-%&&&&",
";;;;%=>>>>>>>>=%;;;;",
",,,,%='>>>>>>>=%,,,,",
"))))%=!>>>>>>>=%))))",
"~~~~%='>>>>>>>=%)~~~",
"{{{{%='>>>>>>>=%){{{",
"{{{{%='>>>>>>>=%{{{{",
"]]]]%='>>>>>>>=%]]]]",
"^^^]%='''''''>=%^^^^",
"////%-========*%////",
"((((%%%%%%%%%%%%((((",
"____________________",
"::::::::::::::::::::",
"<<<<<<<<<<<<<<<<<<<<",
"[[[[[[[[[[[[[[[[[[[["};
