/* XPM */
static char * browser_xpm[] = {
"48 48 900 2",
"  	c None",
". 	c #FFFFC9",
"+ 	c #FFFFBD",
"@ 	c #FFF6B1",
"# 	c #FFF7B1",
"$ 	c #FFFEB8",
"% 	c #FFFFBE",
"& 	c #FFFFCF",
"* 	c #EDDD9D",
"= 	c #C4976C",
"- 	c #AC7553",
"; 	c #C29C6D",
"> 	c #D0AA79",
", 	c #D3A675",
"' 	c #C0845B",
") 	c #A66346",
"! 	c #AE7856",
"~ 	c #D7BF87",
"{ 	c #FCF9B0",
"] 	c #FFFFB5",
"^ 	c #FFFFCB",
"/ 	c #F0E2A3",
"( 	c #B88962",
"_ 	c #893123",
": 	c #710000",
"< 	c #83150E",
"[ 	c #82130F",
"} 	c #5E0000",
"| 	c #641A10",
"1 	c #724B33",
"2 	c #927953",
"3 	c #BC9163",
"4 	c #B96D49",
"5 	c #802114",
"6 	c #6F160F",
"7 	c #A27350",
"8 	c #E6DC97",
"9 	c #FDF8A9",
"0 	c #FFFFBF",
"a 	c #FCFBB7",
"b 	c #B57D57",
"c 	c #7E1911",
"d 	c #620000",
"e 	c #810000",
"f 	c #9B0000",
"g 	c #930604",
"h 	c #BD8261",
"i 	c #D95C47",
"j 	c #9A0000",
"k 	c #780000",
"l 	c #5E0101",
"m 	c #655339",
"n 	c #9ABA7F",
"o 	c #E5E499",
"p 	c #CA8756",
"q 	c #4E0000",
"r 	c #9A6F4B",
"s 	c #EEE899",
"t 	c #FFFAB6",
"u 	c #F4E7A4",
"v 	c #813C28",
"w 	c #6B0F0B",
"x 	c #9C251B",
"y 	c #AD0000",
"z 	c #CA0708",
"A 	c #DE1415",
"B 	c #DC050A",
"C 	c #890506",
"D 	c #B7C094",
"E 	c #FF8C6E",
"F 	c #FE0000",
"G 	c #F20000",
"H 	c #B20000",
"I 	c #570000",
"J 	c #471911",
"K 	c #A2B578",
"L 	c #FBF59D",
"M 	c #A86038",
"N 	c #380000",
"O 	c #551711",
"P 	c #C7B373",
"Q 	c #EDE291",
"R 	c #F4EAA8",
"S 	c #DEBE85",
"T 	c #8B6345",
"U 	c #5A0000",
"V 	c #BF6C51",
"W 	c #C43C2F",
"X 	c #DF040B",
"Y 	c #ED2E2F",
"Z 	c #F43A3C",
"` 	c #FF3C41",
" .	c #FD1824",
"..	c #7F060A",
"+.	c #BDDDAD",
"@.	c #FF9D7D",
"#.	c #FF0F0C",
"$.	c #FF3B2C",
"%.	c #FF4A35",
"&.	c #D61C14",
"*.	c #600A08",
"=.	c #736A45",
"-.	c #DCE28D",
";.	c #CDA660",
">.	c #500000",
",.	c #300000",
"'.	c #A58755",
").	c #E5D886",
"!.	c #F4ECA9",
"~.	c #C69265",
"{.	c #A1885E",
"].	c #5D0000",
"^.	c #C00201",
"/.	c #D19175",
"(.	c #D43430",
"_.	c #FF2B30",
":.	c #FE3B44",
"<.	c #FF565B",
"[.	c #FF837C",
"}.	c #FFC2AA",
"|.	c #F5CEA8",
"1.	c #EBDFBB",
"2.	c #FFFFF2",
"3.	c #FCF5C4",
"4.	c #D6E0AA",
"5.	c #D2F6B8",
"6.	c #E7F6B2",
"7.	c #EEE49F",
"8.	c #B6AF77",
"9.	c #D2D088",
"0.	c #FFFF9F",
"a.	c #D7BC66",
"b.	c #5C1406",
"c.	c #1D0000",
"d.	c #957446",
"e.	c #DDCE7B",
"f.	c #FFFFB4",
"g.	c #AB6A49",
"h.	c #BBA16E",
"i.	c #724F38",
"j.	c #AB0000",
"k.	c #F4372B",
"l.	c #DBB18D",
"m.	c #E4131D",
"n.	c #FF5B5C",
"o.	c #FFBFA9",
"p.	c #FFFFD6",
"q.	c #F5FAC8",
"r.	c #B2CA9D",
"s.	c #889D7A",
"t.	c #584B3B",
"u.	c #7B725E",
"v.	c #FFFFED",
"w.	c #88644E",
"x.	c #420000",
"y.	c #54140F",
"z.	c #581F15",
"A.	c #6A432E",
"B.	c #61583A",
"C.	c #58643F",
"D.	c #ACB668",
"E.	c #D3B75E",
"F.	c #601506",
"G.	c #957646",
"H.	c #D2C16E",
"I.	c #AE7B54",
"J.	c #B17954",
"K.	c #A0A778",
"L.	c #820000",
"M.	c #F90000",
"N.	c #EB5341",
"O.	c #EBD6AC",
"P.	c #F9A990",
"Q.	c #FFFFDB",
"R.	c #C5DCAB",
"S.	c #738264",
"T.	c #50463C",
"U.	c #573739",
"V.	c #7B3C43",
"W.	c #B43D48",
"X.	c #85131A",
"Y.	c #B4C09D",
"Z.	c #FFFFD7",
"`.	c #FC1610",
" +	c #FF0000",
".+	c #F10000",
"++	c #CB0000",
"@+	c #990000",
"#+	c #600000",
"$+	c #3A110A",
"%+	c #A4A457",
"&+	c #C8B155",
"*+	c #662C0E",
"=+	c #3B0000",
"-+	c #A88E4F",
";+	c #D5BD83",
">+	c #883B25",
",+	c #CFD99A",
"'+	c #7B281E",
")+	c #E00000",
"!+	c #FC0000",
"~+	c #FA8368",
"{+	c #FFFFEB",
"]+	c #C0E1B1",
"^+	c #59604B",
"/+	c #4B2528",
"(+	c #7E5058",
"_+	c #CE9EA4",
":+	c #FFC8CA",
"<+	c #FFBEBE",
"[+	c #FFA2A2",
"}+	c #F5565D",
"|+	c #8E3D35",
"1+	c #E5FFEC",
"2+	c #FFBF9F",
"3+	c #FD0000",
"4+	c #9F0000",
"5+	c #442815",
"6+	c #B3B056",
"7+	c #997C35",
"8+	c #310000",
"9+	c #582C14",
"0+	c #BCA556",
"a+	c #F9F3A6",
"b+	c #82452C",
"c+	c #BFA06F",
"d+	c #ACAC79",
"e+	c #FFB691",
"f+	c #FFFFF7",
"g+	c #D9D4A7",
"h+	c #521214",
"i+	c #A3353F",
"j+	c #FFA4A6",
"k+	c #FFD5D4",
"l+	c #F9DFDF",
"m+	c #EFD0D0",
"n+	c #F0B4B4",
"o+	c #F59697",
"p+	c #FF7D7E",
"q+	c #BC1D24",
"r+	c #A49278",
"s+	c #FFFFFF",
"t+	c #FC5541",
"u+	c #F60000",
"v+	c #E80000",
"w+	c #D90000",
"x+	c #DF0000",
"y+	c #770000",
"z+	c #615729",
"A+	c #B6A448",
"B+	c #501C09",
"C+	c #180000",
"D+	c #806130",
"E+	c #BAA24F",
"F+	c #BFA26D",
"G+	c #773C26",
"H+	c #E0F09F",
"I+	c #8B2317",
"J+	c #E60000",
"K+	c #FFF2B9",
"L+	c #97CDA1",
"M+	c #9EA782",
"N+	c #FDDFB2",
"O+	c #E75152",
"P+	c #FF8587",
"Q+	c #FBA1A1",
"R+	c #EFB6B6",
"S+	c #ECC6C6",
"T+	c #EDC2C2",
"U+	c #F1ADAD",
"V+	c #F69291",
"W+	c #FF7474",
"X+	c #FF363C",
"Y+	c #9C2E28",
"Z+	c #E2FFDD",
"`+	c #FFDCB0",
" @	c #F70000",
".@	c #E70000",
"+@	c #D70000",
"@@	c #CA0000",
"#@	c #BA0000",
"$@	c #590C06",
"%@	c #8E8E3D",
"&@	c #986927",
"*@	c #2F0000",
"=@	c #41160B",
"-@	c #A78C41",
";@	c #F3E99A",
">@	c #7D492F",
",@	c #A18050",
"'@	c #C2B173",
")@	c #A40C06",
"!@	c #FFFFC2",
"~@	c #8EBC90",
"{@	c #4C0000",
"]@	c #C7775E",
"^@	c #FFFFD8",
"/@	c #F35C58",
"(@	c #FF6267",
"_@	c #F78D8D",
":@	c #F3A2A2",
"<@	c #F1AAAA",
"[@	c #F49B9B",
"}@	c #FA8383",
"|@	c #FF6565",
"1@	c #FF4748",
"2@	c #C30000",
"3@	c #AE9878",
"4@	c #FFFFF9",
"5@	c #F86147",
"6@	c #F40000",
"7@	c #E50000",
"8@	c #D50000",
"9@	c #C00000",
"0@	c #7F0000",
"a@	c #5E421C",
"b@	c #A59236",
"c@	c #611A06",
"d@	c #240000",
"e@	c #7A5D28",
"f@	c #D2BD7B",
"g@	c #622716",
"h@	c #C1B26E",
"i@	c #BA8151",
"j@	c #E9D294",
"k@	c #84A979",
"l@	c #750000",
"m@	c #EE755C",
"n@	c #F9FFE8",
"o@	c #EE655A",
"p@	c #FF454C",
"q@	c #FD7475",
"r@	c #F98685",
"s@	c #F78F8F",
"t@	c #F88C8C",
"u@	c #FA8080",
"v@	c #FE6C6D",
"w@	c #FF5353",
"x@	c #FF3636",
"y@	c #FA0000",
"z@	c #A73429",
"A@	c #F0FFE4",
"B@	c #FFCD98",
"C@	c #EC0000",
"D@	c #E30000",
"E@	c #D20000",
"F@	c #C10000",
"G@	c #B00000",
"H@	c #A30000",
"I@	c #5F1207",
"J@	c #88832E",
"K@	c #7C4513",
"L@	c #2D0000",
"M@	c #542E13",
"N@	c #A68B39",
"O@	c #A58253",
"P@	c #5B1E0E",
"Q@	c #D4C073",
"R@	c #F6F69F",
"S@	c #838F61",
"T@	c #760000",
"U@	c #E15D49",
"V@	c #FBFFF3",
"W@	c #EF7562",
"X@	c #FE1E27",
"Y@	c #FF5959",
"Z@	c #FF6666",
"`@	c #FE6D6D",
" #	c #FE6C6C",
".#	c #FF6262",
"+#	c #FF5151",
"@#	c #FF3B3B",
"##	c #FF1B1B",
"$#	c #BD0000",
"%#	c #C6C492",
"&#	c #FFFFDA",
"*#	c #E63829",
"=#	c #DB0000",
"-#	c #CD0000",
";#	c #BC0000",
">#	c #AA0000",
",#	c #A60000",
"'#	c #6D0000",
")#	c #6D581D",
"!#	c #8C681C",
"~#	c #450000",
"{#	c #3D0804",
"]#	c #8F732C",
"^#	c #7F5536",
"/#	c #612E16",
"(#	c #EAE385",
"_#	c #8B955E",
":#	c #670000",
"<#	c #D74031",
"[#	c #F5FFEF",
"}#	c #F49578",
"|#	c #F90005",
"1#	c #FF3839",
"2#	c #FF4545",
"3#	c #FF4B4C",
"4#	c #FF4A4A",
"5#	c #FF4242",
"6#	c #FF2A2C",
"7#	c #FF0306",
"8#	c #BA6C4E",
"9#	c #FFFFE3",
"0#	c #E99163",
"a#	c #D00F0A",
"b#	c #BA0201",
"c#	c #A50000",
"d#	c #7B0000",
"e#	c #64320F",
"f#	c #8A761C",
"g#	c #571201",
"h#	c #7A591F",
"i#	c #D9CA7A",
"j#	c #66301D",
"k#	c #703E1D",
"l#	c #C0C16D",
"m#	c #5F180F",
"n#	c #CE0000",
"o#	c #F00000",
"p#	c #EE0000",
"q#	c #D01711",
"r#	c #ECFFD3",
"s#	c #FBD0A4",
"t#	c #FF080A",
"u#	c #FF1E1E",
"v#	c #FF2323",
"w#	c #FF0C11",
"x#	c #FF211B",
"y#	c #FF7359",
"z#	c #FFBA8E",
"A#	c #FFDFA4",
"B#	c #FAF1AD",
"C#	c #FBFCB1",
"D#	c #EFEB9E",
"E#	c #D2CB83",
"F#	c #C1B76D",
"G#	c #B68F4A",
"H#	c #B47034",
"I#	c #AF5022",
"J#	c #9A1307",
"K#	c #681405",
"L#	c #7B6C15",
"M#	c #622204",
"N#	c #6A4818",
"O#	c #CEBB6E",
"P#	c #552516",
"Q#	c #714C22",
"R#	c #B1AA5B",
"S#	c #9C0A06",
"T#	c #D30000",
"U#	c #D10000",
"V#	c #DBDDA8",
"W#	c #FFFFD0",
"X#	c #F41E18",
"Y#	c #FF120E",
"Z#	c #FF8367",
"`#	c #FFE4B1",
" $	c #F9FFCE",
".$	c #C4F8BF",
"+$	c #8CC695",
"@$	c #70966D",
"#$	c #575038",
"$$	c #C7BA7E",
"%$	c #FFFDA7",
"&$	c #5F4B2F",
"*$	c #2F170C",
"=$	c #40351B",
"-$	c #444A24",
";$	c #4D5725",
">$	c #64541E",
",$	c #744813",
"'$	c #82620F",
")$	c #612A02",
"!$	c #5F360F",
"~$	c #967925",
"{$	c #BDA760",
"]$	c #5E3019",
"^$	c #8E7132",
"/$	c #A9994E",
"($	c #980905",
"_$	c #D00000",
":$	c #CA996E",
"<$	c #FFFFF0",
"[$	c #F35A46",
"}$	c #FF1712",
"|$	c #FFB087",
"1$	c #FFFFD5",
"2$	c #BBF9C2",
"3$	c #6F9976",
"4$	c #523729",
"5$	c #570100",
"6$	c #860000",
"7$	c #830000",
"8$	c #A46C48",
"9$	c #F1FFA8",
"0$	c #A9482A",
"a$	c #8A0000",
"b$	c #7A0000",
"c$	c #410000",
"d$	c #2E0000",
"e$	c #371806",
"f$	c #75590B",
"g$	c #714203",
"h$	c #3E0000",
"i$	c #582B0C",
"j$	c #917521",
"k$	c #B69C57",
"l$	c #623E1C",
"m$	c #766128",
"n$	c #A99548",
"o$	c #900F06",
"p$	c #B40000",
"q$	c #C50000",
"r$	c #DD0000",
"s$	c #DA0000",
"t$	c #B8553A",
"u$	c #FFFFDC",
"v$	c #F79E71",
"w$	c #FF7654",
"x$	c #FFFFD9",
"y$	c #A4E5B0",
"z$	c #534F3B",
"A$	c #540000",
"B$	c #FB0000",
"C$	c #EB0000",
"D$	c #9D2C1B",
"E$	c #C4E58A",
"F$	c #B96D3D",
"G$	c #A80000",
"H$	c #950000",
"I$	c #910000",
"J$	c #660200",
"K$	c #6D4D06",
"L$	c #5D3D02",
"M$	c #2A0000",
"N$	c #5D310A",
"O$	c #8C6F1C",
"P$	c #BEA456",
"Q$	c #4A2C13",
"R$	c #452D10",
"S$	c #AFA249",
"T$	c #8A2411",
"U$	c #A40000",
"V$	c #B70000",
"W$	c #E10000",
"X$	c #A40A06",
"Y$	c #DBDB98",
"Z$	c #C2EEAB",
"`$	c #53513A",
" %	c #E90000",
".%	c #D40000",
"+%	c #990503",
"@%	c #A4A75D",
"#%	c #AF8848",
"$%	c #920000",
"%%	c #900000",
"&%	c #850000",
"*%	c #8C0000",
"=%	c #780300",
"-%	c #704F03",
";%	c #593101",
">%	c #210000",
",%	c #532F09",
"'%	c #8A6C18",
")%	c #B49E4E",
"!%	c #482210",
"~%	c #380D01",
"{%	c #A59B41",
"]%	c #8A371A",
"^%	c #930000",
"/%	c #A90000",
"(%	c #BE0000",
"_%	c #C70000",
":%	c #D74E30",
"<%	c #FAFDA8",
"[%	c #7B4E36",
"}%	c #960000",
"|%	c #907139",
"1%	c #AB974B",
"2%	c #870100",
"3%	c #890000",
"4%	c #840000",
"5%	c #880000",
"6%	c #730700",
"7%	c #715502",
"8%	c #592701",
"9%	c #603C0B",
"0%	c #6D4521",
"a%	c #280000",
"b%	c #8F8130",
"c%	c #8F5925",
"d%	c #9D0000",
"e%	c #D55F35",
"f%	c #C2D583",
"g%	c #727B4E",
"h%	c #E3F5A0",
"i%	c #F09B66",
"j%	c #E20000",
"k%	c #D80000",
"l%	c #CF0000",
"m%	c #C40000",
"n%	c #B50000",
"o%	c #AE0000",
"p%	c #940000",
"q%	c #834C23",
"r%	c #9B9342",
"s%	c #7D0E04",
"t%	c #870000",
"u%	c #730E00",
"v%	c #705802",
"w%	c #4C1A01",
"x%	c #6A460C",
"y%	c #8C692E",
"z%	c #200000",
"A%	c #6C521A",
"B%	c #9A7C2E",
"C%	c #7D0803",
"D%	c #B94722",
"E%	c #A6BA64",
"F%	c #402316",
"G%	c #B0A261",
"H%	c #E9E68F",
"I%	c #BE1E12",
"J%	c #C20000",
"K%	c #B90000",
"L%	c #B30000",
"M%	c #AC0000",
"N%	c #792911",
"O%	c #8E8836",
"P%	c #7A1607",
"Q%	c #732101",
"R%	c #695602",
"S%	c #3B0200",
"T%	c #3D0301",
"U%	c #75550B",
"V%	c #9E8136",
"W%	c #350604",
"X%	c #3C1903",
"Y%	c #9A8A2B",
"Z%	c #7D2D10",
"`%	c #7C0000",
" &	c #A22711",
".&	c #949547",
"+&	c #2E2412",
"@&	c #6C351B",
"#&	c #C6DF7D",
"$&	c #B66338",
"%&	c #A70000",
"&&	c #A20000",
"*&	c #970000",
"=&	c #8D0000",
"-&	c #721809",
";&	c #7F7628",
">&	c #7B1C08",
",&	c #7D0000",
"'&	c #783801",
")&	c #5F4902",
"!&	c #270000",
"~&	c #4E1D03",
"{&	c #7F5F09",
"]&	c #A78C38",
"^&	c #633717",
"/&	c #150000",
"(&	c #796718",
"_&	c #8A5719",
":&	c #8D6C2A",
"<&	c #342E13",
"[&	c #6C0000",
"}&	c #610000",
"|&	c #7F8040",
"1&	c #BEA856",
"2&	c #990A05",
"3&	c #9E0000",
"4&	c #980000",
"5&	c #6E0501",
"6&	c #705E19",
"7&	c #7B1F08",
"8&	c #774E02",
"9&	c #4A2901",
"0&	c #250000",
"a&	c #613A04",
"b&	c #8D6825",
"c&	c #3D2203",
"d&	c #916C16",
"e&	c #835819",
"f&	c #3E2B0E",
"g&	c #5C0000",
"h&	c #8F0000",
"i&	c #50200D",
"j&	c #A3AB4E",
"k&	c #9D4C24",
"l&	c #8B0000",
"m&	c #920A03",
"n&	c #821905",
"o&	c #71560F",
"p&	c #823105",
"q&	c #910D00",
"r&	c #8C0600",
"s&	c #761D01",
"t&	c #665102",
"u&	c #3F0901",
"v&	c #755304",
"w&	c #9E812C",
"x&	c #5C3010",
"y&	c #0A0000",
"z&	c #664C0A",
"A&	c #7B6813",
"B&	c #550701",
"C&	c #5A5321",
"D&	c #A78F3A",
"E&	c #850A04",
"F&	c #931D08",
"G&	c #964311",
"H&	c #814F13",
"I&	c #664D10",
"J&	c #56430B",
"K&	c #6D4B07",
"L&	c #503C03",
"M&	c #453201",
"N&	c #603201",
"O&	c #6E1800",
"P&	c #814502",
"Q&	c #483202",
"R&	c #1A0000",
"S&	c #603502",
"T&	c #7B5A02",
"U&	c #8F6B20",
"V&	c #280002",
"W&	c #331800",
"X&	c #886B08",
"Y&	c #823C07",
"Z&	c #707525",
"`&	c #96501A",
" *	c #800000",
".*	c #962809",
"+*	c #895414",
"@*	c #5A5415",
"#*	c #373C0E",
"$*	c #2B1C06",
"%*	c #2C0400",
"&*	c #583600",
"**	c #421200",
"=*	c #4C2501",
"-*	c #6C5602",
";*	c #280200",
">*	c #440F00",
",*	c #765502",
"'*	c #947722",
")*	c #7A4F13",
"!*	c #1C0000",
"~*	c #2E1E00",
"{*	c #856A05",
"]*	c #772F03",
"^*	c #351805",
"/*	c #746317",
"(*	c #8A2207",
"_*	c #883D0B",
":*	c #545411",
"<*	c #2A2207",
"[*	c #4A0000",
"}*	c #5D2F01",
"|*	c #770C00",
"1*	c #6F0000",
"2*	c #713901",
"3*	c #281F01",
"4*	c #6B4400",
"5*	c #9C7A1B",
"6*	c #4C2907",
"7*	c #000000",
"8*	c #382901",
"9*	c #846903",
"0*	c #772D01",
"a*	c #543906",
"b*	c #8F770E",
"c*	c #3C2906",
"d*	c #630000",
"e*	c #8E0000",
"f*	c #800300",
"g*	c #5C2B01",
"h*	c #6E0600",
"i*	c #720000",
"j*	c #772401",
"k*	c #423301",
"l*	c #110000",
"m*	c #623400",
"n*	c #735400",
"o*	c #836314",
"p*	c #603009",
"q*	c #2D2100",
"r*	c #7F6702",
"s*	c #7E3C01",
"t*	c #740000",
"u*	c #941B00",
"v*	c #4B3200",
"w*	c #2E3401",
"x*	c #682901",
"y*	c #7A0800",
"z*	c #582201",
"A*	c #6D0C00",
"B*	c #4A2D01",
"C*	c #0D0000",
"D*	c #572B00",
"E*	c #785500",
"F*	c #977313",
"G*	c #5D2D06",
"H*	c #080000",
"I*	c #160E00",
"J*	c #675702",
"K*	c #855402",
"L*	c #771400",
"M*	c #830C00",
"N*	c #5C3901",
"O*	c #360900",
"P*	c #350000",
"Q*	c #4C3401",
"R*	c #8B2601",
"S*	c #790000",
"T*	c #6D0A00",
"U*	c #4E1601",
"V*	c #4B1B01",
"W*	c #180600",
"X*	c #512B00",
"Y*	c #775400",
"Z*	c #86650C",
"`*	c #6E3F06",
" =	c #362C01",
".=	c #705902",
"+=	c #843701",
"@=	c #692D01",
"#=	c #2F0F00",
"$=	c #3A0100",
"%=	c #452D01",
"&=	c #7F1801",
"*=	c #700000",
"==	c #6B0000",
"-=	c #640000",
";=	c #530900",
">=	c #3A0600",
",=	c #3B0400",
"'=	c #281000",
")=	c #563400",
"!=	c #785200",
"~=	c #805F07",
"{=	c #7E5505",
"]=	c #4A1E01",
"^=	c #0C0000",
"/=	c #030000",
"(=	c #3E3201",
"_=	c #5D4902",
":=	c #6E2F01",
"<=	c #7C1B01",
"[=	c #6D0300",
"}=	c #650000",
"|=	c #2F0200",
"1=	c #441C01",
"2=	c #690E00",
"3=	c #580000",
"4=	c #360B00",
"5=	c #422300",
"6=	c #604000",
"7=	c #805C03",
"8=	c #754902",
"9=	c #472100",
"0=	c #200900",
"a=	c #140400",
"b=	c #231801",
"c=	c #382401",
"d=	c #471E01",
"e=	c #551501",
"f=	c #530500",
"g=	c #310600",
"h=	c #3C0000",
"i=	c #390200",
"j=	c #421400",
"k=	c #4F2800",
"l=	c #603F00",
"m=	c #6C4A00",
"n=	c #7D5901",
"o=	c #6A4700",
"p=	c #5B3700",
"q=	c #3F2300",
"r=	c #271400",
"s=	c #291900",
"t=	c #321F00",
"u=	c #3E2000",
"v=	c #471D00",
"w=	c #431F00",
"x=	c #512E00",
"y=	c #623E00",
"z=	c #6C4B00",
"A=	c #6F4C00",
"B=	c #764F00",
"C=	c #6F4A00",
"D=	c #624200",
"E=	c #593C00",
"F=	c #624300",
"G=	c #6C4900",
"                                                                                                ",
"                                                                                                ",
"                                                                                                ",
"                                                                                                ",
"                                                                                                ",
"                                          . + @ # $ %                                           ",
"                                  & % * = - ; > , ' ) ! ~ { ]                                   ",
"                              ^ / ( _ : < [ } | 1 2 3 4 5 6 7 8 9                               ",
"                          0 a b c d e f g h i j k l m n o p } q r s                             ",
"                        t u v w x y z A B C D E F G H I J K L M N O P Q                         ",
"                      R S T U V W X Y Z `  ...+.@.#.$.%.&.*.=.-.;.>.,.'.).                      ",
"                    !.~.{.].^./.(._.:.<.[.}.|.1.2.3.4.5.6.7.8.9.0.a.b.c.d.e.                    ",
"                  f.g.h.i.j.k.l.m.n.o.p.q.r.s.t.u.v.w.x.y.z.A.B.C.D.E.F.c.G.H.                  ",
"                ] I.J.K.L.M.N.O.P.Q.R.S.T.U.V.W.X.Y.Z.`. +.+++@+#+$+%+&+*+=+-+                  ",
"                ;+>+,+'+)+!+~+{+]+^+/+(+_+:+<+[+}+|+1+2+ + + +F 3+4+5+6+7+8+9+0+                ",
"              a+b+c+d+@+ +e+f+g+h+i+j+k+l+m+n+o+p+q+r+s+t+ +u+v+w+x+y+z+A+B+C+D+E+              ",
"              F+G+H+I+J+K+L+M+N+O+P+Q+R+S+T+U+V+W+X+Y+Z+`+3+ @.@+@@@#@$@%@&@*@=@-@              ",
"            ;@>@,@'@)@!@~@{@]@^@/@(@_@:@U+<@[@}@|@1@2@3@4@5@6@7@8@2@9@0@a@b@c@d@e@              ",
"            f@g@h@i@j@k@l@3+m@n@o@p@q@r@s@t@u@v@w@x@y@z@A@B@C@D@E@F@G@H@I@J@K@L@M@N@            ",
"            O@P@Q@R@S@T@ + +U@V@W@X@Y@Z@`@ #.#+#@### +$#%#&#*#=#-#;#>#,#'#)#!#~#{#]#            ",
"            ^#/#(#_#:#F  + +<#[#}#|#1#2#3#4#5#6#7# + +D@8#9#0#=#a#b#c#@+d#e#f#g#8+h#            ",
"          i#j#k#l#m#n#o#p# +q#r#s#u+t#u#v#w# + +x#y#z#A#B#C#D#E#F#G#H#I#J#K#L#M#*@N#            ",
"          O#P#Q#R#S#T#w+J+!+U#V#W#X# + + +Y#Z#`# $.$+$@$#$$$%$&$*$=$-$;$>$,$'$)$*@!$~$          ",
"          {$]$^$/$($F@_$=#.+U#:$<$[$F }$|$1$2$3$4$5$'#6$7$8$9$0$a$b$].c$d$e$f$g$h$i$j$          ",
"          k$l$m$n$o$p$q$_$r$s$t$u$v$w$x$y$z$A$a$n#B$ + +C$D$E$F$G$H@f H$I$J$K$L$M$N$O$          ",
"          P$Q$R$S$T$U$V$2@n#W$X$Y$. Z$`$I p$ + +y@ %r$T#.%+%@%#%$%%%&%7$*%=%-%;%>%,%'%          ",
"          )%!%~%{%]%^%/%p$(%_%:%<%+ [%*% +F .@x+s$.%-#q$2@}%|%1%2%3%7$4%5%6%7%8%8+9%            ",
"            0%a%b%c%6$d%c#/%e%f%g%h%i%j%k%T#E@l%++m%$#n%o%p%q%r%s%4%4%&%t%u%v%w%8+x%            ",
"            y%z%A%B%C%%%p%D%E%F%h$G%H%I%F@J%F@(%K%L%M%c#d%I$N%O%P%4%4%&%4%Q%R%S%T%U%            ",
"            V%W%X%Y%Z%`% &.&+&e >#@&#&$&j.G@o%j.%&&&d%*&I$=&-&;&>&4%4%6$,&'&)&!&~&{&            ",
"            ]&^&/&(&_&e :&<&[&G$c#}&|&1&2&3&d%f 4&p%%%a$6$a$5&6&7&t%&%&%l@8&9&0&a&              ",
"              b&z%c&d&e&f&g&*&6$h&L.i&j&k&=&h&=&l&5%&%7$t%m&n&o&p&q&r&7$s&t&a%u&v&              ",
"              w&x&y&z&A&B&*%6$7$L.^%I C&D&E&4%4%7$6$F&G&H&I&J&K&L&M&N&O&P&Q&R&S&T&              ",
"                U&V&W&X&Y&d#7$&%4%6$a$h$Z&`& *6$.*+*@*#*$*%*,.&***N *@=*-*;*>*,*                ",
"                '*)*!*~*{*]*d#7$&%4%h&l@^*/*(*_*:*<*d$[*[&3%6$}*|*h&1*2*3*C+4*                  ",
"                  5*6*7*8*9*0*y+L.&%&%p%g&a*b*c*!&d*I$}%e*=&f*g*h*i*j*k*l*m*n*                  ",
"                    o*p*7*q*r*s*t*`%L.6$u*v*w*x*h&p%5%4%4%4%y*z*} A*B*C*D*E*                    ",
"                      F*G*H*I*J*K*L*i*M*N*O*P*Q*R*&% *0@d#S*T*U*A$V*W*X*Y*                      ",
"                        Z*`*c.7* =.=+=@=#='#3%$=%=&=T@*===-=;=>=,='=)=!=                        ",
"                          ~={=]=^=/=(=_=:=<=[=}=|=1=2=3={@h$*@4=5=6=                            ",
"                              7=8=9=0=a=b=c=d=e=f=L@g=h=i=j=k=l=m=                              ",
"                                  n=o=p=q=r=s=t=u=v=w=x=y=z=A=                                  ",
"                                          B=C=D=E=F=G=                                          ",
"                                                                                                ",
"                                                                                                ",
"                                                                                                ",
"                                                                                                ",
"                                                                                                "};
