/* XPM */
static char * calendar_xpm[] = {
"48 48 367 2",
"  	c None",
". 	c #3184A0",
"+ 	c #3395B3",
"@ 	c #3396B4",
"# 	c #3496B4",
"$ 	c #3596B4",
"% 	c #3496B3",
"& 	c #3396B3",
"* 	c #3295B3",
"= 	c #3285A2",
"- 	c #2F7C9D",
"; 	c #3CB7E5",
"> 	c #3EBAE5",
", 	c #40BDE5",
"' 	c #41BEE6",
") 	c #42BFE6",
"! 	c #42C0E6",
"~ 	c #43C0E6",
"{ 	c #41BFE6",
"] 	c #40BEE6",
"^ 	c #3FBCE5",
"/ 	c #3DB9E5",
"( 	c #3BB6E5",
"_ 	c #2E7FA1",
": 	c #297FAC",
"< 	c #287DC8",
"[ 	c #2677C3",
"} 	c #277AC4",
"| 	c #287CC4",
"1 	c #287CC3",
"2 	c #287DC4",
"3 	c #287EC4",
"4 	c #287CC8",
"5 	c #2C84B3",
"6 	c #1A569A",
"7 	c #1E64BB",
"8 	c #1F68BC",
"9 	c #206BBC",
"0 	c #216CBD",
"a 	c #216DBD",
"b 	c #216CBC",
"c 	c #216CBB",
"d 	c #226DBD",
"e 	c #216EBD",
"f 	c #226EBE",
"g 	c #226FBE",
"h 	c #226EBD",
"i 	c #206CBB",
"j 	c #206ABC",
"k 	c #1E5AA2",
"l 	c #154895",
"m 	c #1B5DB8",
"n 	c #1C61B9",
"o 	c #1C63BA",
"p 	c #1C65BB",
"q 	c #1E64B7",
"r 	c #6A8FB9",
"s 	c #8EA5BF",
"t 	c #2969B3",
"u 	c #1D66BB",
"v 	c #1E67BC",
"w 	c #1E68BC",
"x 	c #1E69BC",
"y 	c #1F6ABD",
"z 	c #206BBE",
"A 	c #1F69BD",
"B 	c #1E67BB",
"C 	c #1D65BA",
"D 	c #4D7DB4",
"E 	c #98ACC1",
"F 	c #3D74B3",
"G 	c #1C65BA",
"H 	c #1B61B9",
"I 	c #1A5DB8",
"J 	c #154B9A",
"K 	c #114192",
"L 	c #1656B5",
"M 	c #1859B7",
"N 	c #185CB8",
"O 	c #195EB9",
"P 	c #2160B2",
"Q 	c #A5ADB6",
"R 	c #B4B4B3",
"S 	c #4975B0",
"T 	c #195FB9",
"U 	c #1A5FBA",
"V 	c #1A5FB9",
"W 	c #1A60BA",
"X 	c #1A61BA",
"Y 	c #1A61BB",
"Z 	c #1A62BB",
"` 	c #1B63BC",
" .	c #1A63BC",
"..	c #1A60B9",
"+.	c #195DB6",
"@.	c #889CB6",
"#.	c #ADADAC",
"$.	c #7591B6",
"%.	c #195DB8",
"&.	c #195CB9",
"*.	c #1756B5",
"=.	c #134598",
"-.	c #0E3B90",
";.	c #134EB3",
">.	c #1452B5",
",.	c #1454B6",
"'.	c #1656B7",
").	c #416AA8",
"!.	c #5977A6",
"~.	c #1B57B1",
"{.	c #1557B8",
"].	c #1657B8",
"^.	c #1658B8",
"/.	c #1659B8",
"(.	c #1659B9",
"_.	c #165AB9",
":.	c #165BB9",
"<.	c #165BBA",
"[.	c #165CBA",
"}.	c #1759B9",
"|.	c #1759B8",
"1.	c #1557B7",
"2.	c #2E61AC",
"3.	c #607CA5",
"4.	c #255CAD",
"5.	c #1556B7",
"6.	c #103F96",
"7.	c #0C378E",
"8.	c #1048B0",
"9.	c #114BB2",
"0.	c #114DB4",
"a.	c #124FB5",
"b.	c #1250B6",
"c.	c #1351B6",
"d.	c #1352B7",
"e.	c #1352B8",
"f.	c #1353B8",
"g.	c #1354B8",
"h.	c #1354B9",
"i.	c #1355B9",
"j.	c #1355BA",
"k.	c #1354BA",
"l.	c #1351B7",
"m.	c #1251B6",
"n.	c #1250B5",
"o.	c #114EB4",
"p.	c #114CB2",
"q.	c #0D3A93",
"r.	c #0B3286",
"s.	c #0F41A7",
"t.	c #0F44AA",
"u.	c #0F46AB",
"v.	c #1047AC",
"w.	c #1048AD",
"x.	c #1049AE",
"y.	c #114AAF",
"z.	c #114BB0",
"A.	c #114CB1",
"B.	c #114DB2",
"C.	c #114DB3",
"D.	c #114EB3",
"E.	c #114FB4",
"F.	c #114BB1",
"G.	c #1149AE",
"H.	c #0C358B",
"I.	c #898F9C",
"J.	c #B0B8C8",
"K.	c #ADB6C6",
"L.	c #ABB4C5",
"M.	c #ACB5C6",
"N.	c #AEB8C9",
"O.	c #AFB9CA",
"P.	c #ADB6C8",
"Q.	c #ADB7C8",
"R.	c #ADB7C9",
"S.	c #ADB8CA",
"T.	c #ADB7CA",
"U.	c #AEB8CB",
"V.	c #AEB9CC",
"W.	c #AFB9CC",
"X.	c #B1BBCE",
"Y.	c #B0BACD",
"Z.	c #AEB8CA",
"`.	c #B0BACC",
" +	c #B0BACB",
".+	c #ACB6C8",
"++	c #ACB6C7",
"@+	c #AFB8C9",
"#+	c #ADB6C7",
"$+	c #ABB4C4",
"%+	c #ACB4C4",
"&+	c #898F9D",
"*+	c #A7A7A7",
"=+	c #CACACA",
"-+	c #D1D1D1",
";+	c #D0D0D0",
">+	c #CCCCCC",
",+	c #D3D3D3",
"'+	c #D4D4D4",
")+	c #D7D7D7",
"!+	c #D5D5D5",
"~+	c #D6D6D6",
"{+	c #DADADA",
"]+	c #D8D8D8",
"^+	c #D2D2D2",
"/+	c #CFCFCF",
"(+	c #CDCDCD",
"_+	c #CBCBCB",
":+	c #B4B4B4",
"<+	c #B2B2B2",
"[+	c #DBDBDB",
"}+	c #D9D9D9",
"|+	c #DDDDDD",
"1+	c #DCDCDC",
"2+	c #DEDEDE",
"3+	c #DFDFDF",
"4+	c #E0E0E0",
"5+	c #E1E1E1",
"6+	c #B6B6B6",
"7+	c #ADADAD",
"8+	c #B5B5B5",
"9+	c #E4E4E4",
"0+	c #E5E5E5",
"a+	c #E6E6E6",
"b+	c #E7E7E7",
"c+	c #E8E8E8",
"d+	c #E9E9E9",
"e+	c #EAEAEA",
"f+	c #BDBDBD",
"g+	c #B7B7B7",
"h+	c #EBEBEB",
"i+	c #ECECEC",
"j+	c #EDEDED",
"k+	c #EEEEEE",
"l+	c #EFEFEF",
"m+	c #BFBFBF",
"n+	c #B9B9B9",
"o+	c #F0F0F0",
"p+	c #F1F1F1",
"q+	c #F2F2F2",
"r+	c #C0C0C0",
"s+	c #BABABA",
"t+	c #F3F3F3",
"u+	c #F4F4F4",
"v+	c #C1C1C1",
"w+	c #F5F5F5",
"x+	c #D2D2D1",
"y+	c #989897",
"z+	c #7F7F7E",
"A+	c #80807F",
"B+	c #909090",
"C+	c #B9B9B8",
"D+	c #CFCFCE",
"E+	c #B8B8B8",
"F+	c #A8A8A8",
"G+	c #9A9A9A",
"H+	c #8C8C8B",
"I+	c #C4C4C4",
"J+	c #707170",
"K+	c #333433",
"L+	c #323332",
"M+	c #333333",
"N+	c #343434",
"O+	c #343534",
"P+	c #353535",
"Q+	c #4C4C4C",
"R+	c #C8C8C8",
"S+	c #F6F6F6",
"T+	c #373737",
"U+	c #353635",
"V+	c #A2A2A2",
"W+	c #60605F",
"X+	c #313130",
"Y+	c #323231",
"Z+	c #434343",
"`+	c #484847",
" @	c #353534",
".@	c #454544",
"+@	c #9A9A99",
"@@	c #363635",
"#@	c #343433",
"$@	c #333332",
"%@	c #323232",
"&@	c #BBBBBB",
"*@	c #303030",
"=@	c #30302F",
"-@	c #313131",
";@	c #929292",
">@	c #E3E3E3",
",@	c #3B3B3B",
"'@	c #858584",
")@	c #9E9E9E",
"!@	c #9D9D9D",
"~@	c #9C9C9C",
"{@	c #A1A1A1",
"]@	c #999999",
"^@	c #404040",
"/@	c #414140",
"(@	c #5A5A5A",
"_@	c #7A7A7A",
":@	c #555555",
"<@	c #A0A0A0",
"[@	c #E4E4E3",
"}@	c #E3E3E2",
"|@	c #8C8C8C",
"1@	c #515150",
"2@	c #9F9F9F",
"3@	c #636363",
"4@	c #7B7B7B",
"5@	c #2F2F2F",
"6@	c #2E2E2E",
"7@	c #BCBCBC",
"8@	c #B3B3B3",
"9@	c #737373",
"0@	c #424242",
"a@	c #2E2E2D",
"b@	c #484848",
"c@	c #2D2D2D",
"d@	c #2C2C2C",
"e@	c #464646",
"f@	c #2B2B2B",
"g@	c #2C2C2B",
"h@	c #2D2D2C",
"i@	c #A9A9A9",
"j@	c #2B2B2A",
"k@	c #C6C6C6",
"l@	c #838383",
"m@	c #A4A4A4",
"n@	c #292929",
"o@	c #9B9B9B",
"p@	c #848484",
"q@	c #454545",
"r@	c #2A2B2A",
"s@	c #282828",
"t@	c #272827",
"u@	c #272727",
"v@	c #262626",
"w@	c #7F7F7F",
"x@	c #545453",
"y@	c #545454",
"z@	c #8F8F8F",
"A@	c #272726",
"B@	c #D7D7D6",
"C@	c #252524",
"D@	c #242424",
"E@	c #989898",
"F@	c #747473",
"G@	c #222222",
"H@	c #E2E2E2",
"I@	c #5C5C5C",
"J@	c #3D3D3C",
"K@	c #262625",
"L@	c #232323",
"M@	c #212121",
"N@	c #393939",
"O@	c #7E7E7E",
"P@	c #868686",
"Q@	c #888888",
"R@	c #979797",
"S@	c #202020",
"T@	c #6D6D6D",
"U@	c #969696",
"V@	c #C7C7C7",
"W@	c #696969",
"X@	c #363636",
"Y@	c #3F3F3F",
"Z@	c #3D3D3D",
"                                                                                                ",
"                                                                                                ",
"      . + @ # # # # # $ $ $ $ $ $ $ $ $ $ $ $ $ $ $ $ $ $ $ $ # # # # # # # # # # % & * =       ",
"    - ; > , ' ) ) ) ) ) ) ) ) ) ) ) ) ) ) ! ~ ! ~ ~ ! ) ) ) ) ) ) ) ) ) { { { { { ] ^ / ( _     ",
"    : < [ } | 1 1 1 | | 1 | | 2 2 2 2 2 3 3 3 3 3 3 3 3 2 2 2 2 1 1 1 1 1 1 1 1 1 | } [ 4 5     ",
"    6 7 8 9 0 a b c b 0 0 0 0 a d e f f f g g g g g g f f f h d a a b b b b i b a 0 j 8 7 k     ",
"    l m n o p q r s t u u u v v w w x x y y z y y y y y A x w w v B u u C D E F C G o H I J     ",
"    K L M N O P Q R S O T U V W X X Y Z Z Z `  . . .`  .Z Z Y X X ..U U +.@.#.$.%.O &.M *.=.    ",
"    -.;.>.,.'.L ).!.~.{.].^./.(.(._.:.<.<.<.<.<.[.<.<.<.<.:._._.(.}.|.^.1.2.3.4.5.5.,.>.;.6.    ",
"    7.8.9.0.a.a.a.b.b.b.c.d.e.f.f.g.h.h.i.i.j.j.j.j.j.j.k.h.h.h.f.e.d.l.m.b.b.n.a.a.o.p.8.q.    ",
"    r.s.t.u.v.w.x.x.x.y.z.z.z.A.B.B.B.C.D.o.o.o.E.E.o.D.D.C.C.B.A.F.F.z.y.G.x.x.w.v.u.t.s.H.    ",
"    I.J.K.L.M.N.O.O.N.P.P.Q.R.R.S.T.T.U.U.U.V.U.U.W.X.Y.X.Y.S.Z.`.`. +Z.P..+++++N.@+#+$+%+&+    ",
"    *+=+=+-+;+>+>+>+;+,+'+)+,+!+!+!+~+{+)+!+~+~+]+~+^+'+^+-+)+'+;+/+/+-+,+^+!+^+(+_+(+/+_+:+    ",
"    <+[+}+]+[+|+|+|+1+1+[+{+|+2+3+2+|+|+|+3+4+4+2+3+5+4+4+3+|+2+3+3+3+|+|+[+}+{+1+1+[+}+]+6+    ",
"    7+!+!+}+}+)+}+}+{+{+{+1+|+{+1+1+1+1+1+|+2+|+3+|+|+2+|+1+3+|+[+1+[+{+[+]+{+{+]+]+~+!+'+<+    ",
"    8+9+0+9+a+b+b+b+b+b+c+c+d+d+d+d+d+d+e+e+e+e+e+e+e+e+d+d+c+c+d+d+c+c+b+b+b+b+b+b+0+0+9+f+    ",
"    g+e+e+h+i+i+i+i+i+i+j+j+j+k+k+k+k+k+k+k+k+k+l+l+k+k+k+k+k+k+k+j+j+j+i+i+i+i+i+i+h+e+e+m+    ",
"    n+k+k+k+l+o+o+o+o+o+o+o+p+p+p+p+q+q+q+q+q+q+q+q+q+q+q+q+p+p+p+p+o+o+o+o+o+o+o+o+k+k+k+r+    ",
"    s+o+o+o+q+q+q+q+q+q+q+q+q+t+t+t+t+u+u+u+u+u+u+u+u+u+u+t+t+t+t+t+q+q+q+q+q+q+q+q+o+o+o+v+    ",
"    s+p+p+p+q+t+q+t+t+t+q+t+t+w+w+w+w+w+u+w+w+u+w+w+u+w+w+u+u+w+w+u+t+t+q+t+t+q+t+t+p+p+p+v+    ",
"    s+p+p+p+t+t+q+t+t+t+t+w+x+y+z+A+B+C+q+w+w+u+w+w+p+5+D+E+F+G+H+I+t+t+q+t+t+q+t+t+p+p+p+v+    ",
"    s+o+o+p+q+q+q+q+q+t+9+J+K+L+M+N+O+P+Q+R+S+u+u+S+G+T+U+P+N+K+L+V+u+q+q+q+q+q+q+q+p+o+o+v+    ",
"    s+p+p+p+t+t+q+t+t+q+W+X+Y+M+Z+`+T+N+ @.@~+w+w+w++@@@ @N+#@$@%@V+u+t+q+t+t+q+t+t+p+p+p+v+    ",
"    s+p+p+p+t+t+q+t+t+&@*@=@-@;@>@d+7+,@#@ @'@S+u+u+=+)@!@~@#@Y+Y+{@t+q+q+t+t+q+t+t+q+p+p+v+    ",
"    s+o+o+p+q+q+q+q+t+]@^@/@(@p+h+h+l+_@M+M+:@S+t+t+p+l+j+t+N+X+*@<@p+p+q+q+q+q+q+q+q+o+o+v+    ",
"    s+p+p+p+t+t+q+q+p+h+[@}@9+d+c+c+e+|@Y+%@1@w+t+q+l+i+e+p+M+=@=@2@o+p+q+t+t+q+t+t+p+p+p+v+    ",
"    s+p+p+p+t+t+q+p+l+i+e+b+a+a+b+b+h+3@X+-@4@t+q+p+l+i+d+o+Y+5@6@)@l+o+q+t+t+q+t+t+p+p+p+v+    ",
"    s+o+o+p+q+q+q+p+l+h+d+b+e+7@8+8@9@X+*@0@)+l+p+p+l+j+e+o+-@6@a@)@k+o+q+q+q+q+q+q+p+o+o+v+    ",
"    s+p+p+p+q+t+q+p+l+i+e+d+p+b@c@6@a@a@Q+=+i+l+p+q+p+l+i+q+5@c@d@!@k+o+q+t+t+q+t+t+p+p+p+v+    ",
"    s+p+p+p+q+t+q+p+o+k+i+i+t+e@f@g@d@h@0@i@i+k+p+t+t+p+k+t+a@f@j@~@k+o+q+t+t+q+t+q+p+p+p+v+    ",
"    s+o+o+p+q+q+q+q+p+o+l+k+p+>+k@7@l@*@f@d@m@o+p+t+t+q+l+t+d@n@n@o@k+o+q+q+q+q+q+q+p+o+o+v+    ",
"    s+p+p+p+q+q+q+t+q+q+p+o+k+j+h+d+d+p@n@n@q@h+q+t+t+q+o+t+r@s@t@G+k+o+q+t+t+q+q+q+p+p+p+v+    ",
"    s+p+p+p+q+q+q+t+t+S+S+w+q+h+d+a+9+&@s@u@%@]+q+t+t+q+o+t+n@v@v@]@j+o+q+t+t+q+q+q+p+p+p+v+    ",
"    s+o+o+p+p+p+q+q+u+w@x@y@z@i+d+a+9+8@A@v@*@B@p+t+t+q+l+t+u@C@D@E@j+o+q+q+q+q+q+p+p+o+o+v+    ",
"    s+p+p+p+q+q+p+q+u+F@G@G@ @{+j+e+H@I@D@C@J@b+p+q+t+q+l+t+K@L@L@y+j+o+q+t+t+q+q+q+p+p+p+v+    ",
"    s+o+o+p+p+p+p+p+q+m+M@M@G@N@O@P@b@L@L@L@Q@l+o+p+q+p+k+q+D@G@G@R@j+o+q+q+q+p+p+p+p+o+o+v+    ",
"    s+p+p+p+q+q+p+o+o+p+G+n@S@M@M@M@G@G@G@T@0+h+l+p+q+p+k+q+L@M@M@U@j+o+q+q+q+p+q+q+p+p+p+v+    ",
"    s+p+p+p+q+q+p+o+k+i+h+V@W@X@c@d@M+:@*+9+a+e+k+p+q+p+k+p+Y@Z@Z@V+j+o+q+q+q+p+q+q+p+p+p+v+    ",
"    s+p+p+p+q+q+p+o+j+d+b+a+e+9+~+!+2+d+H@>@a+e+l+p+q+p+k+e+h+d+e+h+i+l+p+q+q+p+q+q+p+p+p+v+    ",
"    s+o+o+p+p+p+p+o+j+d+a+9+>@9+0+0+9+H@H@9+c+i+o+q+q+p+k+e+0+H@>@b+i+l+p+p+p+p+p+p+p+o+o+v+    ",
"    s+p+p+p+q+q+p+o+k+h+b+0+>@>@9+>@>@>@9+b+e+k+p+q+q+p+l+h+b+0+0+c+i+l+p+q+q+p+q+q+p+p+p+v+    ",
"    s+p+p+p+q+q+p+p+o+j+e+c+a+0+0+0+0+a+c+e+j+o+q+q+q+q+o+j+d+c+c+e+j+o+p+q+q+p+q+q+p+p+p+v+    ",
"    n+o+o+o+p+p+p+p+o+l+j+h+d+c+b+b+c+d+e+j+l+o+p+p+p+o+l+j+h+e+e+i+k+o+p+p+p+p+p+p+o+o+o+v+    ",
"    s+o+p+o+p+p+o+p+o+o+l+k+j+i+h+h+i+j+k+l+o+o+p+p+o+o+o+l+k+j+j+k+l+o+o+p+p+o+p+p+o+p+o+r+    ",
"    !@p+o+o+p+p+o+p+p+p+o+o+l+l+l+l+l+l+o+o+p+o+p+p+o+p+o+o+o+l+l+o+o+p+o+p+p+o+p+p+o+o+p+<@    ",
"      R@n+n+s+s+s+s+s+s+s+s+s+s+s+s+s+s+s+s+s+s+s+s+s+s+s+s+s+s+s+s+s+s+s+s+s+s+s+s+n+n+]@      ",
"                                                                                                ",
"                                                                                                "};
