/* XPM */
static char * file_xpm[] = {
"48 48 463 2",
"  	c None",
". 	c #333333",
"+ 	c #383838",
"@ 	c #373737",
"# 	c #343434",
"$ 	c #2D2D2D",
"% 	c #4F4F4F",
"& 	c #4B4B4B",
"* 	c #494949",
"= 	c #404040",
"- 	c #282828",
"; 	c #454545",
"> 	c #424242",
", 	c #434343",
"' 	c #515151",
") 	c #3C3C3C",
"! 	c #272727",
"~ 	c #444444",
"{ 	c #414141",
"] 	c #4D4D4D",
"^ 	c #252525",
"/ 	c #262626",
"( 	c #474747",
"_ 	c #3F3F3F",
": 	c #212121",
"< 	c #3D3D3D",
"[ 	c #2C2C2C",
"} 	c #242424",
"| 	c #181818",
"1 	c #0A0A0A",
"2 	c #3E3E3E",
"3 	c #464646",
"4 	c #202020",
"5 	c #171717",
"6 	c #101010",
"7 	c #060606",
"8 	c #232323",
"9 	c #3B3B3B",
"0 	c #313131",
"a 	c #2E2E2E",
"b 	c #1A1A1A",
"c 	c #0E0E0E",
"d 	c #0B0B0B",
"e 	c #050505",
"f 	c #3A3A3A",
"g 	c #1C1C1C",
"h 	c #131313",
"i 	c #1F1F1F",
"j 	c #393939",
"k 	c #353535",
"l 	c #0F0F0F",
"m 	c #151515",
"n 	c #2F2F2F",
"o 	c #363636",
"p 	c #323232",
"q 	c #1D1D1D",
"r 	c #303030",
"s 	c #1B1B1B",
"t 	c #2B2B2B",
"u 	c #2A2A2A",
"v 	c #191919",
"w 	c #292929",
"x 	c #3E3F3F",
"y 	c #4B4D4D",
"z 	c #4B4F4F",
"A 	c #484C4C",
"B 	c #454848",
"C 	c #484B4B",
"D 	c #4B4E4E",
"E 	c #414545",
"F 	c #393434",
"G 	c #402222",
"H 	c #531F1F",
"I 	c #612323",
"J 	c #541F1F",
"K 	c #411F1F",
"L 	c #382F2F",
"M 	c #3E4242",
"N 	c #4C4E4E",
"O 	c #4E4E4E",
"P 	c #161616",
"Q 	c #424646",
"R 	c #342F2F",
"S 	c #4F2020",
"T 	c #892F2F",
"U 	c #B94343",
"V 	c #D45151",
"W 	c #DF5757",
"X 	c #DE5757",
"Y 	c #D25151",
"Z 	c #BA4545",
"` 	c #923333",
" .	c #5A2121",
"..	c #372929",
"+.	c #3F4343",
"@.	c #505151",
"#.	c #141414",
"$.	c #222222",
"%.	c #494A4A",
"&.	c #383C3C",
"*.	c #372121",
"=.	c #7E2828",
"-.	c #CE4C4C",
";.	c #F05D5D",
">.	c #F56060",
",.	c #F25E5E",
"'.	c #EE5C5C",
").	c #ED5B5B",
"!.	c #F15E5E",
"~.	c #ED5D5D",
"{.	c #D35050",
"].	c #8E2F2F",
"^.	c #401E1E",
"/.	c #363838",
"(.	c #4A4B4B",
"_.	c #1E1E1E",
":.	c #353939",
"<.	c #381A1A",
"[.	c #922C2C",
"}.	c #E55555",
"|.	c #F05959",
"1.	c #EB5757",
"2.	c #E55454",
"3.	c #DC5252",
"4.	c #DA5252",
"5.	c #D95252",
"6.	c #DD5555",
"7.	c #E45858",
"8.	c #A23737",
"9.	c #411818",
"0.	c #323535",
"a.	c #111111",
"b.	c #363A3A",
"c.	c #2C1C1C",
"d.	c #852323",
"e.	c #E15252",
"f.	c #E55252",
"g.	c #DC4F4F",
"h.	c #9F4343",
"i.	c #A54646",
"j.	c #D64F4F",
"k.	c #D44E4E",
"l.	c #CE4D4D",
"m.	c #CD4D4D",
"n.	c #CD4E4E",
"o.	c #CC4E4E",
"p.	c #D55353",
"q.	c #8E2C2C",
"r.	c #301616",
"s.	c #333636",
"t.	c #303131",
"u.	c #272828",
"v.	c #510D0D",
"w.	c #C94141",
"x.	c #DF4E4E",
"y.	c #D14949",
"z.	c #D24B4B",
"A.	c #5C2525",
"B.	c #412828",
"C.	c #713939",
"D.	c #AD4545",
"E.	c #C44949",
"F.	c #BE4848",
"G.	c #B94747",
"H.	c #B94848",
"I.	c #BA4949",
"J.	c #BB4949",
"K.	c #C24C4C",
"L.	c #BB4848",
"M.	c #571313",
"N.	c #262222",
"O.	c #313333",
"P.	c #2A2E2E",
"Q.	c #291111",
"R.	c #831818",
"S.	c #D44848",
"T.	c #C74444",
"U.	c #C34343",
"V.	c #C24646",
"W.	c #551F1F",
"X.	c #351919",
"Y.	c #462E2E",
"Z.	c #492E2E",
"`.	c #783939",
" +	c #AA4444",
".+	c #BA4747",
"++	c #B14545",
"@+	c #AD4444",
"#+	c #A94242",
"$+	c #AA4242",
"%+	c #B54848",
"&+	c #7E2222",
"*+	c #270B0B",
"=+	c #282B2B",
"-+	c #0D0D0D",
";+	c #232626",
">+	c #390404",
",+	c #971F1F",
"'+	c #C24141",
")+	c #B53D3D",
"!+	c #B13D3D",
"~+	c #B03F3F",
"{+	c #4F1E1E",
"]+	c #290F0F",
"^+	c #432626",
"/+	c #4B3030",
"(+	c #442C2C",
"_+	c #533030",
":+	c #863D3D",
"<+	c #B34545",
"[+	c #B14242",
"}+	c #A63F3F",
"|+	c #A03D3D",
"1+	c #A64141",
"2+	c #892828",
"3+	c #300202",
"4+	c #0C0C0C",
"5+	c #222323",
"6+	c #201E1E",
"7+	c #430000",
"8+	c #8C1A1A",
"9+	c #AC3939",
"0+	c #A43636",
"a+	c #9E3636",
"b+	c #A03838",
"c+	c #4C1D1D",
"d+	c #351717",
"e+	c #492D2D",
"f+	c #482D2D",
"g+	c #452C2C",
"h+	c #422B2B",
"i+	c #5D3131",
"j+	c #8E3A3A",
"k+	c #A63B3B",
"l+	c #9C3737",
"m+	c #9B3939",
"n+	c #842323",
"o+	c #370000",
"p+	c #1E1818",
"q+	c #232424",
"r+	c #121212",
"s+	c #1F2121",
"t+	c #1F1616",
"u+	c #440000",
"v+	c #6F0C0C",
"w+	c #962F2F",
"x+	c #902F2F",
"y+	c #8F3030",
"z+	c #4B1B1B",
"A+	c #270E0E",
"B+	c #2B0E0E",
"C+	c #3B1F1F",
"D+	c #472C2C",
"E+	c #472B2B",
"F+	c #442B2B",
"G+	c #663131",
"H+	c #923636",
"I+	c #9A3434",
"J+	c #6E1313",
"K+	c #3B0000",
"L+	c #1E1010",
"M+	c #1F2222",
"N+	c #1D1F1F",
"O+	c #1D1212",
"P+	c #3F0000",
"Q+	c #540101",
"R+	c #781B1B",
"S+	c #882C2C",
"T+	c #8D2C2C",
"U+	c #471818",
"V+	c #240C0C",
"W+	c #290C0C",
"X+	c #2D0F0F",
"Y+	c #371B1B",
"Z+	c #381B1B",
"`+	c #2C1818",
" @	c #411E1E",
".@	c #882424",
"+@	c #570303",
"@@	c #410000",
"#@	c #1F0D0D",
"$@	c #090909",
"%@	c #1F2020",
"&@	c #1C1414",
"*@	c #470000",
"=@	c #530404",
"-@	c #7A1E1E",
";@	c #882626",
">@	c #8E2727",
",@	c #441414",
"'@	c #230909",
")@	c #2A0A0A",
"!@	c #290A0A",
"~@	c #260808",
"{@	c #270808",
"]@	c #280808",
"^@	c #250707",
"/@	c #1E0606",
"(@	c #3C0F0F",
"_@	c #7D1D1D",
":@	c #700909",
"<@	c #570000",
"[@	c #1E0E0E",
"}@	c #1E2020",
"|@	c #080808",
"1@	c #1D1A1A",
"2@	c #2F0000",
"3@	c #560404",
"4@	c #761616",
"5@	c #8C2121",
"6@	c #451111",
"7@	c #250808",
"8@	c #2B0909",
"9@	c #290808",
"0@	c #2B0808",
"a@	c #2B0707",
"b@	c #350B0B",
"c@	c #781717",
"d@	c #A51B1B",
"e@	c #8B0A0A",
"f@	c #6B0000",
"g@	c #6A0000",
"h@	c #460000",
"i@	c #1E1414",
"j@	c #222424",
"k@	c #070707",
"l@	c #212323",
"m@	c #270505",
"n@	c #4A0000",
"o@	c #790D0D",
"p@	c #460B0B",
"q@	c #280505",
"r@	c #2E0606",
"s@	c #2F0505",
"t@	c #2A0505",
"u@	c #330707",
"v@	c #700F0F",
"w@	c #BB1414",
"x@	c #C00E0E",
"y@	c #9F0202",
"z@	c #8C0000",
"A@	c #870000",
"B@	c #790000",
"C@	c #450101",
"D@	c #211F1F",
"E@	c #252626",
"F@	c #292B2B",
"G@	c #201010",
"H@	c #3E0000",
"I@	c #4F0000",
"J@	c #520000",
"K@	c #5A0000",
"L@	c #720202",
"M@	c #400404",
"N@	c #250101",
"O@	c #290101",
"P@	c #290202",
"Q@	c #5B0505",
"R@	c #B00808",
"S@	c #E00606",
"T@	c #D20000",
"U@	c #C10000",
"V@	c #B80000",
"W@	c #AE0000",
"X@	c #A30000",
"Y@	c #7F0000",
"Z@	c #380A0A",
"`@	c #262929",
" #	c #2B2C2C",
".#	c #252424",
"+#	c #340101",
"@#	c #580000",
"##	c #600000",
"$#	c #6C0000",
"%#	c #840303",
"&#	c #420404",
"*#	c #1C0000",
"=#	c #3C0202",
"-#	c #980505",
";#	c #DC0202",
">#	c #EA0000",
",#	c #E60000",
"'#	c #E70000",
")#	c #E40000",
"!#	c #D90000",
"~#	c #C90000",
"{#	c #B00000",
"]#	c #6F0000",
"^#	c #2C1F1F",
"/#	c #2C3030",
"(#	c #040404",
"_#	c #303333",
":#	c #291717",
"<#	c #700000",
"[#	c #800000",
"}#	c #940202",
"|#	c #630404",
"1#	c #6B0505",
"2#	c #BF0303",
"3#	c #E50000",
"4#	c #E90000",
"5#	c #A10000",
"6#	c #461010",
"7#	c #2E3333",
"8#	c #020202",
"9#	c #341010",
"0#	c #670000",
"a#	c #8F0000",
"b#	c #9D0000",
"c#	c #B10101",
"d#	c #C80101",
"e#	c #DC0000",
"f#	c #EC0000",
"g#	c #EB0000",
"h#	c #C00000",
"i#	c #610A0A",
"j#	c #303232",
"k#	c #333535",
"l#	c #010101",
"m#	c #030303",
"n#	c #000000",
"o#	c #371515",
"p#	c #9E0000",
"q#	c #BA0000",
"r#	c #CD0000",
"s#	c #EF0000",
"t#	c #EE0000",
"u#	c #F00000",
"v#	c #E00000",
"w#	c #610E0E",
"x#	c #353434",
"y#	c #3A3C3C",
"z#	c #393E3E",
"A#	c #362222",
"B#	c #590606",
"C#	c #B90000",
"D#	c #BC0000",
"E#	c #850303",
"F#	c #4D1D1D",
"G#	c #393C3C",
"H#	c #3D4040",
"I#	c #3B3C3C",
"J#	c #3E2727",
"K#	c #551212",
"L#	c #750A0A",
"M#	c #870707",
"N#	c #890606",
"O#	c #7E0909",
"P#	c #660F0F",
"Q#	c #4A2323",
"R#	c #3E3B3B",
"S#	c #404747",
"T#	c #383939",
"U#	c #131212",
"V#	c #373838",
"W#	c #444A4A",
"X#	c #404242",
"Y#	c #414343",
"Z#	c #454B4B",
"`#	c #424949",
" $	c #3B3D3D",
".$	c #2D2E2E",
"+$	c #323333",
"                                                                                                ",
"              . + @ @ @ @ @ @ @ @ @ @ @ @ @ @ @ @ @ @ @ @ @ #                                   ",
"            $ % & & & & & & & & & & & & & & & & & & & & & & & * =                               ",
"            - ; > > > > > > > > > > > > > > > > > > > > > > > > , ' )                           ",
"            ! ~ { { { { { { { { { { { { { { { { { { { { { { { > = = ] = ^                       ",
"            / , = = = = = = = = = = = = = = = = = = = = = = = = { ) ( _ . :                     ",
"            / > _ _ _ _ _ _ _ _ _ _ _ _ _ _ _ _ _ _ _ _ _ _ _ _ _ < { ~ [ } | 1                 ",
"            } _ < < < < < < < < < < < < < < < < < < < < < < < < < 2 . 3 [ 4 5 6 7               ",
"            8 2 9 9 9 9 9 9 9 9 9 9 9 9 9 9 9 9 9 9 9 9 9 9 9 9 9 ) 0 @ a b 6 c d e             ",
"            8 ) f f f f f f f f f f f f f f f f f f f f f f f f f 9 # g h 6 i [ [ /             ",
"            : f + + + + + + + + + + + + + + + + + + + + + + + + + j k l m n f f f 9             ",
"            : + o o o o o o o o o o o o o o o o o o o o o o o o o @ . / # + o o o @             ",
"            4 o # # # # # # # # # # # # # # # # # # # # # # # # # # # k # # # # # k             ",
"            i # p p p p p p p p p p p p p p p p p p p p p p p p p p . . p p p p p .             ",
"            q p r r r r r r r r r r r r r r r r r r r r r r r r r r r r r r r r r r             ",
"            g r a a a a a a a a a a a a a a a a a a a a a a a a a a a a a a a a a n             ",
"            s a [ [ [ [ [ [ [ [ [ [ [ [ [ [ [ [ [ [ [ [ t u u u u u u t t [ [ [ [ [             ",
"            v [ u u u u u u u u u u u u u u u u u w - w a # ) x 2 < o n u ! w u u u             ",
"            | w ! ! ! ! ! ! ! ! ! ! ! ! ! ! ! - / ! o ; y z A B B C z D * 9 u ^ ! !             ",
"            5 ! ^ ^ ^ ^ ^ ^ ^ ^ ^ ^ ^ ^ ^ ^ / 8 $ * y E F G H I I J K L M N O . 8 ^             ",
"            P ^ 8 8 8 8 8 8 8 8 8 8 8 8 8 8 : 0 O Q R S T U V W X Y Z `  ...+.@.@ :             ",
"            #.$.: : : : : : : : : : : : : i t %.&.*.=.-.;.>.,.'.).'.!.~.{.].^./.(.0             ",
"            h i _._._._._._._._._._._._._.: 2 :.<.[.}.|.1.2.3.4.5.5.5.6.7.W 8.9.0.{             ",
"            a.q g g g g g g g g g g g g b a b.c.d.e.f.g.h.i.j.k.l.m.n.o.o.Y p.q.r.s.)           ",
"            6 g s s s s s s s s s s s b q t.u.v.w.x.y.z.A.B.C.D.E.F.G.H.I.J.K.L.M.N.O.          ",
"            l v | | | | | | | | | | | 5 $.P.Q.R.S.T.U.V.W.X.Y.Z.`. +.+++@+#+$+%+&+*+=+[         ",
"            -+5 P P P P P P P P P P P 5 ^ ;+>+,+'+)+!+~+{+]+^+/+(+_+:+<+[+}+|+1+2+3+$.-         ",
"            4+m #.#.#.#.#.#.#.#.#.#.#.P 5+6+7+8+9+0+a+b+c+]+d+e+f+g+h+i+j+k+l+m+n+o+p+q+        ",
"            d #.h h h h h h h h h h r+P s+t+u+v+w+x+y+a+z+A+B+C+f+D+E+h+F+G+H+I+J+K+L+M+        ",
"            1 r+a.a.a.a.a.a.a.a.a.a.a.m N+O+P+Q+R+S+T+w+U+V+W+X+Y+Z+Z+Z+Y+`+ @.@+@@@#@N+        ",
"            $@a.6 6 6 6 6 6 6 6 6 6 l #.%@&@o+*@=@-@;@>@,@'@)@!@~@{@]@^@/@(@_@:@<@u+[@}@        ",
"            |@l c c c c c c c c c c -+a.5+1@2@u+7+3@4@5@6@7@8@9@0@a@^@b@c@d@e@f@g@h@i@j@        ",
"            k@-+4+4+4+4+4+4+4+4+4+4+4+4+4 l@m@@@h@n@<@o@p@q@r@s@t@u@v@w@x@y@z@A@B@C@D@E@        ",
"            7 1 1 1 1 1 1 1 1 1 1 1 1 |@v F@G@H@I@J@K@L@M@N@O@P@Q@R@S@T@U@V@W@X@Y@Z@`@E@        ",
"            e $@$@$@$@$@$@$@$@$@$@$@$@|@c  #.#+#@###$#%#&#*#=#-#;#>#,#'#)#!#~#{#]#^#/#          ",
"            (#k@k@k@k@k@k@k@k@k@k@k@k@k@(#4 _#:#J@<#[#}#|#1#2#3#>#>#>#>#>#4#!#5#6#7#/           ",
"            8#7 e e e e e e e e e e e e (#|@r _#9#0#a#b#c#d#e#>#f#g#g#g#f#3#h#i#j#k#1           ",
"            l#(#(#(#(#(#(#(#(#(#(#(#(#(#m#n#l j s.o#$#p#q#r#3#s#t#s#u#u#v#{#w#x#y#m n#          ",
"            l#8#8#8#8#8#8#8#8#8#8#8#8#8#8#l#n##.) z#A#B#a#C#e#>#>#3#!#D#E#F#G#H#b n#n#          ",
"            l#l#l#l#l#l#l#l#l#l#l#l#l#l#l#n#n#n#-+p E I#J#K#L#M#N#O#P#Q#R#S#T#U#n#n#n#          ",
"            n#n#n#n#n#n#n#n#n#n#n#n#n#n#n#n#n#n#n#l#v V#E W#E X#Y#Q Z#`# $4 (#n#n#n#n#          ",
"              n#n#n#n#n#n#n#n#n#n#n#n#n#n#n#n#n#n#n#n#l#c 4 .$+$+$n } a.(#n#n#n#n#n#            ",
"                                                                                                ",
"                                                                                                ",
"                                                                                                ",
"                                                                                                ",
"                                                                                                ",
"                                                                                                "};
