/* XPM */
static char * htop_xpm[] = {
"48 48 41 1",
" 	c None",
".	c #0A0A0A",
"+	c #0D0D0D",
"@	c #0C0C0C",
"#	c #0B0B0B",
"$	c #0E0E0E",
"%	c #0F0F0F",
"&	c #101010",
"*	c #121212",
"=	c #131313",
"-	c #111111",
";	c #151515",
">	c #161616",
",	c #171717",
"'	c #181818",
")	c #141414",
"!	c #191919",
"~	c #060606",
"{	c #070707",
"]	c #080808",
"^	c #090909",
"/	c #2D2D2D",
"(	c #656565",
"_	c #858585",
":	c #2B2B2B",
"<	c #232323",
"[	c #686868",
"}	c #2C2C2C",
"|	c #3A3A3A",
"1	c #4B4B4B",
"2	c #636363",
"3	c #818181",
"4	c #050505",
"5	c #262626",
"6	c #1E1E1E",
"7	c #606060",
"8	c #040404",
"9	c #3E3E3E",
"0	c #030303",
"a	c #020202",
"b	c #010101",
"                                                ",
"                      ....                      ",
"                     +@++++#                    ",
"                   @$%&&&&%$+                   ",
"                  $%&*====*-%$                  ",
"                  &*=;>>>>;=*&-                 ",
"                 -*=;>,'''>;)*&                 ",
"                 -=;>,'!!'',;=-                 ",
"       ~{]^.#@$%&*);,'!!!!',;)*-&$+@.^]{~       ",
"       ]^.#@+$%&*=)>,'!!!!!'>;)*-&%+@#.^]       ",
"       ^.@@+$%&-*=);>,'!!'',>;)=*-&%$+@#^       ",
"       .#@+$%%&-**=);>>,,,>;;)==*-&%%$@#.       ",
"       #@+$                          %$@#       ",
"       #+$$                          %$+#       ",
"       #+$$                          $$+#       ",
"       #+$$                    %%    $$+#       ",
"       #++$                  ++$$-   $+@#       ",
"       #@++   ++@@#   ##+   #@@+/    ++@#       ",
"       #@++   @@##.   ... ...#%(     @@@.       ",
"       .#@@   ###.^   _^.^^^^:       @@#.       ",
"       .##@   #..^^    <^^^@[        ##.^       ",
"       ^.##   ..^^]     ]]}          ...^       ",
"       ]^..             |1           ^^^]       ",
"       ]^..                          ^^^]       ",
"       ]^^^                    {{    ]]]{       ",
"       {]^^                  ~{{{@   ]]{{       ",
"       {]^^   ]]{{{   ~{^   ~~{{/    ]]{{       ",
"       ~{]]   {{{~~   ~~~  ~~~#2     {{{~       ",
"       ~{{]   {{{~~   3~~~4445       {{~~       ",
"       ~{{{   {{~~4    6444{7        ~~~4       ",
"       4~{{   ~~~44     48<          ~~44       ",
"       4~~~             /9           4444       ",
"       44~~                          4448       ",
"       8444                          8888       ",
"       8444   48880                  8888       ",
"       8888   88800                  0880       ",
"       0888   88000                  0000       ",
"       0888   88000                  0000       ",
"       0000   000aa                  a00a       ",
"       a000                          aaaa       ",
"       aaaa                          aaaa       ",
"       aaaa                          aaaa       ",
"       baaa                          aaab       ",
"       bbbbbbbbbbbbbbbbbbbbbbbbbbbbbbbbbb       ",
"       bbbbbbbbbbbbbbbbbbbbbbbbbbbbbbbbbb       ",
"       bbbbbbbbbbbbbbbbbbbbbbbbbbbbbbbbbb       ",
"       bbbbbbbbbbbbbbbbbbbbbbbbbbbbbbbbbb       ",
"                                                "};
