/* XPM */
static char * start_xpm[] = {
"48 48 3 1",
" 	c None",
".	c #333333",
"+	c #323232",
"                                                ",
"                                                ",
"                                                ",
"                                                ",
" .+..+..+...+.+..+..+..+..+..+...+..+..+..+..+. ",
" ++++++++++++++++++++++++++++++++++++++++++++++ ",
"..+..+..+...+.+..+..+..+..+..+...+..+..+..+..+.+",
"..+.                                        .+.+",
"++++                                        ++++",
"..+.                                        .+.+",
"..+.                                        .+.+",
"++++                                        ++++",
"..+.                                        .+.+",
"..+.                                        .+.+",
"++++                                        ++++",
"..+.                                        .+.+",
"..+.               .+.                      .+.+",
"..+.              ..+..                     .+.+",
"++++              +++++++                   ++++",
"..+.              ..+..+..+                 .+.+",
"..+.              ..+..+..+..               .+.+",
"++++              ++++++++++++              ++++",
"..+.              ..+..+..+..+..            .+.+",
"..+.              ..+..+..+..+...           .+.+",
"++++              +++++++++++++++           ++++",
"..+.              ..+..+..+..+..            .+.+",
"..+.              ..+..+..+..+              .+.+",
"++++              +++++++++++               ++++",
"..+.              ..+..+..+                 .+.+",
"..+.              ..+..+.                   .+.+",
"++++              +++++                     ++++",
"..+.               .+.                      .+.+",
"..+.                                        .+.+",
"++++                                        ++++",
"..+.                                        .+.+",
"++++                                        ++++",
"..+.                                        .+.+",
"..+.                                        .+.+",
"..+.                                        .+.+",
"++++                                        ++++",
"..+.                                        .+.+",
"..+..+..+...+.+..+..+..+..+..+...+..+..+..+..+.+",
" ++++++++++++++++++++++++++++++++++++++++++++++ ",
" .+..+..+...+.+..+..+..+..+..+...+..+..+..+..+. ",
"                                                ",
"                                                ",
"                                                ",
"                                                "};
