/* XPM */
static char * taskmanager_xpm[] = {
"48 48 535 2",
"  	c None",
". 	c #4F4F4F",
"+ 	c #434343",
"@ 	c #343434",
"# 	c #363636",
"$ 	c #383838",
"% 	c #393939",
"& 	c #3C3C3C",
"* 	c #3E3E3E",
"= 	c #404040",
"- 	c #424242",
"; 	c #444444",
"> 	c #454545",
", 	c #474747",
"' 	c #484848",
") 	c #4A4A4A",
"! 	c #4C4C4C",
"~ 	c #4E4E4E",
"{ 	c #515151",
"] 	c #525252",
"^ 	c #414141",
"/ 	c #3F3F3F",
"( 	c #3D3D3D",
"_ 	c #3B3B3B",
": 	c #353535",
"< 	c #2B2B2B",
"[ 	c #000000",
"} 	c #010101",
"| 	c #030303",
"1 	c #040404",
"2 	c #060606",
"3 	c #080808",
"4 	c #0A0A0A",
"5 	c #0C0C0C",
"6 	c #0E0E0E",
"7 	c #101010",
"8 	c #121212",
"9 	c #141414",
"0 	c #161616",
"a 	c #171717",
"b 	c #1A1A1A",
"c 	c #1B1B1B",
"d 	c #1D1D1D",
"e 	c #1E1E1E",
"f 	c #1F1F1F",
"g 	c #1C1C1C",
"h 	c #191919",
"i 	c #151515",
"j 	c #0B0B0B",
"k 	c #020202",
"l 	c #070707",
"m 	c #0D0D0D",
"n 	c #131313",
"o 	c #050505",
"p 	c #111111",
"q 	c #090909",
"r 	c #0F0F0F",
"s 	c #0C0B0B",
"t 	c #0D0D0E",
"u 	c #111212",
"v 	c #070708",
"w 	c #090B0B",
"x 	c #0D0E0F",
"y 	c #0A0B0B",
"z 	c #0F0F10",
"A 	c #0C0B0C",
"B 	c #09090A",
"C 	c #131213",
"D 	c #090A0A",
"E 	c #181A1C",
"F 	c #0A1113",
"G 	c #0E1518",
"H 	c #131B1E",
"I 	c #0D1215",
"J 	c #141616",
"K 	c #121313",
"L 	c #1A191A",
"M 	c #0F1011",
"N 	c #20282A",
"O 	c #132227",
"P 	c #14333C",
"Q 	c #19343B",
"R 	c #152227",
"S 	c #12181A",
"T 	c #0E0E0F",
"U 	c #0E0D0E",
"V 	c #0D1011",
"W 	c #223035",
"X 	c #152C35",
"Y 	c #10A1BB",
"Z 	c #17889E",
"` 	c #1B2E35",
" .	c #142125",
"..	c #0E1111",
"+.	c #0F0F0E",
"@.	c #050506",
"#.	c #1E1E1F",
"$.	c #293A41",
"%.	c #164756",
"&.	c #07A8C5",
"*.	c #139EB8",
"=.	c #244551",
"-.	c #13252C",
";.	c #0E1315",
">.	c #202121",
",.	c #151F22",
"'.	c #2D3F47",
").	c #116579",
"!.	c #14849C",
"~.	c #148BA5",
"{.	c #166274",
"].	c #192C33",
"^.	c #11191C",
"/.	c #0E0D0D",
"(.	c #161617",
"_.	c #070706",
":.	c #0C0C0D",
"<.	c #1B1B1C",
"[.	c #1B1E1F",
"}.	c #111F24",
"|.	c #293D45",
"1.	c #0D8DA5",
"2.	c #1F7389",
"3.	c #107087",
"4.	c #0B7D93",
"5.	c #1C2F37",
"6.	c #141618",
"7.	c #181818",
"8.	c #1E2325",
"9.	c #14252B",
"0.	c #2A4A54",
"a.	c #0C93AC",
"b.	c #275F70",
"c.	c #1B5061",
"d.	c #0E90A8",
"e.	c #173C46",
"f.	c #16262B",
"g.	c #191E20",
"h.	c #101112",
"i.	c #0B0D0D",
"j.	c #060808",
"k.	c #030304",
"l.	c #080909",
"m.	c #171F22",
"n.	c #0E2028",
"o.	c #216776",
"p.	c #0B849C",
"q.	c #20424F",
"r.	c #153845",
"s.	c #1490A7",
"t.	c #115868",
"u.	c #13242A",
"v.	c #172023",
"w.	c #0B0B0C",
"x.	c #101111",
"y.	c #111516",
"z.	c #0E1314",
"A.	c #0B0D0E",
"B.	c #06090A",
"C.	c #020203",
"D.	c #262626",
"E.	c #222222",
"F.	c #1A1A1B",
"G.	c #212121",
"H.	c #2D2D2D",
"I.	c #1A1C1D",
"J.	c #293539",
"K.	c #223239",
"L.	c #258FA3",
"M.	c #177689",
"N.	c #314851",
"O.	c #243E48",
"P.	c #246D7D",
"Q.	c #188095",
"R.	c #27373E",
"S.	c #2B373B",
"T.	c #1D2020",
"U.	c #252526",
"V.	c #161819",
"W.	c #13191B",
"X.	c #10191D",
"Y.	c #0A252A",
"Z.	c #070F11",
"`.	c #020404",
" +	c #121111",
".+	c #1E1E1D",
"++	c #080D0E",
"@+	c #18282E",
"#+	c #0E2B35",
"$+	c #0D8CA4",
"%+	c #104755",
"&+	c #1D353E",
"*+	c #102932",
"=+	c #1B4551",
"-+	c #0F99B2",
";+	c #1A3842",
">+	c #1C2B31",
",+	c #0B1011",
"'+	c #0E171B",
")+	c #0E2026",
"!+	c #095664",
"~+	c #0A1B20",
"{+	c #030506",
"]+	c #0E1011",
"^+	c #101214",
"/+	c #121517",
"(+	c #212425",
"_+	c #1D2021",
":+	c #282A2B",
"<+	c #272727",
"[+	c #2E3031",
"}+	c #1A2327",
"|+	c #2B3D45",
"1+	c #1B5563",
"2+	c #0B96AF",
"3+	c #213A43",
"4+	c #2C3E44",
"5+	c #1D2F36",
"6+	c #2C4048",
"7+	c #10889F",
"8+	c #225C6B",
"9+	c #2D3F46",
"0+	c #1E282C",
"a+	c #242628",
"b+	c #161818",
"c+	c #151B1D",
"d+	c #142226",
"e+	c #112E36",
"f+	c #084C59",
"g+	c #072931",
"h+	c #050809",
"i+	c #0E0F0F",
"j+	c #111110",
"k+	c #040707",
"l+	c #070C0E",
"m+	c #091214",
"n+	c #0B161A",
"o+	c #0C1A1F",
"p+	c #0C1B21",
"q+	c #17252A",
"r+	c #101D21",
"s+	c #1A2326",
"t+	c #191D1F",
"u+	c #070A0B",
"v+	c #222A2C",
"w+	c #0D2128",
"x+	c #1E3641",
"y+	c #0A687B",
"z+	c #128196",
"A+	c #11242C",
"B+	c #1B292D",
"C+	c #0C181D",
"D+	c #1D2E35",
"E+	c #0A5F72",
"F+	c #07768C",
"G+	c #223C46",
"H+	c #10282F",
"I+	c #162226",
"J+	c #0A1315",
"K+	c #0D1A1E",
"L+	c #0F2128",
"M+	c #0B323D",
"N+	c #083A46",
"O+	c #062D35",
"P+	c #050B0D",
"Q+	c #010202",
"R+	c #0A1013",
"S+	c #0D1A1F",
"T+	c #10232A",
"U+	c #122B33",
"V+	c #14313B",
"W+	c #1E3F49",
"X+	c #193841",
"Y+	c #23333A",
"Z+	c #1F2B2F",
"`+	c #121718",
" @	c #171A1B",
".@	c #0D1619",
"+@	c #2B3B40",
"@@	c #173843",
"#@	c #245766",
"$@	c #0B95AE",
"%@	c #23606E",
"&@	c #1F272A",
"*@	c #0F1619",
"=@	c #202F35",
"-@	c #104654",
";@	c #0A95AF",
">@	c #2B4C5A",
",@	c #1A404C",
"'@	c #203840",
")@	c #11252D",
"!@	c #13272F",
"~@	c #13303A",
"{@	c #095564",
"]@	c #0A343F",
"^@	c #0A272E",
"/@	c #050F12",
"(@	c #0E1112",
"_@	c #031C21",
":@	c #03363F",
"<@	c #044A57",
"[@	c #045E6F",
"}@	c #057084",
"|@	c #068299",
"1@	c #0A96AF",
"2@	c #099FB9",
"3@	c #1A5866",
"4@	c #29383E",
"5@	c #192327",
"6@	c #1D2528",
"7@	c #15252B",
"8@	c #304A53",
"9@	c #0A89A2",
"0@	c #0EB7CE",
"a@	c #1396AE",
"b@	c #2D4750",
"c@	c #152429",
"d@	c #222628",
"e@	c #131718",
"f@	c #222F33",
"g@	c #1F343C",
"h@	c #1B91A7",
"i@	c #099BB5",
"j@	c #079EB8",
"k@	c #0F7B90",
"l@	c #1C3843",
"m@	c #1A3741",
"n@	c #08687A",
"o@	c #0C6575",
"p@	c #0F2329",
"q@	c #0B262C",
"r@	c #03171A",
"s@	c #0F1112",
"t@	c #031013",
"u@	c #061D22",
"v@	c #09262D",
"w@	c #0A2E37",
"x@	c #0C343E",
"y@	c #0D3945",
"z@	c #1A4654",
"A@	c #0C5B6D",
"B@	c #0891AA",
"C@	c #273F48",
"D@	c #162A31",
"E@	c #1B2D33",
"F@	c #142831",
"G@	c #25798A",
"H@	c #0893AD",
"I@	c #204754",
"J@	c #13313C",
"K@	c #25343A",
"L@	c #0F1719",
"M@	c #1C1E1E",
"N@	c #0E0F10",
"O@	c #1B2225",
"P@	c #18262B",
"Q@	c #1C444E",
"R@	c #146173",
"S@	c #105162",
"T@	c #0C89A1",
"U@	c #174E5E",
"V@	c #164E5D",
"W@	c #096B7E",
"X@	c #0E1C23",
"Y@	c #0B191D",
"Z@	c #081316",
"`@	c #020C0E",
" #	c #040607",
".#	c #080E10",
"+#	c #0D161A",
"@#	c #121E23",
"##	c #16252A",
"$#	c #182A31",
"%#	c #253D46",
"&#	c #26404B",
"*#	c #1C95AC",
"=#	c #226D7E",
"-#	c #223841",
";#	c #27414A",
">#	c #1D3F4A",
",#	c #0B9DB8",
"'#	c #1D5B6B",
")#	c #2C454E",
"!#	c #2C3336",
"~#	c #16191A",
"{#	c #232424",
"]#	c #212526",
"^#	c #1C2427",
"/#	c #243238",
"(#	c #2D4149",
"_#	c #27414C",
":#	c #21899E",
"<#	c #187388",
"[#	c #1B5F70",
"}#	c #125D6C",
"|#	c #131F25",
"1#	c #0C1518",
"2#	c #090C0D",
"3#	c #020303",
"4#	c #060809",
"5#	c #0A0D0F",
"6#	c #0D1214",
"7#	c #0D1417",
"8#	c #162227",
"9#	c #142830",
"0#	c #1D5B6A",
"a#	c #1295AE",
"b#	c #194150",
"c#	c #214553",
"d#	c #117489",
"e#	c #148CA3",
"f#	c #142D37",
"g#	c #1D2E34",
"h#	c #202223",
"i#	c #161717",
"j#	c #101212",
"k#	c #14191A",
"l#	c #1E2A2E",
"m#	c #142B33",
"n#	c #1F6676",
"o#	c #117D94",
"p#	c #126A7E",
"q#	c #12424E",
"r#	c #0E1A1E",
"s#	c #0B0E10",
"t#	c #060707",
"u#	c #010102",
"v#	c #0D0E0E",
"w#	c #050504",
"x#	c #1C2021",
"y#	c #162529",
"z#	c #283B43",
"A#	c #0989A1",
"B#	c #126D83",
"C#	c #285869",
"D#	c #09A1BC",
"E#	c #2B5E6C",
"F#	c #162930",
"G#	c #232323",
"H#	c #19191A",
"I#	c #121112",
"J#	c #1F2325",
"K#	c #192A30",
"L#	c #284C58",
"M#	c #11869E",
"N#	c #11889F",
"O#	c #1A3740",
"P#	c #121C20",
"Q#	c #0B0C0D",
"R#	c #1B1C1D",
"S#	c #141C1F",
"T#	c #21333A",
"U#	c #175262",
"V#	c #0E98B3",
"W#	c #10839C",
"X#	c #0A839A",
"Y#	c #243942",
"Z#	c #0E1D22",
"`#	c #181C1D",
" $	c #142126",
".$	c #25373F",
"+$	c #088AA2",
"@$	c #0C7C90",
"#$	c #1B272D",
"$$	c #0E1619",
"%$	c #080809",
"&$	c #0F1314",
"*$	c #17262B",
"=$	c #1A303A",
"-$	c #07B2CF",
";$	c #0F3F4D",
">$	c #0C1417",
",$	c #171919",
"'$	c #151516",
")$	c #131415",
"!$	c #11191B",
"~$	c #1B282E",
"{$	c #10414D",
"]$	c #103942",
"^$	c #151E22",
"/$	c #0A0F11",
"($	c #050606",
"_$	c #0F1111",
":$	c #193E48",
"<$	c #205966",
"[$	c #182B33",
"}$	c #233034",
"|$	c #15191A",
"1$	c #111415",
"2$	c #151D20",
"3$	c #1B2125",
"4$	c #161C1F",
"5$	c #111718",
"6$	c #07090A",
"7$	c #0E191E",
"8$	c #161F23",
"9$	c #0E181B",
"0$	c #141415",
"a$	c #101213",
"b$	c #0C0E0E",
"c$	c #0F1213",
"d$	c #161A1B",
"e$	c #121415",
"f$	c #171819",
"g$	c #111112",
"h$	c #101011",
"i$	c #0B0B0A",
"j$	c #242424",
"k$	c #252525",
"l$	c #292929",
"m$	c #2C2C2C",
"n$	c #2E2E2E",
"o$	c #2F2F2F",
"p$	c #2A2A2A",
"q$	c #303030",
"r$	c #333333",
"s$	c #373737",
"t$	c #140E0D",
"u$	c #140F0E",
"v$	c #151616",
"w$	c #10535E",
"x$	c #09373E",
"y$	c #030100",
"z$	c #282828",
"A$	c #313131",
"B$	c #202020",
"C$	c #120F0F",
"D$	c #0E1516",
"E$	c #1390A5",
"F$	c #0A616F",
"G$	c #060201",
"H$	c #071012",
"I$	c #070C0C",
"J$	c #050404",
"                                                                                                ",
"                                                                                                ",
"                                                                                                ",
"      . + @ # $ % & * = - ; > , ' ) ! ~ . { { ] ] { { . ~ ! ) ' , > + ^ / ( _ % $ # : :         ",
"      < [ } | 1 2 3 4 5 6 7 8 9 0 a b c d e f f f f e g c h a i 9 8 7 6 5 4 3 2 1 | [ } 1       ",
"      j k [ [ [ [ [ [ [ [ [ [ [ [ [ [ [ [ [ [ [ [ [ [ [ [ [ [ [ [ [ [ [ [ [ [ [ [ [ l 4 k       ",
"      m } [ [ [ [ [ [ [ [ [ [ [ [ [ } k k | 1 k | | k k } [ [ [ [ [ [ [ [ [ [ [ [ [ 7 n }       ",
"      m } [ [ [ [ [ [ [ [ [ [ [ } 1 o 2 o o l o l o 1 o 1 o | [ [ [ [ [ [ [ [ [ [ [ 6 p }       ",
"      m } [ [ [ [ [ [ [ [ [ } 1 2 l 2 l 3 3 m 3 5 l l 3 2 l l o k [ [ [ [ [ [ [ [ [ m 7 }       ",
"      m } [ [ [ [ [ [ [ [ | 2 l 2 q 3 j 4 3 6 3 r 3 4 s 3 5 l 2 l o [ [ [ [ [ [ [ [ m 7 }       ",
"      m } [ [ [ [ [ [ [ | l q 3 t n 5 6 q 2 6 2 u v w x y n z A j 3 2 k [ [ [ [ [ [ m r }       ",
"      m } [ [ [ [ [ [ | B 4 7 8 i 9 m 7 m B C D E F G H I J K n n m 5 q [ [ [ [ [ [ m r }       ",
"      m } [ [ [ [ [ | q 4 4 r p r r p 8 8 r L M N O P Q R S T p T 5 4 4 q k [ [ [ [ m r }       ",
"      m } [ [ [ [ k 2 q 6 7 6 7 m 6 i p 0 U h V W X Y Z `  ...+.m T p j q l [ [ [ [ m r }       ",
"      m } [ [ [ [ @.l l m t m r 6 6 0 8 g 7 #.S $.%.&.*.=.-.;.7 6 r 8 5 3 l | [ [ [ m r }       ",
"      m } [ [ [ | 2 l j 8 8 6 7 m r b p e p >.,.'.).!.~.{.].^.M /.8 (.8 6 2 _.} [ [ m r }       ",
"      m } [ [ [ o 2 :.7 8 n m 8 7 p a :.<.5 [.}.|.1.2.3.4.5. .6.+.i 9 n i 5 2 k [ [ m r }       ",
"      m } [ [ } 1 o 5 6 p 7.7 h 0 p n 5 f r 8.9.0.a.b.c.d.e.f.g.7 h i p h.i.j.k.[ [ m r }       ",
"      m } [ [ k o 3 6 7 r a j 9 z 4 r 2 b l.m.n.o.p.q.r.s.t.u.v.w.a r x.y.z.A.B.C.[ m 7 }       ",
"      m } [ [ k 1 4 r 8 9 g b D.E.F.G.a H.I.J.K.L.M.N.O.P.Q.R.S.T.U.i V.W.X.Y.Z.`.[ 6 7 }       ",
"      m } [ [ | o q 4 j 4  +j a 9 5 8 2 .+++@+#+$+%+&+*+=+-+;+>+,+n q V '+)+!+~+{+[ 6 7 }       ",
"      m } [ k 1 j.i.]+^+/+(+_+:+<+g G.0 [+}+|+1+2+3+4+5+6+7+8+9+0+a+b+c+d+e+f+g+h+[ i+j+}       ",
"      m } [ k k+l+m+n+o+p+q+r+s+t+i+u u+v+w+x+y+z+A+B+C+D+E+F+G+H+I+J+K+L+M+N+O+P+[ ]+p }       ",
"      m Q+[ C.B.R+S+T+U+V+W+X+Y+Z+`+ @.@+@@@#@$@%@-.&@*@=@-@;@>@,@'@)@!@~@{@]@^@/@[ (@p }       ",
"      m Q+[ k _@:@<@[@}@|@1@2@3@4@5@6@7@8@9@0@a@b@c@d@e@f@g@h@i@j@k@l@m@n@o@p@q@r@[ s@p }       ",
"      m Q+[ } t@u@v@w@x@y@z@A@B@C@D@E@F@G@H@I@J@K@L@M@N@O@P@Q@R@S@T@U@V@W@X@Y@Z@`@[ M p }       ",
"      m Q+[ [  #.#+#@###$#%#&#*#=#-#;#>#,#'#)#E@!#~#{#0 ]#^#/#(#_#:#<#[#}#|#1#2#C.[ T 7 }       ",
"      m } [ [ 3#4#5#6#6#7#8#9#0#a#b#c#d#e#f#g#7#h#5 h 5 i#j#k#l#m#n#o#p#q#r#s#t#u#[ v#7 }       ",
"      m } [ [ k w#q 7  +i x#y#z#A#B#C#D#E#F#&@M G#r g 7 H#I#9 J#K#L#M#N#O#P#Q#o [ [ m 7 }       ",
"      m } [ [ } o 2 m p 9 R#S#T#U#V#W#X#Y#Z#`#q e q i j 9 6 r V. $.$+$@$#$$$%$| [ [ m r }       ",
"      m } [ [ [ 1 1 q 5 7 8 &$*$=$N#-$;$T#>$,$q e B 9 m '$7 r )$!$~${$]$^$/$($} [ [ m r }       ",
"      m } [ [ [ } o 3 5 8 n _$S#9.:$<$[$}$|$G.n D.9 e 0 c 8 8 u 1$2$3$4$5$6$1 } [ [ m r }       ",
"      m } [ [ [ [ o l 4 T m v#(@>$7$8$9$g.v#b j #.5 0$7 9 4 q 5 v#a$6.a$b$l } [ [ [ m r }       ",
"      m } [ [ [ [ } 2 3 4 m r K s@c$d$e$f$p f 8 G#8 a n 9 p 6 p r 7 r l.3 o [ [ [ [ m r }       ",
"      m } [ [ [ [ [ } l 4 t p g$6 6 p 7 r j 0 j b 4 6 8 r r m h$r z 6 4 1 } [ [ [ [ m r }       ",
"      m } [ [ [ [ [ [ k l 3 6 7 7 7 j r m j 0$j h 4 5 g$5 p r 7 7 5 4 l [ [ [ [ [ [ m r }       ",
"      m } [ [ [ [ [ [ [ [ o 4 4 6 p 4 m q v 7 q 9 3 4 m q p r m m q 1 [ [ [ [ [ [ [ m r }       ",
"      m } [ [ [ [ [ [ [ [ } | o 3 m 4 j q 2 m 2 6 2 q j q r i$l @.k [ [ [ [ [ [ [ [ m 7 }       ",
"      m } [ [ [ [ [ [ [ [ [ [ k o o 1 l 3 3 m 3 m l q 3 o 2 o | } [ [ [ [ [ [ [ [ [ m 7 }       ",
"      m } [ [ [ [ [ [ [ [ [ [ [ [ [ [ } } | 2 | o | k k [ [ [ [ [ [ [ [ [ [ [ [ [ [ j p }       ",
"      m } 7.D.E.G.G.G.G.G.G.G#j$k$<+l$< m$n$o$o$o$o$n$H.< p$<+D.j$G#G.G.G.G.G.G.G#j$@ g [       ",
"      m | 7 i i a h c d f E.j$<+p$H.q$r$: s$% % % % s$: r$q$H.p$<+j$G.f d c h a t$u$v$4 k       ",
"      m | o l q 5 6 p 9 a b d f E.j$<+l$< H.n$n$n$n$m$p$l$D.j$G.f g h 0 n p /.A.w$x$y$| k       ",
"      3 1 l q j r 8 i 7.c e G.G#D.z$< H.o$q$A$A$A$A$o$n$m$p$z$k$G#B$d b a i C$D$E$F$G$1 k       ",
"      k | o l q j m r 8 9 0 h b g e f G.E.G#j$j$j$j$E.E.G.f e g b 7.0 n p r m j H$I$J$| }       ",
"                                                                                                ",
"                                                                                                ",
"                                                                                                "};
