/* XPM */
static char * terminal_xpm[] = {
"48 48 692 2",
"  	c None",
". 	c #787978",
"+ 	c #7C7D7D",
"@ 	c #7F7F7F",
"# 	c #818282",
"$ 	c #848484",
"% 	c #858686",
"& 	c #858585",
"* 	c #848585",
"= 	c #848584",
"- 	c #828383",
"; 	c #808080",
"> 	c #7D7E7E",
", 	c #7B7B7B",
"' 	c #787979",
") 	c #757575",
"! 	c #727272",
"~ 	c #6D6D6D",
"{ 	c #747675",
"] 	c #CBCCCC",
"^ 	c #DDDFDF",
"/ 	c #E4E6E6",
"( 	c #EBEDEC",
"_ 	c #F0F2F2",
": 	c #F6F7F7",
"< 	c #FAFCFC",
"[ 	c #FFFFFF",
"} 	c #FEFFFF",
"| 	c #FAFBFB",
"1 	c #F5F7F6",
"2 	c #EFF1F1",
"3 	c #EAEBEB",
"4 	c #E4E6E5",
"5 	c #D7D9D8",
"6 	c #CED0CF",
"7 	c #C7C9C8",
"8 	c #B3B5B4",
"9 	c #C0C3C2",
"0 	c #CFD1D1",
"a 	c #D1D3D3",
"b 	c #D8D9D9",
"c 	c #DDDFDE",
"d 	c #E3E4E4",
"e 	c #E8E9E8",
"f 	c #ECEDED",
"g 	c #F0F1F1",
"h 	c #F3F4F4",
"i 	c #F4F5F5",
"j 	c #F2F4F4",
"k 	c #EFF0F0",
"l 	c #EBECEC",
"m 	c #E7E8E8",
"n 	c #E2E3E3",
"o 	c #DCDEDD",
"p 	c #D6D8D7",
"q 	c #D0D2D1",
"r 	c #C9CCCB",
"s 	c #C2C5C3",
"t 	c #BBBDBC",
"u 	c #B8BAB9",
"v 	c #B3B6B4",
"w 	c #BFC1C0",
"x 	c #C3C6C5",
"y 	c #CACCCB",
"z 	c #D1D2D2",
"A 	c #D7D8D8",
"B 	c #E2E4E3",
"C 	c #EAEBEA",
"D 	c #EEEFEF",
"E 	c #F2F3F3",
"F 	c #F6F7F6",
"G 	c #F8F9F8",
"H 	c #F5F6F6",
"I 	c #F2F3F2",
"J 	c #EDEEEE",
"K 	c #E9EAE9",
"L 	c #E3E5E4",
"M 	c #DEDFDF",
"N 	c #D8DAD9",
"O 	c #D0D1D1",
"P 	c #C9CACA",
"Q 	c #C1C3C2",
"R 	c #BABCBB",
"S 	c #B2B5B4",
"T 	c #AFB1B1",
"U 	c #939695",
"V 	c #B8BABA",
"W 	c #C0C2C2",
"X 	c #CFD1D0",
"Y 	c #D5D6D6",
"Z 	c #E3E4E3",
"` 	c #E5E6E6",
" .	c #D9DCDD",
"..	c #DCDEE0",
"+.	c #DFE2E3",
"@.	c #E2E4E6",
"#.	c #E4E6E8",
"$.	c #E3E6E7",
"%.	c #E1E4E5",
"&.	c #DEE1E3",
"*.	c #DBDEDF",
"=.	c #D7DADB",
"-.	c #D3D5D7",
";.	c #CED1D2",
">.	c #CBCECF",
",.	c #D4D6D5",
"'.	c #CFD0CF",
").	c #BFC2C1",
"!.	c #B9BBBA",
"~.	c #B1B3B2",
"{.	c #A9ABAA",
"].	c #A1A4A2",
"^.	c #B5B8B7",
"/.	c #BEC0C0",
"(.	c #C6C8C8",
"_.	c #CDCFCE",
":.	c #DCDDDC",
"<.	c #A8ADB1",
"[.	c #464E57",
"}.	c #1C232B",
"|.	c #1C2229",
"1.	c #1D2329",
"2.	c #1E2329",
"3.	c #1E232A",
"4.	c #1E2429",
"5.	c #1E242A",
"6.	c #1F242A",
"7.	c #1E242B",
"8.	c #475059",
"9.	c #999FA3",
"0.	c #C6C8C6",
"a.	c #B6B9B8",
"b.	c #A7A9A9",
"c.	c #9C9E9D",
"d.	c #B2B4B3",
"e.	c #BCBEBD",
"f.	c #C3C5C5",
"g.	c #D3D4D3",
"h.	c #AAAEB2",
"i.	c #18212C",
"j.	c #0F1113",
"k.	c #292A2B",
"l.	c #303032",
"m.	c #323335",
"n.	c #39393A",
"o.	c #3E3F40",
"p.	c #404142",
"q.	c #3F4041",
"r.	c #404041",
"s.	c #3F3F41",
"t.	c #3E3E40",
"u.	c #3F3F40",
"v.	c #3B3C3D",
"w.	c #353637",
"x.	c #333434",
"y.	c #2E3031",
"z.	c #2A2B2D",
"A.	c #232324",
"B.	c #080A0D",
"C.	c #1A222E",
"D.	c #9CA1A3",
"E.	c #ADB0AF",
"F.	c #A4A7A6",
"G.	c #979A98",
"H.	c #AEB1B0",
"I.	c #B9BBBB",
"J.	c #4E565F",
"K.	c #111417",
"L.	c #3A3B3D",
"M.	c #46484C",
"N.	c #45484C",
"O.	c #484A4F",
"P.	c #494B4F",
"Q.	c #4A4B50",
"R.	c #4A4C50",
"S.	c #4A4C4F",
"T.	c #4A4B4F",
"U.	c #494A4E",
"V.	c #484A4E",
"W.	c #474A4E",
"X.	c #47494D",
"Y.	c #303133",
"Z.	c #060A0E",
"`.	c #575F67",
" +	c #BCBDBC",
".+	c #ABADAC",
"++	c #A1A4A3",
"@+	c #939694",
"#+	c #AAADAB",
"$+	c #B6B8B8",
"%+	c #C3C6C6",
"&+	c #30373F",
"*+	c #232425",
"=+	c #424548",
"-+	c #494C4F",
";+	c #524E4C",
">+	c #37393D",
",+	c #3C4147",
"'+	c #42454A",
")+	c #424549",
"!+	c #434549",
"~+	c #43454A",
"{+	c #414449",
"]+	c #414347",
"^+	c #181A1D",
"/+	c #424850",
"(+	c #B6B8B7",
"_+	c #A8AAA9",
":+	c #9EA1A0",
"<+	c #8F9391",
"[+	c #A6A8A7",
"}+	c #BFC2C2",
"|+	c #323941",
"1+	c #222426",
"2+	c #393A3D",
"3+	c #5A6770",
"4+	c #EDECE8",
"5+	c #AFA197",
"6+	c #5F554F",
"7+	c #343538",
"8+	c #383C42",
"9+	c #3F4246",
"0+	c #3F4146",
"a+	c #3E4145",
"b+	c #3F4145",
"c+	c #3E4045",
"d+	c #3E4044",
"e+	c #3D4044",
"f+	c #1E1F22",
"g+	c #41484F",
"h+	c #A5A7A6",
"i+	c #9C9F9D",
"j+	c #8B8E8C",
"k+	c #AFB1B0",
"l+	c #BCBFBF",
"m+	c #323942",
"n+	c #1F2122",
"o+	c #393A3E",
"p+	c #383E45",
"q+	c #5C707E",
"r+	c #A1BDCD",
"s+	c #DEE4E3",
"t+	c #BFB4AC",
"u+	c #675C55",
"v+	c #36393E",
"w+	c #3B3D42",
"x+	c #3B3E42",
"y+	c #3A3D41",
"z+	c #3A3C41",
"A+	c #393C40",
"B+	c #1D1F21",
"C+	c #414850",
"D+	c #AFB2B1",
"E+	c #A2A4A3",
"F+	c #989B9A",
"G+	c #8A8D8C",
"H+	c #9FA2A1",
"I+	c #B4B6B5",
"J+	c #B8BBBB",
"K+	c #333A43",
"L+	c #1C1D20",
"M+	c #35373C",
"N+	c #333539",
"O+	c #232327",
"P+	c #2F3338",
"Q+	c #97A2A6",
"R+	c #ABA49E",
"S+	c #2C2E32",
"T+	c #373A3E",
"U+	c #373A3F",
"V+	c #383A3F",
"W+	c #37393E",
"X+	c #36393D",
"Y+	c #36383D",
"Z+	c #35383C",
"`+	c #34373B",
" @	c #1B1C20",
".@	c #ACAEAD",
"+@	c #959896",
"@@	c #8A8D8B",
"#@	c #9FA3A1",
"$@	c #A7A9A8",
"%@	c #B0B2B1",
"&@	c #B4B7B7",
"*@	c #343B43",
"=@	c #191A1C",
"-@	c #2E3136",
";@	c #A39C97",
">@	c #E7E5E3",
",@	c #C9D1D5",
"'@	c #626F79",
")@	c #33383E",
"!@	c #323438",
"~@	c #2A2D32",
"{@	c #292C31",
"]@	c #292D32",
"^@	c #2A2E33",
"/@	c #33363A",
"(@	c #34363A",
"_@	c #32353A",
":@	c #323539",
"<@	c #313539",
"[@	c #313438",
"}@	c #303338",
"|@	c #303337",
"1@	c #424951",
"2@	c #A7AAA9",
"3@	c #9A9D9C",
"4@	c #919492",
"5@	c #848886",
"6@	c #9A9E9C",
"7@	c #A2A5A4",
"8@	c #B0B3B3",
"9@	c #353C44",
"0@	c #16181A",
"a@	c #292A2E",
"b@	c #4B575F",
"c@	c #B8C3CA",
"d@	c #57636C",
"e@	c #282D33",
"f@	c #26282C",
"g@	c #2E2F34",
"h@	c #30363D",
"i@	c #737576",
"j@	c #807D7A",
"k@	c #807C7A",
"l@	c #7D7875",
"m@	c #39393C",
"n@	c #2F3237",
"o@	c #303237",
"p@	c #2F3136",
"q@	c #2E3135",
"r@	c #2D3034",
"s@	c #2C2F33",
"t@	c #16181B",
"u@	c #434952",
"v@	c #A3A6A4",
"w@	c #969997",
"x@	c #8C8F8D",
"y@	c #7F8381",
"z@	c #969897",
"A@	c #9DA09F",
"B@	c #A5A8A6",
"C@	c #ABAEAD",
"D@	c #363E47",
"E@	c #151518",
"F@	c #2B2D32",
"G@	c #2B2F34",
"H@	c #21262B",
"I@	c #25272B",
"J@	c #2B2E32",
"K@	c #2C2F34",
"L@	c #2B2D31",
"M@	c #2D373F",
"N@	c #8498A1",
"O@	c #95A1A7",
"P@	c #94A0A7",
"Q@	c #90999E",
"R@	c #38383B",
"S@	c #2C2E33",
"T@	c #2E3035",
"U@	c #292B30",
"V@	c #151619",
"W@	c #434A53",
"X@	c #868987",
"Y@	c #7A7D7B",
"Z@	c #909392",
"`@	c #A0A3A2",
" #	c #A6A9A9",
".#	c #383F49",
"+#	c #131416",
"@#	c #292C32",
"##	c #2A2C31",
"$#	c #202226",
"%#	c #1E2126",
"&#	c #1F2126",
"*#	c #1F2227",
"=#	c #292B31",
"-#	c #282B30",
";#	c #272A2E",
">#	c #131518",
",#	c #454C54",
"'#	c #999C9B",
")#	c #808381",
"!#	c #747876",
"~#	c #8A8E8C",
"{#	c #9B9E9C",
"]#	c #A1A4A4",
"^#	c #3A414A",
"/#	c #0C0D0F",
"(#	c #27292D",
"_#	c #282A30",
":#	c #282A2F",
"<#	c #272A2F",
"[#	c #26292D",
"}#	c #121316",
"|#	c #474D55",
"1#	c #848786",
"2#	c #7A7E7C",
"3#	c #6F7370",
"4#	c #838785",
"5#	c #8C8F8E",
"6#	c #9C9F9E",
"7#	c #3D444D",
"8#	c #08090B",
"9#	c #1E2025",
"0#	c #27292E",
"a#	c #282B2F",
"b#	c #282A2E",
"c#	c #26292E",
"d#	c #262A2E",
"e#	c #222429",
"f#	c #0C0D10",
"g#	c #484F57",
"h#	c #7D817F",
"i#	c #747875",
"j#	c #696D6B",
"k#	c #7C807E",
"l#	c #858886",
"m#	c #8E918F",
"n#	c #969A99",
"o#	c #404751",
"p#	c #1A1D22",
"q#	c #1D2126",
"r#	c #22252A",
"s#	c #25282D",
"t#	c #262A2F",
"u#	c #23262B",
"v#	c #202228",
"w#	c #1B1E22",
"x#	c #0B0C0F",
"y#	c #4A5159",
"z#	c #777A79",
"A#	c #6D716F",
"B#	c #636865",
"C#	c #757977",
"D#	c #7E817F",
"E#	c #878988",
"F#	c #8F9392",
"G#	c #434A54",
"H#	c #07080A",
"I#	c #1D2025",
"J#	c #1C1F24",
"K#	c #202328",
"L#	c #23262A",
"M#	c #24272C",
"N#	c #23252A",
"O#	c #212428",
"P#	c #4C545C",
"Q#	c #707472",
"R#	c #676B69",
"S#	c #5E625F",
"T#	c #6E7270",
"U#	c #767A78",
"V#	c #7E8280",
"W#	c #888B8B",
"X#	c #474E57",
"Y#	c #070809",
"Z#	c #1A1D21",
"`#	c #202327",
" $	c #1B1D22",
".$	c #4F565E",
"+$	c #767978",
"@$	c #616563",
"#$	c #585C59",
"$$	c #676B68",
"%$	c #6F7270",
"&$	c #808483",
"*$	c #4A525B",
"=$	c #1C1F25",
"-$	c #515861",
";$	c #626664",
">$	c #5A5E5C",
",$	c #525754",
"'$	c #5F6461",
")$	c #797D7C",
"!$	c #4E5660",
"~$	c #545B64",
"{$	c #5C5F5E",
"]$	c #545856",
"^$	c #4B504E",
"/$	c #5F6361",
"($	c #666A68",
"_$	c #717675",
":$	c #535B66",
"<$	c #070709",
"[$	c #1A1C21",
"}$	c #0B0D0F",
"|$	c #575F68",
"1$	c #606462",
"2$	c #555957",
"3$	c #4D5250",
"4$	c #454A47",
"5$	c #505552",
"6$	c #585C5A",
"7$	c #5F6260",
"8$	c #6A6F6E",
"9$	c #58616C",
"0$	c #5A626C",
"a$	c #595D5B",
"b$	c #4E5350",
"c$	c #484C49",
"d$	c #3F4542",
"e$	c #4A4E4B",
"f$	c #515553",
"g$	c #575B59",
"h$	c #636867",
"i$	c #5E6672",
"j$	c #060709",
"k$	c #191C20",
"l$	c #5F6771",
"m$	c #484C4A",
"n$	c #424644",
"o$	c #3A3F3C",
"p$	c #424845",
"q$	c #4A4F4C",
"r$	c #4F5452",
"s$	c #5D6261",
"t$	c #636C78",
"u$	c #050607",
"v$	c #191B1F",
"w$	c #0B0C0E",
"x$	c #636C76",
"y$	c #4D514E",
"z$	c #424744",
"A$	c #3C403E",
"B$	c #353B37",
"C$	c #3C413E",
"D$	c #434845",
"E$	c #494D4A",
"F$	c #545956",
"G$	c #76818F",
"H$	c #08090A",
"I$	c #16181C",
"J$	c #15171B",
"K$	c #131418",
"L$	c #757F8C",
"M$	c #363B39",
"N$	c #303632",
"O$	c #373C39",
"P$	c #3D423F",
"Q$	c #434743",
"R$	c #828C99",
"S$	c #4D535F",
"T$	c #030303",
"U$	c #131519",
"V$	c #040406",
"W$	c #4B525E",
"X$	c #78828E",
"Y$	c #373B37",
"Z$	c #383D3A",
"`$	c #323734",
" %	c #2D322F",
".%	c #313733",
"+%	c #3D413F",
"@%	c #3F4340",
"#%	c #4C5151",
"$%	c #909CAF",
"%%	c #5E6776",
"&%	c #25292F",
"*%	c #23262C",
"=%	c #262A30",
"-%	c #626C7B",
";%	c #8E9AAC",
">%	c #424746",
",%	c #353A37",
"'%	c #323834",
")%	c #2D332F",
"!%	c #2A302C",
"~%	c #333734",
"{%	c #3B403D",
"]%	c #3B3F3C",
"^%	c #6F7881",
"/%	c #7D8896",
"(%	c #7A8491",
"_%	c #7B8592",
":%	c #7B8693",
"<%	c #7C8693",
"[%	c #7C8694",
"}%	c #7D8794",
"|%	c #7D8795",
"1%	c #7C8794",
"2%	c #7B8692",
"3%	c #798491",
"4%	c #788390",
"5%	c #77828F",
"6%	c #76828E",
"7%	c #76818E",
"8%	c #7A8593",
"9%	c #687279",
"0%	c #3A403D",
"a%	c #333733",
"b%	c #2F3431",
"c%	c #2B302D",
"d%	c #292F2B",
"e%	c #292F2D",
"f%	c #323735",
"g%	c #393E3B",
"h%	c #393D39",
"i%	c #3C403C",
"j%	c #3E423E",
"k%	c #404440",
"l%	c #414541",
"m%	c #434742",
"n%	c #444844",
"o%	c #454945",
"p%	c #454A45",
"q%	c #464A46",
"r%	c #454845",
"s%	c #444743",
"t%	c #424642",
"u%	c #3F433F",
"v%	c #3D413E",
"w%	c #3B403B",
"x%	c #3A3E3A",
"y%	c #373C37",
"z%	c #353935",
"A%	c #323632",
"B%	c #303430",
"C%	c #323733",
"D%	c #313633",
"E%	c #2A2F2D",
"F%	c #252B27",
"G%	c #303634",
"H%	c #323837",
"I%	c #333937",
"J%	c #343938",
"K%	c #353A38",
"L%	c #393D3B",
"M%	c #3B403E",
"N%	c #3E4340",
"O%	c #3F4341",
"P%	c #3F4442",
"Q%	c #404542",
"R%	c #404543",
"S%	c #404642",
"T%	c #414643",
"U%	c #3F4441",
"V%	c #3E423F",
"W%	c #383E3B",
"X%	c #373C3A",
"Y%	c #353B38",
"Z%	c #343936",
"`%	c #2F3532",
" &	c #2F3432",
".&	c #2E3432",
"+&	c #2E3332",
"@&	c #2C3330",
"#&	c #1A1E1E",
"$&	c #25292A",
"%&	c #373D3F",
"&&	c #40454A",
"*&	c #41464C",
"=&	c #40464B",
"-&	c #404549",
";&	c #404648",
">&	c #404548",
",&	c #414649",
"'&	c #414749",
")&	c #41474A",
"!&	c #42474A",
"~&	c #404649",
"{&	c #3F4547",
"]&	c #3F4447",
"^&	c #3E4346",
"/&	c #3D4346",
"(&	c #3D4246",
"_&	c #3C4245",
":&	c #3B4144",
"<&	c #3B4044",
"[&	c #393F43",
"}&	c #343A3C",
"|&	c #212526",
"1&	c #2A2F31",
"2&	c #3C4248",
"3&	c #3F454E",
"4&	c #3F444D",
"5&	c #3D434A",
"6&	c #3D4249",
"7&	c #3B4148",
"8&	c #3B4147",
"9&	c #3B4047",
"0&	c #3A4047",
"a&	c #3C4148",
"b&	c #3C4249",
"c&	c #373D42",
"d&	c #292E30",
"e&	c #030404",
"f&	c #050506",
"g&	c #050505",
"h&	c #040505",
"i&	c #040404",
"                                                                                                ",
"                                                                                                ",
"                                                                                                ",
"                                                                                                ",
"                                                                                                ",
"                                                                                                ",
"                                                                                                ",
"                  . + @ # $ % % % % % % % & * * * * * * * = - ; > , ' ) ! ~ {                   ",
"            ] ^ / ( _ : < [ [ [ [ [ [ [ [ [ [ [ [ [ [ [ [ [ } | 1 2 3 4 ^ 5 6 7 8               ",
"          9 0 a b c d e f g h i i i i i i i i i i i i i i j k l m n o p q r s t u v             ",
"        w x y z A o B C D E F G G G G G G G G G G G G G G H I J K L M N O P Q R S T U           ",
"        V W P X Y Z `  ...+.@.#.#.#.#.#.#.#.#.#.#.#.#.#.$.%.&.*.=.-.;.>.,.'.).!.~.{.].          ",
"        ^./.(._.:.<.[.}.|.1.2.2.3.4.5.5.5.5.5.5.5.5.5.5.5.6.5.5.5.5.|.7.8.9.0.a.T b.c.          ",
"        d.e.f.g.h.i.j.k.l.m.n.o.p.q.q.r.q.q.q.s.s.o.t.o.u.o.v.w.x.y.z.A.B.C.D.R E.F.G.          ",
"        H.I.Q '.J.K.L.M.N.O.P.Q.R.R.S.P.P.R.T.P.T.T.P.T.P.P.P.P.U.V.W.X.Y.Z.`. +.+++@+          ",
"        #+$+w %+&+*+=+-+;+>+,+'+)+!+~+~+~+!+~+!+~+!+!+)+)+)+)+)+)+)+{+)+]+^+/+(+_+:+<+          ",
"        [+8 e.}+|+1+2+3+4+5+6+7+8+9+0+0+0+0+0+0+0+0+0+0+0+0+0+a+b+c+d+e+c+f+g+8 h+i+j+          ",
"        ].k+u l+m+n+o+p+q+r+s+t+u+v+w+x+x+x+x+x+x+x+x+x+x+w+y+y+y+z+A+A+A+B+C+D+E+F+G+          ",
"        H+.+I+J+K+L+M+N+O+P+Q+[ R+S+T+T+U+V+V+U+V+V+U+T+T+T+W+W+X+Y+Z+M+`+ @/+.@:++@@@          ",
"        #@$@%@&@*@=@-@U+;@>@,@'@)@!@~@{@]@]@^@/@`+`+`+/@(@/@/@_@:@<@[@}@|@^+1@2@3@4@5@          ",
"        6@7@.+8@9@0@a@b@c@d@e@f@g@h@i@j@k@k@l@m@n@}@}@}@|@o@o@p@p@q@q@r@s@t@u@v@w@x@y@          ",
"        z@A@B@C@D@E@F@G@H@I@J@K@L@M@N@O@P@O@Q@R@S@T@T@r@r@r@K@s@J@~@~@~@U@V@W@:+4@X@Y@          ",
"        Z@F+`@ #.#+#U@{@{@~@]@@#~@##$#%#%#&#*#]@J@J@~@~@~@~@{@=#-#-#-#-#;#>#,#'#j+)#!#          ",
"        ~#@+{#]#^#/#(#U@_#-#-#-#-#-#-#-#-#-#-#-#-#-#-#-#:#:#:#<#:#;#;#;#[#}#|#@+1#2#3#          ",
"        4#5#+@6#7#8#9#0#a#b#;#;#;#;#:#:#:#:#:#:#:#;#;#;#;#;#;#;#c#c#d#<#e#f#g#x@h#i#j#          ",
"        k#l#m#n#o#8#p#q#r#s#;#;#;#;#;#;#;#;#;#;#;#;#;#c#c#c#c#t#c#[#u#v#w#x#y#5@z#A#B#          ",
"        C#D#E#F#G#H#p#I#J#I#K#L#M#c#;#;#;#;#<#<#;#c#c#c#c#s#M#N#O#%#I#I#w#x#P#h#Q#R#S#          ",
"        T#U#V#W#X#Y#Z#I#I#I#I#J#I#%#*#`#K#K#K#K#K#K#`#*#%#I#I#J#I#I#I#I# $x#.$+$j#@$#$          ",
"        $$%$U#&$*$Y#Z#I#I#I#I#I#I#I#I#I#I#=$J#J#I#I#I#I#I#I#I#I#I#I#I#I#p#x#-$T#;$>$,$          ",
"        '$R#T#)$!$Y#Z#I#I#I#I#I#I#I#I#I#I#I#I#I#I#I#I#I#I#I#I#I#I#I#I#I#p#x#~$$${$]$^$          ",
"        #$/$($_$:$<$[$I#I#I#I#I#I#I#I#I#I#I#I#I#I#I#I#I#I#I#I#I#I#I#I#I#p#}$|$1$2$3$4$          ",
"        5$6$7$8$9$<$[$I#I#I#I#I#I#I#I#I#I#I#I#I#I#I#I#I#I#I#I#I#I#I#I#I#Z#}$0$a$b$c$d$          ",
"        e$f$g$h$i$j$k$I#I#I#I#I#I#I#I#I#I#I#I#I#I#I#I#I#I#I#I#I#I#I#I#I#Z#/#l$,$m$n$o$          ",
"        p$q$r$s$t$u$v$J#J#J#J#J#J#J#J#J#J#J#J#J#J#J#J#J#J#J#J#J#J#J#J#J#k$w$x$y$z$A$B$          ",
"        C$D$E$F$G$H$I$Z#p# $w#w#w#w#w#w#w#w#w#w#w#w#w#w#w#w#w#w#w# $ $Z#J$K$L$z$C$M$N$          ",
"        O$P$D$Q$R$S$T$U$J$J$J$J$J$J$J$J$J$J$J$J$J$J$J$J$J$J$J$J$J$J$J$>#V$W$X$Y$Z$`$ %          ",
"        .%O$+%@%#%$%%%&%*%*%*%*%*%*%*%*%*%*%*%*%*%*%*%*%*%*%*%*%*%*%*%=%-%;%>%,%'%)%!%          ",
"        )%~%O${%]%z$^%/%(%_%:%<%[%}%|%|%|%|%}%1%1%1%:%2%_%(%3%4%5%6%7%8%9%0%a%`$b%c%d%          ",
"        e%b%f%,%Z$g%Y$h%i%j%k%l%m%n%o%p%q%q%q%q%o%r%s%t%l%u%v%w%x%y%z%A%B%C%D%b% %E%F%          ",
"          G%H%I%J%K%O$L%o$M%P$P$N%O%P%Q%R%S%T%Q%Q%U%N%V%+%M%o$W%X%Y%Z%`$D%`% &.&+&@&#&          ",
"          $&%&&&*&=&&&-&;&>&;&;&,&,&,&,&'&)&!&'&,&,&~&>&{&]&^&/&/&(&(&_&:&<&[&[&}&|&            ",
"              1&2&3&4&5&6&7&8&9&0&9&9&8&8&8&8&9&9&8&9&9&8&8&8&8&a&b&5&5&b&8&c&d&                ",
"                e&f&f&g&h&h&h&h&h&h&h&h&h&h&h&h&h&h&h&h&h&h&h&h&h&g&g&g&g&g&i&                  ",
"                                                                                                ",
"                                                                                                ",
"                                                                                                ",
"                                                                                                ",
"                                                                                                "};
