/* XPM */
static char * terminal3_xpm[] = {
"48 48 571 2",
"  	c None",
". 	c #371C09",
"+ 	c #5C2D10",
"@ 	c #593012",
"# 	c #633817",
"$ 	c #623618",
"% 	c #693D1C",
"& 	c #734823",
"* 	c #6F4322",
"= 	c #744724",
"- 	c #81542D",
"; 	c #855B33",
"> 	c #845934",
", 	c #8E653D",
"' 	c #90663D",
") 	c #956D44",
"! 	c #9A744C",
"~ 	c #A07950",
"{ 	c #9C754C",
"] 	c #A27D54",
"^ 	c #A58057",
"/ 	c #9F784E",
"( 	c #A27950",
"_ 	c #A78157",
": 	c #A27D55",
"< 	c #9E784F",
"[ 	c #A17D55",
"} 	c #9B734B",
"| 	c #99734B",
"1 	c #9A754D",
"2 	c #976F46",
"3 	c #8E643D",
"4 	c #8F683F",
"5 	c #875F38",
"6 	c #794F2B",
"7 	c #774D29",
"8 	c #764D29",
"9 	c #6C4222",
"0 	c #683F1E",
"a 	c #693F1D",
"b 	c #603417",
"c 	c #5C3315",
"d 	c #512D11",
"e 	c #40200C",
"f 	c #231305",
"g 	c #4C210C",
"h 	c #7B3D16",
"i 	c #754019",
"j 	c #7D461D",
"k 	c #79421C",
"l 	c #844E24",
"m 	c #8C572A",
"n 	c #844F28",
"o 	c #89532B",
"p 	c #925E33",
"q 	c #926439",
"r 	c #8F6037",
"s 	c #976A40",
"t 	c #986A3F",
"u 	c #9F7348",
"v 	c #A2794E",
"w 	c #A37A4F",
"x 	c #9F764C",
"y 	c #A67F57",
"z 	c #A68058",
"A 	c #A0774F",
"B 	c #A2794F",
"C 	c #A57E56",
"D 	c #9F7952",
"E 	c #9B734C",
"F 	c #9E7852",
"G 	c #9B7149",
"H 	c #9E764C",
"I 	c #9F774E",
"J 	c #9A6F46",
"K 	c #93673F",
"L 	c #9A6F45",
"M 	c #91643C",
"N 	c #855630",
"O 	c #85542E",
"P 	c #83542D",
"Q 	c #774825",
"R 	c #744521",
"S 	c #794721",
"T 	c #79411D",
"U 	c #7A441D",
"V 	c #653915",
"W 	c #4D270E",
"X 	c #2D1407",
"Y 	c #451F0C",
"Z 	c #6A3413",
"` 	c #643816",
" .	c #5C3415",
"..	c #4E2812",
"+.	c #522E17",
"@.	c #57321A",
"#.	c #502A18",
"$.	c #512C19",
"%.	c #53331E",
"&.	c #4F311E",
"*.	c #4A2D1C",
"=.	c #4D3120",
"-.	c #4D311F",
";.	c #4F3524",
">.	c #523927",
",.	c #503625",
"'.	c #4B3324",
").	c #4F3929",
"!.	c #4D3828",
"~.	c #493323",
"{.	c #493324",
"].	c #4A3627",
"^.	c #473223",
"/.	c #453121",
"(.	c #473323",
"_.	c #473121",
":.	c #4A3524",
"<.	c #4E3726",
"[.	c #4A3220",
"}.	c #4A3120",
"|.	c #523924",
"1.	c #513521",
"2.	c #4C2E1B",
"3.	c #4F301C",
"4.	c #4E311B",
"5.	c #452715",
"6.	c #452714",
"7.	c #4D2B15",
"8.	c #552C14",
"9.	c #613617",
"0.	c #5B3414",
"a.	c #42200C",
"b.	c #261206",
"c.	c #47210C",
"d.	c #673313",
"e.	c #5C3214",
"f.	c #1A1106",
"g.	c #030201",
"h.	c #030501",
"i.	c #030A01",
"j.	c #030E01",
"k.	c #020D01",
"l.	c #020C02",
"m.	c #020A01",
"n.	c #010900",
"o.	c #010A00",
"p.	c #000800",
"q.	c #000C00",
"r.	c #000D00",
"s.	c #000B00",
"t.	c #000A00",
"u.	c #000E00",
"v.	c #010F00",
"w.	c #010F01",
"x.	c #020F01",
"y.	c #031001",
"z.	c #041101",
"A.	c #041202",
"B.	c #051102",
"C.	c #030F01",
"D.	c #050F01",
"E.	c #060D01",
"F.	c #1E1807",
"G.	c #5E3315",
"H.	c #43200D",
"I.	c #271206",
"J.	c #44200C",
"K.	c #643312",
"L.	c #4B2810",
"M.	c #060602",
"N.	c #002000",
"O.	c #002800",
"P.	c #002E00",
"Q.	c #002C00",
"R.	c #002700",
"S.	c #002500",
"T.	c #002600",
"U.	c #002400",
"V.	c #002300",
"W.	c #002200",
"X.	c #002100",
"Y.	c #001E00",
"Z.	c #001C00",
"`.	c #101904",
" +	c #5D2D14",
".+	c #44210D",
"++	c #261106",
"@+	c #44210B",
"#+	c #5E3012",
"$+	c #3F210E",
"%+	c #090402",
"&+	c #001800",
"*+	c #003900",
"=+	c #003500",
"-+	c #003000",
";+	c #002D00",
">+	c #002B00",
",+	c #002A00",
"'+	c #002900",
")+	c #171C05",
"!+	c #5E2D15",
"~+	c #45220D",
"{+	c #45210B",
"]+	c #582C10",
"^+	c #3A1E0D",
"/+	c #090502",
"(+	c #001D00",
"_+	c #00A200",
":+	c #00AD00",
"<+	c #005400",
"[+	c #002F00",
"}+	c #001F00",
"|+	c #191C06",
"1+	c #633216",
"2+	c #46230D",
"3+	c #281206",
"4+	c #45220B",
"5+	c #582D11",
"6+	c #0A0802",
"7+	c #001900",
"8+	c #009B00",
"9+	c #00FF00",
"0+	c #00CF00",
"a+	c #007A00",
"b+	c #003D00",
"c+	c #003200",
"d+	c #001B00",
"e+	c #001A00",
"f+	c #1C1D07",
"g+	c #693718",
"h+	c #48240D",
"i+	c #271306",
"j+	c #47250D",
"k+	c #391C0C",
"l+	c #0A0702",
"m+	c #003400",
"n+	c #005600",
"o+	c #00A400",
"p+	c #00E700",
"q+	c #00E000",
"r+	c #008300",
"s+	c #001700",
"t+	c #001600",
"u+	c #001500",
"v+	c #1C1C06",
"w+	c #6A3617",
"x+	c #49250E",
"y+	c #291307",
"z+	c #48260D",
"A+	c #572E11",
"B+	c #381B0C",
"C+	c #007200",
"D+	c #00F200",
"E+	c #00D700",
"F+	c #001300",
"G+	c #001200",
"H+	c #1C1906",
"I+	c #693516",
"J+	c #49260E",
"K+	c #2A1407",
"L+	c #582E11",
"M+	c #371A0C",
"N+	c #090802",
"O+	c #004100",
"P+	c #009200",
"Q+	c #00F100",
"R+	c #00E800",
"S+	c #00A300",
"T+	c #005100",
"U+	c #001100",
"V+	c #001000",
"W+	c #001400",
"X+	c #1B1806",
"Y+	c #2A1507",
"Z+	c #562D10",
"`+	c #35180B",
" @	c #00BC00",
".@	c #00D600",
"+@	c #007E00",
"@@	c #003C00",
"#@	c #191306",
"$@	c #693616",
"%@	c #4B250E",
"&@	c #542A0F",
"*@	c #31150A",
"=@	c #080802",
"-@	c #006500",
";@	c #005E00",
">@	c #003600",
",@	c #003300",
"'@	c #000F00",
")@	c #000200",
"!@	c #1A1005",
"~@	c #673415",
"{@	c #4A260E",
"]@	c #562C0F",
"^@	c #30170A",
"/@	c #070701",
"(@	c #00FB00",
"_@	c #00F900",
":@	c #00F800",
"<@	c #006300",
"[@	c #000900",
"}@	c #000700",
"|@	c #000300",
"1@	c #191105",
"2@	c #673616",
"3@	c #4B260E",
"4@	c #572D10",
"5@	c #31180A",
"6@	c #070402",
"7@	c #009600",
"8@	c #00B100",
"9@	c #00AF00",
"0@	c #00AE00",
"a@	c #00AC00",
"b@	c #004C00",
"c@	c #1B1106",
"d@	c #693716",
"e@	c #4A250E",
"f@	c #32190A",
"g@	c #000600",
"h@	c #1A1105",
"i@	c #673515",
"j@	c #48250E",
"k@	c #291407",
"l@	c #47240C",
"m@	c #572C10",
"n@	c #351B0B",
"o@	c #070501",
"p@	c #000500",
"q@	c #1A1306",
"r@	c #653515",
"s@	c #371D0B",
"t@	c #070602",
"u@	c #1B1506",
"v@	c #633614",
"w@	c #3F1F0B",
"x@	c #211005",
"y@	c #44200B",
"z@	c #562A0F",
"A@	c #361C0A",
"B@	c #000400",
"C@	c #1A1305",
"D@	c #5E3213",
"E@	c #391B09",
"F@	c #1E0D05",
"G@	c #43200B",
"H@	c #191205",
"I@	c #592E12",
"J@	c #351A09",
"K@	c #1B0C04",
"L@	c #421F0B",
"M@	c #592C0F",
"N@	c #371C0A",
"O@	c #572D11",
"P@	c #331808",
"Q@	c #190B04",
"R@	c #431F0B",
"S@	c #56290F",
"T@	c #080A02",
"U@	c #1A1205",
"V@	c #311708",
"W@	c #411D0A",
"X@	c #55290F",
"Y@	c #371C0B",
"Z@	c #3F1C0A",
"`@	c #562A0E",
" #	c #361B0A",
".#	c #170F05",
"+#	c #552C10",
"@#	c #331908",
"##	c #190B03",
"$#	c #3F1D0A",
"%#	c #53270E",
"&#	c #331909",
"*#	c #070601",
"=#	c #170F04",
"-#	c #552B0F",
";#	c #180A03",
">#	c #401D0A",
",#	c #52270E",
"'#	c #321909",
")#	c #341908",
"!#	c #411E0A",
"~#	c #52260D",
"{#	c #311809",
"]#	c #180F04",
"^#	c #1A0B04",
"/#	c #411F0A",
"(#	c #51260D",
"_#	c #080601",
":#	c #000100",
"<#	c #181004",
"[#	c #361A09",
"}#	c #401E0A",
"|#	c #53260D",
"1#	c #381A09",
"2#	c #090702",
"3#	c #181005",
"4#	c #582C0F",
"5#	c #381B08",
"6#	c #1E0D04",
"7#	c #54270D",
"8#	c #3D1D0B",
"9#	c #0B0A02",
"0#	c #181105",
"a#	c #5A2D10",
"b#	c #3B1B09",
"c#	c #210E04",
"d#	c #54260E",
"e#	c #401E0B",
"f#	c #0D0B02",
"g#	c #171004",
"h#	c #5C2F10",
"i#	c #3E1D0A",
"j#	c #220E05",
"k#	c #57280E",
"l#	c #0D0A02",
"m#	c #000000",
"n#	c #170E04",
"o#	c #5B2D0F",
"p#	c #230E05",
"q#	c #59280D",
"r#	c #46220B",
"s#	c #0E0802",
"t#	c #170D04",
"u#	c #5A2D0F",
"v#	c #241005",
"w#	c #3D1B09",
"x#	c #59290E",
"y#	c #4C250C",
"z#	c #0A0602",
"A#	c #0F0803",
"B#	c #582D0F",
"C#	c #230F05",
"D#	c #391908",
"E#	c #58280E",
"F#	c #50260C",
"G#	c #1A0E04",
"H#	c #040501",
"I#	c #040401",
"J#	c #050401",
"K#	c #060401",
"L#	c #060501",
"M#	c #090602",
"N#	c #080602",
"O#	c #080702",
"P#	c #070702",
"Q#	c #060601",
"R#	c #1F1105",
"S#	c #53280D",
"T#	c #210F05",
"U#	c #311506",
"V#	c #4D220B",
"W#	c #46230B",
"X#	c #44220B",
"Y#	c #3A1D0A",
"Z#	c #41240B",
"`#	c #4A290E",
" $	c #47230D",
".$	c #4B250D",
"+$	c #542D10",
"@$	c #542F11",
"#$	c #4F2A10",
"$$	c #542F12",
"%$	c #522B10",
"&$	c #563112",
"*$	c #5B3615",
"=$	c #5A3314",
"-$	c #552F13",
";$	c #5E3816",
">$	c #5C3616",
",$	c #532D12",
"'$	c #572F13",
")$	c #5C3615",
"!$	c #583214",
"~$	c #542F13",
"{$	c #573214",
"]$	c #502B11",
"^$	c #533013",
"/$	c #553313",
"($	c #4E2B10",
"_$	c #4A2910",
":$	c #523112",
"<$	c #4B2B10",
"[$	c #43220C",
"}$	c #49260D",
"|$	c #4E2C0F",
"1$	c #47260D",
"2$	c #44230B",
"3$	c #4A260C",
"4$	c #41200A",
"5$	c #311507",
"6$	c #1D0D04",
"7$	c #2A1105",
"8$	c #3E1A09",
"9$	c #3B1D09",
"0$	c #3E1E0A",
"a$	c #3C1809",
"b$	c #44210C",
"c$	c #4C270E",
"d$	c #45200C",
"e$	c #47200C",
"f$	c #512B10",
"g$	c #4F290F",
"h$	c #49230E",
"i$	c #4F2910",
"j$	c #4D260F",
"k$	c #4D2810",
"l$	c #522B11",
"m$	c #4E2710",
"n$	c #573114",
"o$	c #573014",
"p$	c #4D2610",
"q$	c #512912",
"r$	c #573215",
"s$	c #502A12",
"t$	c #4C2610",
"u$	c #4C2911",
"v$	c #44220E",
"w$	c #44240F",
"x$	c #47280F",
"y$	c #401F0D",
"z$	c #3D1D0C",
"A$	c #43240E",
"B$	c #3F200C",
"C$	c #381809",
"D$	c #3F1F0C",
"E$	c #47250E",
"F$	c #411D0B",
"G$	c #421F0C",
"H$	c #3F1A0A",
"I$	c #3C1C0A",
"J$	c #361B08",
"K$	c #281005",
"L$	c #190A03",
"M$	c #191003",
"N$	c #2A1306",
"O$	c #281406",
"P$	c #2E1808",
"Q$	c #2E1909",
"R$	c #2F1809",
"S$	c #2B1608",
"T$	c #2E1809",
"U$	c #2F1909",
"V$	c #321D0B",
"W$	c #311A0A",
"X$	c #2E1709",
"Y$	c #331D0B",
"Z$	c #2D1709",
"`$	c #2F190A",
" %	c #2A1609",
".%	c #291709",
"+%	c #251407",
"@%	c #241408",
"#%	c #241508",
"$%	c #211206",
"%%	c #1F1006",
"&%	c #221307",
"*%	c #201206",
"=%	c #1D0E05",
"-%	c #221206",
";%	c #271607",
">%	c #261306",
",%	c #271407",
"'%	c #291507",
")%	c #271507",
"!%	c #241306",
"~%	c #1E0C03",
"{%	c #110D02",
"                                                                                                ",
"                                                                                                ",
"                                                                                                ",
"                                                                                                ",
"                                                                                                ",
"    . + @ # $ % & * = - ; > , ' ) ! ~ { ] ^ / ( _ : < [ } | 1 2 3 4 5 6 7 8 9 0 a b c d e f     ",
"    g h i j k l m n o p q r s t u v w x y z A B C D E F G H I J K L M N O P Q R S T U V W X     ",
"    Y Z `  ...+.@.#.$.%.&.*.=.-.;.>.,.'.).!.~.{.].^./.(._.:.<.[.}.|.1.2.3.4.5.6.7.8.9.0.a.b.    ",
"    c.d.e.f.g.h.i.j.k.l.m.n.o.o.p.n.o.q.r.s.t.s.u.r.r.r.r.r.v.v.w.x.y.z.A.B.C.j.D.E.F.G.H.I.    ",
"    J.K.L.M.r.N.O.P.Q.O.R.R.R.R.S.T.R.R.R.T.U.S.T.S.S.U.V.V.V.U.V.W.W.V.W.X.X.N.Y.Z.`. +.+++    ",
"    @+#+$+%+&+*+Q.X.Q.=+-+;+Q.;+;+Q.Q.>+Q.Q.Q.>+,+,+,+'+O.O.R.R.T.T.S.S.U.V.V.V.V.X.)+!+~+I.    ",
"    {+]+^+/+(+X._+:+<+,+S.-+[+>+'+O.O.'+'+O.O.R.R.R.T.T.S.S.U.U.U.V.V.W.X.N.}+}+}+Z.|+1+2+3+    ",
"    4+5+^+6+}+7+8+9+9+0+a+b+S.c+'+R.R.R.R.R.T.T.T.S.S.U.U.U.U.V.V.W.X.}+(+Z.d+e+d+7+f+g+h+i+    ",
"    j+5+k+l+(+m+>+n+o+p+9+q+r+U.O.T.T.T.T.S.S.S.S.U.U.V.W.V.W.X.X.}+(+d+&+s+t+t+s+u+v+w+x+y+    ",
"    z+A+B+l+Z.m+P.Z.>+C+D+9+E+t+R.U.U.U.U.V.V.U.V.V.W.W.W.W.X.}+Y.Z.e+t+u+F+G+F+u+G+H+I+J+K+    ",
"    z+L+M+N+Z.,+O+P+Q+9+R+S+T+'+T.U.U.U.V.W.V.V.W.W.W.W.X.}+Y.Z.e+&+u+F+G+U+V+U+W+U+X+w+x+Y+    ",
"    z+Z+`+N+Y.r. @9+.@+@@@N.R.P.O.'+'+R.U.S.U.W.X.X.W.N.Y.Z.7+s+u+F+U+U+U+U+G+G+G+q.#@$@%@Y+    ",
"    z+&@*@=@}+S.-@;@V.(+,+;+-+,+c+>@>@,@,+Q.'+W.N.X.}+(+d+&+u+G+U+V+V+G+U+'@u.q.t.)@!@~@{@Y+    ",
"    j+]@^@/@e+Q.s+s+,+O.U.N.O..@(@_@:@(@_@<@U+W.}+}+Z.7+t+F+U+'@'@'@u.r.s.[@p.}@p.|@1@2@3@K+    ",
"    j+4@5@6@F+V.X.W.W.W.V.W.,+7@8@9@0@0@a@b@s+X.(+d+s+u+G+V+r.s.t.[@p.}@}@p.[@p.p.)@c@d@e@Y+    ",
"    z+4@f@6@'@}+Y.}+}+N.W.T.>+W+W+s+t+G+q.Y.T.(+7+t+F+V+r.t.}@g@g@g@}@p.g@g@}@}@}@)@h@i@j@k@    ",
"    l@m@n@o@q.d+d+d+(+}+N.X.V.U.V.X.}+(+Z.d+e+&+u+V+s.p.g@p@p@g@}@g@}@}@g@g@g@g@p.|@q@r@~+b.    ",
"    {+]+s@t@p.W+G+u+d+Z.Y.Y.(+Z.d+&+t+u+t+t+F+V+s.}@p@p@p@p@}@g@p@g@g@g@g@g@g@}@p.|@u@v@w@x@    ",
"    y@z@A@t@B@q.s.V+&+7+7+7+7+s+u+u+u+F+U+u.t.}@g@g@p@g@p@p@g@g@p@g@}@}@}@}@}@}@p.|@C@D@E@F@    ",
"    G@]+A@o@B@r.u.F+u+W+W+W+u+W+W+F+V+q.[@p.}@g@g@g@p@g@g@g@}@}@}@}@[@[@[@p.p.p.p.|@H@I@J@K@    ",
"    L@M@N@/@}@s.r.V+U+U+U+U+G+U+u.s.[@p.p.p.p.g@g@g@g@g@g@}@}@p.[@[@t.t.t.[@[@[@p.|@1@O@P@Q@    ",
"    R@S@N@T@}@t.t.s.'@'@'@u.q.t.[@t.t.t.[@}@p.}@}@}@}@}@[@[@[@s.s.q.s.s.s.[@[@[@[@)@U@L+V@Q@    ",
"    W@X@Y@=@g@t.t.t.s.}@}@}@}@p.p.[@[@p.p.p.p.p.[@[@[@t.t.t.q.r.r.q.q.s.t.[@[@[@p.)@1@O@V@Q@    ",
"    Z@`@ #/@p@t.t.}@p@B@p@g@g@g@}@p@}@}@}@t.t.t.t.t.t.s.q.r.u.u.r.q.s.t.t.t.[@[@p.|@.#+#@###    ",
"    $#%#&#*#B@p.}@}@p.t.s.[@p.p.t.[@p.p.[@q.s.s.q.q.q.r.u.u.r.r.q.s.t.t.t.t.t.[@p.|@=#-#@#;#    ",
"    >#,#'#o@|@p.t.q.r.r.q.s.s.q.r.u.q.t.s.r.q.r.r.r.r.u.u.u.q.s.s.t.t.s.s.t.t.[@p.)@.#-#)#Q@    ",
"    !#~#{#o@)@p.q.r.u.u.q.q.q.r.u.'@'@u.u.r.r.r.r.u.u.u.r.q.s.s.s.t.s.s.s.t.t.p.p.|@]#-#J@^#    ",
"    /#(#&#_#:#p.r.u.u.u.u.u.u.'@'@'@'@u.u.q.r.r.u.u.r.r.q.s.s.s.s.s.q.s.t.s.[@[@[@B@<#m@[#^#    ",
"    }#|#1#2#B@q.u.u.u.'@'@V+U+V+V+'@u.r.r.r.r.u.r.r.q.s.s.s.s.s.q.q.q.s.t.t.[@t.[@B@3#4#5#6#    ",
"    !#7#8#9#t.r.u.u.u.'@V+V+U+'@u.r.r.r.r.r.r.r.r.q.q.q.q.s.q.q.q.s.t.t.[@p.[@t.t.B@0#a#b#c#    ",
"    !#d#e#f#[@s.s.s.s.q.r.r.r.r.s.s.s.s.s.s.t.t.t.t.t.s.t.t.t.t.[@p.}@}@}@}@}@}@p.)@g#h#i#j#    ",
"    !#k#L@l#B@g@B@B@B@p@g@g@}@g@g@g@g@g@g@g@g@}@}@}@}@p.}@}@g@g@g@p@B@B@B@B@B@B@p@m#n#o#/#p#    ",
"    Z@q#r#s#m#)@:#:#:#:#:#:#:#:#)@|@)@)@)@)@)@|@|@|@B@B@|@|@|@)@)@)@)@)@)@)@)@)@:#m#t#u#!#v#    ",
"    w#x#y#z#m#m#m#m#m#m#m#m#m#m#m#m#m#m#m#m#m#m#m#m#m#m#m#m#m#m#m#m#m#m#m#m#m#m#m#m#A#B#}#C#    ",
"    D#E#F#G#H#I#J#K#L#o@*#t@t@_#M#N#O#O#O#O#O#O#N#O#O#O#O#2#2#2#O#=@P#P#/@/@/@Q#*#/@R#S#b#T#    ",
"    U#V#W#X#Y#Z#`# $.$+$@$#$$$%$&$*$=$-$;$>$,$'$)$!$~${$]$^$/$($_$:$<$[$}$|$z+1$}$2$3$4$5$6$    ",
"    7$8$9$0$a$b$c$d$e$f$g$h$i$j$k$-$l$m$n$o$p$q$r$s$t$u$v$w$x$y$z$A$B$C$D$E$F$G$J.H$I$J$K$L$    ",
"    M$N$O$O$++Y+P$k@K+Q$R$S$T$T$U$V$W$X$Y$Y$Z$`$V$Q$ %.%+%@%#%$%%%&%*%=%-%;%>%,%'%i+)%!%~%{%    ",
"    )@:#:#m#m#m#m#m#m#m#m#m#m#m#m#m#m#m#m#m#m#m#m#m#m#m#m#m#m#m#m#m#m#m#:#m#:#:#:#:#:#:#:#      ",
"                                                                                                ",
"                                                                                                ",
"                                                                                                ",
"                                                                                                "};
