/* XPM */
static char *closefcs_custom[] = {
/* columns rows colors chars-per-pixel */
"22 13 14 1",
"  c #EAEAD5D57C7C",
". c #EB2FD6B47F7F",
"X c #EB74D7948282",
"o c #EBBAD8738585",
"O c #EBFFD9538888",
"+ c #EC44DA328B8B",
"@ c #EC8ADB128E8E",
"# c #ECCFDBF29191",
"$ c #ED15DCD19494",
"% c #ED5ADDB19797",
"& c #ED9FDE909A9A",
"* c #EDE5DF709D9D",
"= c #EE13E0059F9F",
"- c None",
/* pixels */
"-----*=---------------",
"----****--------------",
"----*&&*--------------",
"----$&$$--------------",
"-$$--$$--$$-----------",
"####----####----------",
"@@@@----@@@@----------",
"++++----++++----------",
"-++--++--++-----------",
"----ooXo--------------",
"----XXXX--------------",
"----X X --------------",
"-----  ---------------"
};
