/* XPM */
static char * maxufcs_original_xpm[] = {
"8 8 2 1",
" 	c None",
".	c #E4D5BD",
"   ..   ",
"  ....  ",
" ...... ",
"........",
"........",
" ...... ",
"  ....  ",
"   ..   "};
