/* XPM */
static char * unshadepr_custom_xpm[] = {
"8 8 2 1",
" 	c None",
".	c #FFFFF0",
"        ",
"   ..   ",
"  ....  ",
" ...... ",
"........",
"........",
" ...... ",
"        "};
