/* XPM */
static char * shadefcs_original_xpm[] = {
"8 8 2 1",
" 	c None",
".	c #FFFFF0",
"        ",
" ...... ",
"........",
"........",
" ...... ",
"  ....  ",
"   ..   ",
"        "};
