/* XPM */
static char * scanlines_big_xpm[] = {
"3 6 5 1",
" 	c None",
".	c #161218",
"+	c #151117",
"@	c #120E14",
"#	c #110D13",
"...",
"...",
"+++",
"@@@",
"###",
"###"};
