/* XPM */
static char *button_border[] = {
/* columns rows colors chars-per-pixel */
"22 22 23 1",
"  c #39392E2E2929",
". c #38382E2E2A2A",
"X c #3B3B2F2F2B2B",
"o c #3C3C30302B2B",
"O c #3E3E32322D2D",
"+ c #3F3F32322D2D",
"@ c #404033332E2E",
"# c #414134342E2E",
"$ c #424234342E2E",
"% c #434335352F2F",
"& c #434336362F2F",
"* c #454536363030",
"= c #464637373030",
"- c #474737373131",
"; c #484838383131",
": c #494938383131",
"> c #4A4A39393232",
", c #4C4C3B3B3333",
"< c #4D4D3C3C3434",
"1 c #4E4E3C3C3434",
"2 c #4F4F3D3D3434",
"3 c #52523F3F3636",
"4 c #FFFFFFFFF0F0",
/* pixels */
"&&&&****&&&&&&&&****&&",
"&@&@o&O&OOO&&O&&o&O&OO",
"      .Xo..   .    .o.",
"XX  XXXXooo XX  XXXXoo",
"ooXXoooooooXoooooooXoo",
"@o*oo.......  ..Xoo*oo",
"@@o@o.4444444444.o@@@@",
"@@*o*.4+++*+o*+4 @@@@@",
"*oO**.4o*OO&O@&4.o*@&o",
"&&&Oo.4*O*&O&&@4.&&@&*",
"&@***.4*****&&&4 ***&&",
"**===.4**=**-&&4 *****",
"-*:*:.4>:*-*---4 -----",
"::::=.4==:::--:4 -::--",
":::::.4::::::::4 -::,-",
">>>>> 4444444444 ::,-,",
"<>:<< .. ..  .XX.>,,,,",
"<<<,<<<<3,,,,,,,<<<<<<",
"<<<2<,<<,,,,<,3,<,<,,,",
"3<3232233,333<,3<33<33",
"3333333333333333333333",
"****&&**************&*"
};
