/* XPM */
static char *closepr[] = {
/* columns rows colors chars-per-pixel */
"22 22 22 1",
"  c #39392E2E2929",
". c #3B3B2F2F2B2B",
"X c #3C3C30302B2B",
"o c #3E3E32322D2D",
"O c #3F3F32322D2D",
"+ c #404033332E2E",
"@ c #414134342E2E",
"# c #424234342E2E",
"$ c #434335352F2F",
"% c #434336362F2F",
"& c #454536363030",
"* c #464637373030",
"= c #474737373131",
"- c #484838383131",
"; c #494938383131",
": c #4A4A39393232",
"> c #4C4C3B3B3333",
", c #4D4D3C3C3434",
"< c #4E4E3C3C3434",
"1 c #4F4F3D3D3434",
"2 c #52523F3F3636",
"3 c #FFFFFFFFF0F0",
/* pixels */
"%%%%&&&%%%%%%%%%*&&%%%",
"%+%+X&oOo&OOO%%OX%oo%%",
"       .      .       ",
"..  ...XXXXX..XXX X X ",
"XX..XXXXXXXoXXXXXXXX O",
"+X&XX33XoooOXoooOOOOOO",
"++X+3333OOOOOOOOOO++OO",
"++&X3333OO%OOOOO+++XO%",
"%++%3333O%O&OO&O++%###",
"+33++33+&33O&OO&%%++##",
"3333$$%%3333O&%&%%%%%$",
"3333****3333===%****$*",
"3333**=*3333==========",
"=33:=33:=33==---==:*==",
"----3333::=::=-:=::::=",
"::::3333:::::>=>::::::",
">>>>3333:<::<:::1::,:>",
"<><<<33<<<<<<<<<11,,11",
"<><><<<<<<<<<<<<1,1>,1",
"2<2<2<<<<<221111111111",
"2222222222222222222222",
"$*$*$$$*$$=$:$$-=%=%%="
};
