/* XPM */
static char *closefcs[] = {
/* columns rows colors chars-per-pixel */
"22 22 31 1",
"  c #39392E2E2929",
". c #3B3B2F2F2B2B",
"X c #3C3C30302B2B",
"o c #3E3E32322D2D",
"O c #3F3F32322D2D",
"+ c #404033332E2E",
"@ c #414134342E2E",
"# c #424234342E2E",
"$ c #434335352F2F",
"% c #434336362F2F",
"& c #454536363030",
"* c #464637373030",
"= c #474737373131",
"- c #484838383131",
"; c #494938383131",
": c #4A4A39393232",
"> c #4C4C3B3B3333",
", c #4D4D3C3C3434",
"< c #4E4E3C3C3434",
"1 c #4F4F3D3D3434",
"2 c #52523F3F3636",
"3 c #EAEAD5D57C7C",
"4 c #EB74D7948282",
"5 c #EBBAD8738585",
"6 c #EC44DA328B8B",
"7 c #EC8ADB128E8E",
"8 c #ECCFDBF29191",
"9 c #ED15DCD19494",
"0 c #ED9FDE909A9A",
"q c #EDE5DF709D9D",
"w c #EE13E0059F9F",
/* pixels */
"%%%%&&&%%%%%%%%%%%%%%%",
"%+%+X&oOo&OO&O%O+%+%++",
"        X          .  ",
"..  .XXXXX X XXX......",
"XX..XXXXXXXoXXXX.XXX..",
"+X&XXqwXoooOooooX++X##",
"++X+wqqqOOOOOOOO#.+XX#",
"++&Xq00qOO%OOOOO++++++",
"+$++9098O%O&o%o%######",
"$98++99$&09o&o%%#$####",
"8888&$$$8888%%%%&&$$+%",
"7777-&-$7777&&&%&&&&%&",
"6666--==6666-&--:&----",
"-66--66--66-----&;:&--",
":--:5545-:-::---;;:&-:",
"::::4444:::->->-::::::",
">>>>4343::>:>>>>>>>>>>",
"2>>>>3322>>2>>>>>>>>>>",
">>2>>>>>2:2>2>>22>>2>>",
"2>>222>2>2>2>22>>22>22",
"2222222222222222222222",
"&&&&$$&&&&&&&&&&&&&&$%"
};
