/* XPM */
static char *maxfcs[] = {
/* columns rows colors chars-per-pixel */
"22 22 26 1",
"  c #39392E2E2929",
". c #38382E2E2A2A",
"X c #3B3B2F2F2B2B",
"o c #3C3C30302B2B",
"O c #3E3E32322D2D",
"+ c #3F3F32322D2D",
"@ c #404033332E2E",
"# c #434336362F2F",
"$ c #454536363030",
"% c #464637373030",
"& c #474737373131",
"* c #494938383131",
"= c #4A4A39393232",
"- c #4C4C3B3B3333",
"; c #4D4D3C3C3434",
": c #4F4F3D3D3434",
"> c #52523F3F3636",
", c #EFD5BD3C2CF9",
"< c #EC5EAEEE369C",
"1 c #EA0FA5643D09",
"2 c #EB37AA2939D3",
"3 c #ED86B3B33366",
"4 c #EEADB8773030",
"5 c #F0FCC20129C3",
"6 c #E8E8A0A04040",
"7 c #FFFFFFFFF0F0",
/* pixels */
"####$$$$$$$#####$$$$$#",
"#@#@o$o$OOo##O##o$o$Oo",
"    . .Xo..o  ... ..o.",
"o   XXXXooo.oo..o o.oo",
"ooXXooooO O oooooooooo",
"@o$oo .. ...  ..ooo$oO",
"@@o@o.7777777777.oO$OO",
"@@$o$.7o@o55o#O7.$OOO#",
"$oo$$.7o$,,,,@#7.o$O$o",
"$$$#o.7$444444@7.$$O$$",
"#O$$$.7333333337 $$$$+",
"$$$$$.7<<<<<<<<7 $$$$$",
"$$*$*.7=222222*7 *$*$*",
"****$.7$$1111$*7 $***$",
"***** 7***66***7 ***;$",
"===** 7777777777 **;$;",
";=*;;o.....o .oo.$----",
";;;-;;-->-------;;;;;;",
";;;>;;-;------>-;;;;--",
">;>;>:;>>->>>-->;>>;>>",
">>>>>>>>>>>>>>>>>>>>>>",
"$$$$$#$$$$$$$$$$$$$$##"
};
