/* XPM */
static char * selectedufcs_xpm[] = {
"16 16 2 1",
" 	c None",
".	c #E4D5BD",
"                ",
"                ",
"                ",
"                ",
"                ",
"      .....     ",
"      .....     ",
"      .....     ",
"      .....     ",
"      .....     ",
"                ",
"                ",
"                ",
"                ",
"                ",
"                "};
