/* XPM */
static char *stuckfcs[] = {
/* columns rows colors chars-per-pixel */
"22 22 18 1",
"  c #39392E2E2929",
". c #38382E2E2A2A",
"X c #3B3B2F2F2B2B",
"o c #3C3C30302B2B",
"O c #3E3E32322D2D",
"+ c #3F3F32322D2D",
"@ c #404033332E2E",
"# c #434336362F2F",
"$ c #454536363030",
"% c #464637373030",
"& c #474737373131",
"* c #494938383131",
"= c #4A4A39393232",
"- c #4C4C3B3B3333",
"; c #4D4D3C3C3434",
": c #4F4F3D3D3434",
"> c #52523F3F3636",
", c #FFFFFFFFF0F0",
/* pixels */
"####$$$$$$$#####$$$$$$",
"#@#@o$o$OOo##O##o$o$Oo",
"    . .Xo..o  ...  .o.",
"o   XXXXooo.oo..o.o.oo",
"ooXXooooooo.oooooooooo",
"@o$oo ....    ...oo$oo",
"@@o@o.,,,,,,,,,,.o$oOO",
"@@$o$.,o$o$oo#O,.$o#O#",
"$oo$$.,o$,o$,+$,.o$O$o",
"$$$$o.,$,,$o,,+,.$#O$$",
"++$$$.,,,,$$,,,, $$$##",
"$$$$$.,,,,$$,,,,o$$$$$",
"$$*$*.,&,,**,,&, $*$*$",
"=***$.,$$,*&,&&, ***$$",
"****&o,***&&&&&, $**;*",
"====& ,,,,,,,,,, **;$;",
";===:..........o.*;;;=",
";;:=:;;;:;;;;;;;;;;;;;",
";;;::=;;=;;=;;>;;;;;;:",
">;>:>::>>;>>:;;>;>;:;:",
">>>>>>>>>>>>>>>>>>>:>:",
"$$$$$$$$$$$$$$$$##**#*"
};
