/* XPM */
static char *unshadefcs[] = {
/* columns rows colors chars-per-pixel */
"22 22 24 1",
"  c #39392E2E2929",
". c #38382E2E2A2A",
"X c #3B3B2F2F2B2B",
"o c #3C3C30302B2B",
"O c #3E3E32322D2D",
"+ c #3F3F32322D2D",
"@ c #404033332E2E",
"# c #434336362F2F",
"$ c #454536363030",
"% c #464637373030",
"& c #474737373131",
"* c #494938383131",
"= c #4A4A39393232",
"- c #4C4C3B3B3333",
"; c #4D4D3C3C3434",
": c #4F4F3D3D3434",
"> c #52523F3F3636",
", c #EC5EAEEE369C",
"< c #EA0FA5643D09",
"1 c #EB37AA2939D3",
"2 c #ED86B3B33366",
"3 c #EEADB8773030",
"4 c #E8E8A0A04040",
"5 c #FFFFFFFFF0F0",
/* pixels */
"####$$$$$$$#####$$$$$$",
"#@#@o$o$OOo##O##o$o$OO",
"    . .Xo..o  ..  ..o.",
"o   XXXXooo.oo...o ooo",
"ooXXooooooo.oooooooooo",
"@o$oo ....    ..ooo$oo",
"@@o@o.5555555555.o$OOO",
"@@$o$.5o$o$oo#O5oOOO$O",
"$oo$#.5O333333$5 o$O$o",
"$$$@X.5222222225 #$O$$",
"#O$$# 5,,,,,,,,5 #$$$#",
"$$$$$ 5$111111$5o$$$$$",
"$$=#= 5==<<<<$$5.$$$&&",
"====$ 5$#&44$$=5o$==&&",
"&&=&& 5==&&==&=5.$-&-&",
"===== 5555555555o=$-&-",
":=$:: ........oo.=----",
":::----:>---------;;;;",
"::-:---:------>-:-----",
">=>:>::>>->>>-->->>;>>",
">>>>>>>>>>>>>>>>>>>>>>",
"$$$$$$$$$$$$$$$$$$$$$$"
};
