/* XPM */
static char * close_xpm[] = {
"20 20 69 1",
" 	c None",
".	c #262626",
"+	c #252525",
"@	c #252424",
"#	c #232423",
"$	c #232323",
"%	c #2C1212",
"&	c #430D0D",
"*	c #4E0707",
"=	c #510707",
"-	c #490E0E",
";	c #2E1313",
">	c #222322",
",	c #201C1B",
"'	c #3E0D0D",
")	c #710707",
"!	c #AB0909",
"~	c #B50909",
"{	c #920808",
"]	c #4D0E0E",
"^	c #211C1B",
"/	c #222222",
"(	c #3C0D0D",
"_	c #8A0808",
":	c #B30909",
"<	c #4F0F0F",
"[	c #212121",
"}	c #2B1212",
"|	c #650606",
"1	c #A00909",
"2	c #2F1213",
"3	c #202121",
"4	c #3B0D0D",
"5	c #970808",
"6	c #520E0E",
"7	c #201F20",
"8	c #390606",
"9	c #A90909",
"0	c #680808",
"a	c #1F1F1F",
"b	c #A80909",
"c	c #690808",
"d	c #3A0D0D",
"e	c #520F0E",
"f	c #1E1F1F",
"g	c #2A1212",
"h	c #630606",
"i	c #9C0808",
"j	c #1E1E1E",
"k	c #820707",
"l	c #4F0E0E",
"m	c #1D1D1E",
"n	c #1D1718",
"o	c #3D0D0E",
"p	c #6E0606",
"q	c #B10909",
"r	c #8E0808",
"s	c #4C0E0E",
"t	c #1D1C1D",
"u	c #291112",
"v	c #420D0D",
"w	c #4B0606",
"x	c #500707",
"y	c #480D0D",
"z	c #2B1112",
"A	c #1C1C1C",
"B	c #1B1B1C",
"C	c #1B1A1B",
"D	c #1A1A1A",
"....................",
"++++++++++++++++++++",
"@@@@@@@@@@@@@@@@@@@@",
"####################",
"$$$$$$$%&*=-;$$$$$$$",
">>>>>,')!~~~{]^>>>>>",
"/////(_~~~~~~:</////",
"[[[[}|~~~~~~~~12[[[[",
"333345~~~~~~~~~63333",
"777789~~~~~~~~~07777",
"aaaa8b~~~~~~~~~caaaa",
"aaaad{~~~~~~~~~eaaaa",
"ffffgh~~~~~~~~i;ffff",
"jjjjj(k~~~~~~9ljjjjj",
"mmmmmnop1~~qrsnmmmmm",
"tttttttuvwxyzttttttt",
"AAAAAAAAAAAAAAAAAAAA",
"BBBBBBBBBBBBBBBBBBBB",
"CCCCCCCCCCCCCCCCCCCC",
"DDDDDDDDDDDDDDDDDDDD"};
