/* XPM */
static char * maximize_xpm[] = {
"20 20 83 1",
" 	c None",
".	c #262525",
"+	c #252424",
"@	c #242323",
"#	c #212021",
"$	c #24211C",
"%	c #232323",
"&	c #252121",
"*	c #1B1B3B",
"=	c #232222",
"-	c #1B1A21",
";	c #3C3C80",
">	c #4449C1",
",	c #232018",
"'	c #222121",
")	c #272227",
"!	c #7E81D3",
"~	c #8184D4",
"{	c #2B2737",
"]	c #212020",
"^	c #212121",
"/	c #1D1B1B",
"(	c #3F42B9",
"_	c #6063C5",
":	c #232019",
"<	c #202020",
"[	c #1A1A23",
"}	c #1E1F51",
"|	c #2A2A5A",
"1	c #1D1D1E",
"2	c #201F1F",
"3	c #1F1E20",
"4	c #131327",
"5	c #585CC7",
"6	c #7074CF",
"7	c #14142F",
"8	c #1C1C22",
"9	c #1F1F1F",
"0	c #161723",
"a	c #23266A",
"b	c #292D7E",
"c	c #111125",
"d	c #1E1E1E",
"e	c #1D1D1F",
"f	c #111234",
"g	c #7175D0",
"h	c #7C7FD3",
"i	c #14153C",
"j	c #1B1B20",
"k	c #1E1D1D",
"l	c #13141F",
"m	c #2C2F85",
"n	c #34389D",
"o	c #18171C",
"p	c #1D1C1C",
"q	c #1A191F",
"r	c #15173B",
"s	c #18183E",
"t	c #191920",
"u	c #1C1C1C",
"v	c #101025",
"w	c #383DAB",
"x	c #4045BF",
"y	c #15151E",
"z	c #1B1B1B",
"A	c #16171E",
"B	c #0E0F2A",
"C	c #1D1F58",
"D	c #1D1E4E",
"E	c #242342",
"F	c #28253C",
"G	c #2C2835",
"H	c #2F2A30",
"I	c #2A2632",
"J	c #27253D",
"K	c #242343",
"L	c #1E1A15",
"M	c #1B1A1A",
"N	c #1A191B",
"O	c #16151D",
"P	c #1A1A1A",
"Q	c #191919",
"R	c #181818",
"....................",
"....................",
"++++++++++++++++++++",
"@@@@@@@@@#$@@@@@@@@@",
"%%%%%%%%%&*%%%%%%%%%",
"========-;>,========",
"'''''''')!~{]'''''''",
"^^^^^^^/(~~_:^^^^^^^",
"<<<<<<[}~~~~|1<<<<<<",
"22222345~~~~67822222",
"999990a~~~~~~bc99999",
"ddddefg~~~~~~hijdddd",
"kkkklm~~~~~~~~nokkkk",
"pppqrh~~~~~~~~~stppp",
"uuuvw~~~~~~~~~~xyuuu",
"zzABCCCDEF{GHIJKLzzz",
"MMNOOoNMMMMMMMMMMMMM",
"PPPPPPPPPPPPPPPPPPPP",
"QQQQQQQQQQQQQQQQQQQQ",
"RRRRRRRRRRRRRRRRRRRR"};
