/* XPM */
static char *closefcs_custom[] = {
/* columns rows colors chars-per-pixel */
"22 13 14 1",
"  c #4F4F9393DEDE",
". c #549B96D3DFDC",
"X c #59E89A14E0DA",
"o c #5F359D55E1D9",
"O c #6482A095E2D7",
"+ c #69CFA3D6E3D6",
"@ c #6F1CA717E4D4",
"# c #7469AA57E5D3",
"$ c #79B6AD98E6D1",
"% c #7F03B0D9E7CF",
"& c #8450B419E8CE",
"* c #899DB75AE9CC",
"= c #8D26B985EA76",
"- c None",
/* pixels */
"-----==---------------",
"----****--------------",
"----&&&&--------------",
"----%%%%--------------",
"-$$--$$--$$-----------",
"####----####----------",
"@@@@----@@@@----------",
"++++----++++----------",
"-OO--OO--OO-----------",
"----oooo--------------",
"----XXXX--------------",
"----....--------------",
"-----  ---------------"
};
