/* XPM */
static char * closeufcs_custom_xpm[] = {
"22 13 2 1",
" 	c None",
".	c #99958B",
"     ..               ",
"    ....              ",
"    ....              ",
"    ....              ",
" ..  ..  ..           ",
"....    ....          ",
"....    ....          ",
"....    ....          ",
" ..  ..  ..           ",
"    ....              ",
"    ....              ",
"    ....              ",
"     ..               "};
