/* XPM */
static char * stuckfcs_custom_xpm[] = {
"8 8 2 1",
" 	c None",
".	c #DFD8C8",
"        ",
"  .  .  ",
" ..  .. ",
"...  ...",
"...  ...",
" ..  .. ",
"  .  .  ",
"        "};
