/* XPM */
static char * max_xpm[] = {
"24 26 7 1",
" 	c None",
".	c #D6D6D6",
"+	c #DEDEDE",
"@	c #959595",
"#	c #424242",
"$	c #8B8B8B",
"%	c #909090",
"........................",
"........................",
"........................",
"........................",
"........................",
"........................",
"........................",
"........................",
".........++++++++.......",
".........+@#####+.......",
".......++++@####+.......",
".......+$+++++##+.......",
".......+#$+..+##+.......",
".......+##+..+@#+.......",
".......+##+++++%+.......",
".......+####$++++.......",
".......+#####$+.........",
".......++++++++.........",
"........................",
"........................",
"........................",
"........................",
"........................",
"........................",
"........................",
"........................"};
