/* XPM */
static char * menuicon_xpm[] = {
"24 26 4 1",
" 	c None",
".	c #D6D6D6",
"+	c #D8D8D8",
"@	c #2E3436",
"........................",
"........................",
"........................",
"........................",
"+..+++..+.+++.++.+.++.+.",
"..+++.++++++.++++.++++++",
"........................",
"........................",
"........................",
"........@@@@@@@@........",
"........@@@@@@@@........",
"........@@....@@........",
"........@@@@@@@@........",
"........@@....@@........",
"........@@@@@@@@........",
"........@@@@@@@@........",
"........@@@@@@@@........",
"........................",
"........................",
"........................",
"........................",
"........................",
"........................",
"........................",
"........................",
"........................"};
