/* XPM */
static char * min_pressed_xpm[] = {
"24 26 9 1",
" 	c None",
".	c #D6D6D6",
"+	c #8DBAE8",
"@	c #3A9BFD",
"#	c #3399FF",
"$	c #8EBBE8",
"%	c #3B9CFD",
"&	c #FFFFFF",
"*	c #8FBCE8",
"........................",
"........................",
"........................",
"..+@################@$..",
"..@##################%..",
"..####################..",
"..####################..",
"..####################..",
"..####################..",
"..####################..",
"..####################..",
"..####################..",
"..####################..",
"..####################..",
"..######&&&&&&&&######..",
"..######&&&&&&&&######..",
"..####################..",
"..####################..",
"..####################..",
"..####################..",
"..####################..",
"..@##################%..",
"..$%################%*..",
"........................",
"........................",
"........................"};
