/* XPM */
static char * stuck_xpm[] = {
"24 26 3 1",
" 	c None",
".	c #D6D6D6",
"+	c #2E3436",
"........................",
"........................",
"........................",
"........................",
"........................",
"........................",
"........................",
"........................",
"........................",
"........++++++++........",
"........++++++++........",
"........++++++++........",
"........++++++++........",
"........++++++++........",
"........++++++++........",
"........++++++++........",
"........++++++++........",
"........................",
"........................",
"........................",
"........................",
"........................",
"........................",
"........................",
"........................",
"........................"};
