/* XPM */
static char * unshade_pressed_xpm[] = {
"24 26 3 1",
" 	c #D6D6D6",
".	c #A9A9A9",
"+	c #C6C6C6",
"                        ",
"                        ",
"                        ",
"                        ",
"                        ",
"                        ",
"                        ",
"                        ",
"                        ",
"        ........        ",
"        ........        ",
"                        ",
"        .+    +.        ",
"        +.+  +.+        ",
"         +.++.+         ",
"          +..+          ",
"           ..           ",
"                        ",
"                        ",
"                        ",
"                        ",
"                        ",
"                        ",
"                        ",
"                        ",
"                        "};
